<svg width="260" height="212" viewBox="0 0 260 212" fill="none" xmlns="http://www.w3.org/2000/svg">
<path d="M30.7514 53.5411L222.681 36.422C229.761 35.7905 235.52 42.038 234.313 49.044L216.175 154.363C215.264 159.656 210.611 163.48 205.242 163.349L46.5251 159.491C41.3807 159.366 37.0354 155.637 36.1299 150.572L21.0547 66.2307C19.937 59.9744 24.4216 54.1055 30.7514 53.5411Z" fill="#009C48"/>
<path d="M38.3196 155.403C40.2653 157.846 43.2282 159.411 46.5245 159.492L205.242 163.35C210.611 163.481 215.263 159.656 216.175 154.364L233.893 51.4766L38.3196 155.403Z" fill="#03A64E"/>
<path d="M46.5251 159.491L104.107 181.332C107.084 182.461 110.1 179.775 109.323 176.688L105.353 160.921L46.5251 159.491Z" fill="#2A2B2F"/>
<path d="M160.71 171.126L204.773 172.397L211.412 187.542L160.71 171.126Z" fill="#2A2B2F"/>
<path d="M157.089 182.062L173.99 196.844L165.539 211.629L157.089 182.062Z" fill="#2A2B2F"/>
<path d="M81.0371 41.3947L152.864 28.6886L135.964 15.4528L81.0371 41.3947Z" fill="#2A2B2F"/>
<path d="M73.1909 37.1899L97.9375 19.0571L91.9017 0.370483L73.1909 37.1899Z" fill="#2A2B2F"/>
<path d="M222.158 27.2862L234.474 10.7975L242.981 21.5114L222.158 27.2862Z" fill="#2A2B2F"/>
<path d="M225.477 29.7605L259.726 24.7272L254.45 32.8704L225.477 29.7605Z" fill="#2A2B2F"/>
<path d="M26.0345 168.979L17.8054 173.235L23.1515 183.573C24.6303 186.433 28.1466 187.552 31.006 186.073C32.6918 185.201 33.3516 183.128 32.4795 181.442L26.0345 168.979Z" fill="#9099D5"/>
<path d="M24.2793 171.631L20.8677 173.395C18.8162 174.456 16.2931 173.654 15.2317 171.602L14.5755 170.334C14.3392 169.877 14.5179 169.315 14.9754 169.078L24.1611 164.328C24.618 164.091 25.1801 164.27 25.4165 164.728L26.0727 165.996C27.134 168.046 26.3308 170.569 24.2793 171.631Z" fill="#222C72"/>
<path d="M3.66113 157.513L9.73752 169.262C10.3408 170.428 11.7038 170.974 12.9486 170.556C26.5678 165.987 40.0319 163.946 53.343 164.408L32.8242 124.734C25.5083 135.863 16.062 145.672 4.46081 154.145C3.40064 154.919 3.05843 156.347 3.66113 157.513Z" fill="#BFC7FC"/>
<path d="M8.31641 166.513L9.7376 169.262C10.3409 170.428 11.7039 170.973 12.9487 170.556C26.5679 165.986 40.0319 163.946 53.3431 164.408L49.9868 157.918C36.4793 158.587 22.7118 161.409 8.68038 166.408C8.55925 166.452 8.43812 166.485 8.31641 166.513Z" fill="#9099D5"/>
<path d="M4.53424 159.18L3.01015 159.968C0.528197 161.252 -0.443178 164.305 0.840426 166.787C2.12403 169.269 5.17693 170.24 7.65887 168.957L9.18297 168.168L4.53424 159.18Z" fill="#2D3DA3"/>
<path d="M1.79419 168.074C3.31182 169.562 5.66793 169.986 7.6589 168.957L9.183 168.168L7.5854 165.079L1.79419 168.074Z" fill="#222C72"/>
<path d="M53.3462 164.398C56.6255 162.701 54.6903 152.445 49.0238 141.49C43.3574 130.534 36.1055 123.028 32.8263 124.724C29.547 126.421 31.4822 136.677 37.1486 147.632C42.8151 158.587 50.067 166.094 53.3462 164.398Z" fill="#1B2252"/>
<path d="M46.1983 145.622L44.0262 141.422C43.8104 141.005 43.3235 140.81 42.8784 140.959C40.1942 141.86 37.5264 142.484 34.8757 142.836C35.5472 144.406 36.3052 146.016 37.146 147.642C37.9868 149.267 38.8624 150.816 39.755 152.271C41.5748 150.312 43.6258 148.496 45.9125 146.825C46.2912 146.549 46.4135 146.038 46.1983 145.622Z" fill="#2A2B2F"/>
<path d="M43.5439 146.165C40.498 147.011 37.8985 145.136 36.4356 142.595C35.9146 142.685 35.3942 142.768 34.875 142.836C35.5465 144.406 36.3044 146.016 37.1453 147.642C37.9861 149.267 38.8616 150.816 39.7542 152.271C41.5741 150.312 43.625 148.496 45.9118 146.825C46.2904 146.548 46.4133 146.038 46.1975 145.621L45.8777 145.002C45.1703 145.518 44.4006 145.928 43.5439 146.165Z" fill="#A43F0F"/>
<path d="M50.4123 164.137C48.9793 163.444 47.3153 162.068 45.5625 160.155C42.7889 157.129 39.7942 152.762 37.1458 147.641C34.4975 142.52 32.6647 137.552 31.798 133.54C31.2505 131.004 31.0889 128.85 31.3517 127.28C31.5628 126.02 32.0467 125.135 32.8246 124.733L28.4211 127.01C25.1418 128.706 27.0763 138.962 32.7429 149.918C38.4089 160.874 45.6607 168.38 48.9399 166.685L53.3435 164.407C52.5644 164.811 51.563 164.694 50.4123 164.137Z" fill="#2D3DA3"/>
<path d="M50.4124 164.137C48.9794 163.444 47.3154 162.068 45.5625 160.155C44.7711 159.292 43.9614 158.316 43.1476 157.248C41.6241 157.931 40.0994 158.612 38.5918 159.327C42.7113 164.788 46.7285 167.829 48.9394 166.685L53.343 164.408C52.5644 164.811 51.5631 164.694 50.4124 164.137Z" fill="#222C72"/>
<path d="M50.9475 138.878L64.8031 128.446L65.9592 135.375L50.9475 138.878Z" fill="#2A2B2F"/>
<path d="M48.2009 129.064L55.5592 113.359L59.8251 118.94L48.2009 129.064Z" fill="#2A2B2F"/>
<path d="M57.5747 147.57L74.348 143.158L72.7963 150.009L57.5747 147.57Z" fill="#2A2B2F"/>
<path d="M245 47.4258C248.033 47.4258 248.033 42.7218 245 42.7218C241.966 42.7218 241.966 47.4258 245 47.4258Z" fill="#2A2B2F"/>
<path d="M200.716 27.0792C203.75 27.0792 203.75 22.3752 200.716 22.3752C197.683 22.3752 197.683 27.0792 200.716 27.0792Z" fill="#2A2B2F"/>
<path d="M58.2917 40.2445C61.3252 40.2445 61.3252 35.5405 58.2917 35.5405C55.2582 35.5405 55.2582 40.2445 58.2917 40.2445Z" fill="#2A2B2F"/>
<path d="M177.977 35.1736C179.872 35.1736 179.872 32.2336 177.977 32.2336C176.08 32.2336 176.08 35.1736 177.977 35.1736Z" fill="#2A2B2F"/>
<path d="M136.685 186.575C138.581 186.575 138.581 183.635 136.685 183.635C134.789 183.635 134.789 186.575 136.685 186.575Z" fill="#2A2B2F"/>
<path d="M85.2209 194.355C87.1166 194.355 87.1166 191.415 85.2209 191.415C83.3251 191.415 83.3251 194.355 85.2209 194.355Z" fill="#2A2B2F"/>
<path d="M10.4179 140.496C12.3136 140.496 12.3136 137.556 10.4179 137.556C8.52217 137.556 8.52217 140.496 10.4179 140.496Z" fill="#2A2B2F"/>
<path d="M12.213 67.489C14.1088 67.489 14.1088 64.549 12.213 64.549C10.3173 64.549 10.3173 67.489 12.213 67.489Z" fill="#2A2B2F"/>
<path d="M78.5768 98.554L78.4852 77.5028L81.7261 77.036L81.8176 98.0872L78.5768 98.554ZM86.1238 97.4669L86.0323 76.4158L88.6361 76.0407L100.107 90.7029L99.0266 91.0563L98.968 74.5526L102.237 74.0818L102.328 95.133L99.6967 95.512L88.3209 80.7231L89.2862 80.3579L89.3647 97.0001L86.1238 97.4669ZM112.085 93.7277L104.708 73.7258L108.088 73.239L114.115 90.3533L113.395 90.4571L119.306 71.6232L122.99 71.0926L115.741 93.201L112.085 93.7277ZM125.509 91.7941L125.418 70.7429L128.659 70.2762L128.75 91.3273L125.509 91.7941ZM136.685 90.1844L136.625 72.0976L131.14 72.8875L131.137 69.9192L145.263 67.8845L145.267 70.8528L139.865 71.6308L139.954 89.7137L136.685 90.1844ZM147.826 88.5798L147.734 67.5286L161.307 65.5737L161.338 68.538L151.006 70.0261L151.029 76.0736L160.807 74.6652L160.811 77.6335L151.033 79.0419L151.063 85.1447L161.395 83.6565L161.399 86.6248L147.826 88.5798ZM167.448 85.7535L174.614 63.6571L178.658 63.0746L186.007 83.0804L182.627 83.5672L181.047 79.073L172.682 80.2779L171.104 85.2269L167.448 85.7535ZM173.62 77.1739L180.047 76.2483L176.334 65.7844L177.264 65.7635L173.62 77.1739Z" fill="white"/>
<path d="M78.9676 136.439L78.8564 110.863L95.5818 108.454L95.625 112.57L83.4427 114.325L83.4989 121.393L94.1332 119.861L94.1428 123.982L83.5085 125.514L83.5444 135.779L78.9676 136.439ZM98.686 133.598L98.5748 108.023L107.56 106.729C109.153 106.499 110.586 106.591 111.859 107.003C113.132 107.415 114.175 108.135 114.987 109.163C115.818 110.165 116.35 111.474 116.583 113.089C116.758 114.301 116.704 115.442 116.423 116.513C116.143 117.584 115.652 118.548 114.951 119.405C114.25 120.261 113.356 120.974 112.27 121.543L117.935 130.826L113.022 131.534L106.778 121.097L109.805 122.55L103.242 123.496L103.263 132.939L98.686 133.598ZM103.233 119.375L108.112 118.672C108.987 118.546 109.735 118.255 110.357 117.799C110.975 117.321 111.428 116.729 111.716 116.023C112.003 115.318 112.087 114.55 111.968 113.72C111.816 112.665 111.36 111.884 110.599 111.375C109.858 110.841 108.916 110.656 107.772 110.821L103.161 111.485L103.233 119.375ZM121.198 130.356L121.087 104.781L125.663 104.121L125.775 129.697L121.198 130.356ZM130.63 128.997L130.519 103.422L147.21 101.018L147.22 105.139L135.105 106.884L135.156 113.437L146.564 111.794L146.607 115.91L135.165 117.558L135.197 124.218L147.278 122.477L147.322 126.593L130.63 128.997ZM150.644 126.115L150.533 100.539L154.134 100.021L167.679 117.031L166.117 117.634L166.047 98.3048L170.623 97.6456L170.735 123.221L167.134 123.74L153.704 106.575L155.131 105.992L155.221 125.456L150.644 126.115ZM175.588 122.522L175.477 96.9466L183.217 95.8318C185.617 95.486 187.773 95.6679 189.684 96.3773C191.596 97.0867 193.168 98.2229 194.401 99.7858C195.63 101.326 196.403 103.196 196.72 105.394C197.007 107.391 196.947 109.278 196.539 111.054C196.131 112.83 195.387 114.426 194.308 115.841C193.252 117.253 191.922 118.429 190.317 119.37C188.709 120.289 186.839 120.901 184.708 121.208L175.588 122.522ZM180.155 117.742L184.16 117.165C185.551 116.965 186.775 116.56 187.832 115.949C188.908 115.313 189.8 114.509 190.507 113.537C191.211 112.543 191.704 111.43 191.984 110.199C192.262 108.945 192.299 107.611 192.095 106.198C191.875 104.672 191.383 103.404 190.619 102.391C189.855 101.379 188.87 100.662 187.665 100.241C186.456 99.7965 185.066 99.6875 183.495 99.9137L180.063 100.408L180.155 117.742Z" fill="white"/>
</svg>
