<svg width="165" height="128" viewBox="0 0 165 128" fill="none" xmlns="http://www.w3.org/2000/svg">
<g opacity="0.4">
<path d="M36.8582 18.8481L8.61938 22.7013L11.063 40.6098L39.3018 36.7566L36.8582 18.8481Z" fill="#EBEBEB"/>
<path d="M36.861 18.8567C35.868 20.1022 34.8494 21.3049 33.865 22.5332C32.8806 23.7616 31.8277 24.9514 30.8048 26.1498C29.7819 27.3482 28.6648 28.6408 27.5862 29.8734L27.4878 29.9933C26.5376 31.0804 25.5818 32.1689 24.6202 33.2589L24.479 33.413L24.3035 33.3017C23.088 32.5099 21.881 31.7181 20.6698 30.9177C20.6251 30.8937 20.5822 30.8665 20.5414 30.8364C19.1718 29.9333 17.8022 29.026 16.4368 28.1015C15.0715 27.177 13.826 26.3381 12.5249 25.4436C11.2238 24.5491 9.92695 23.6417 8.63867 22.7044C9.97831 23.4748 11.3051 24.2923 12.6319 25.0884C13.9587 25.8844 15.2898 26.7148 16.6166 27.5451C18.0889 28.461 19.5612 29.3926 21.0336 30.3399C22.1378 31.0419 23.2406 31.7552 24.342 32.4799C25.198 31.4998 26.084 30.5197 26.9614 29.5524C28.1298 28.2684 29.294 26.9587 30.471 25.6747C31.5238 24.5334 32.5824 23.3921 33.6467 22.2507C34.7167 21.0994 35.7739 19.9566 36.861 18.8567Z" fill="white"/>
<path d="M21.1149 30.7422L21.085 30.7765C20.9566 30.922 20.8239 31.0718 20.6912 31.2045C20.0663 31.8978 19.4072 32.5698 18.7566 33.2289C17.952 34.0378 17.1217 34.8211 16.2828 35.6C15.4439 36.379 14.5965 37.128 13.7148 37.8684C12.8331 38.6089 11.96 39.3408 11.0398 40.0084C11.7931 39.1524 12.5892 38.3221 13.3938 37.5175C14.1984 36.7128 15.033 35.9253 15.8676 35.1464C16.7022 34.3674 17.5796 33.6098 18.4356 32.8694C19.129 32.2788 19.8352 31.6924 20.5756 31.136C20.7426 31.0033 20.9138 30.8792 21.085 30.7508L21.1149 30.7422Z" fill="white"/>
<path d="M39.138 36.1993C38.068 35.7713 37.0194 35.3433 35.9879 34.8425C34.9564 34.3417 33.9292 33.8495 32.9106 33.3402C31.892 32.8309 30.8862 32.2788 29.9146 31.7138C29.1057 31.2601 28.301 30.7893 27.5178 30.2886L27.0128 29.9676L26.9785 29.9419H27.0213L27.6162 30.1816C28.4722 30.5197 29.2983 30.8963 30.1286 31.2815C31.1686 31.7609 32.1873 32.2702 33.2016 32.7881C34.216 33.306 35.2261 33.8453 36.1976 34.4102C37.1692 34.9752 38.1964 35.5658 39.138 36.1993Z" fill="white"/>
<path d="M128.686 80.6131L123.538 102.354L157.819 110.47L162.967 88.7294L128.686 80.6131Z" fill="#EBEBEB"/>
<path d="M162.958 88.7191C161.246 89.7163 159.534 90.6494 157.848 91.6252C156.162 92.6011 154.424 93.5084 152.712 94.4329C150.923 95.4002 149.134 96.3546 147.345 97.2962L147.178 97.3947L142.419 99.9027L142.188 100.014L142.034 99.8086C140.984 98.3591 139.941 96.9039 138.905 95.443C138.866 95.3959 138.828 95.3445 138.794 95.2932C137.612 93.6411 136.435 91.989 135.271 90.3155C134.158 88.7277 133.05 87.1184 131.946 85.5091C130.841 83.8998 129.75 82.2734 128.68 80.6213C129.883 82.1065 131.047 83.6387 132.228 85.1496C133.409 86.6604 134.573 88.2012 135.729 89.7506C137.016 91.4626 138.3 93.1917 139.581 94.9379L142.457 98.8541C143.891 98.1137 145.338 97.3647 146.776 96.6414C148.696 95.6627 150.621 94.6926 152.549 93.731C154.261 92.875 155.989 92.029 157.733 91.1929C159.492 90.3541 161.221 89.5066 162.958 88.7191Z" fill="white"/>
<path d="M139.517 95.4302L139.465 95.4559L138.819 95.7854C137.788 96.3076 136.743 96.7955 135.686 97.2577C134.402 97.8313 133.093 98.3663 131.783 98.8927C130.473 99.4191 129.155 99.9071 127.82 100.374C126.484 100.84 125.149 101.29 123.779 101.658C125.038 100.99 126.317 100.399 127.606 99.8257C128.894 99.2522 130.204 98.7172 131.509 98.1908C132.814 97.6643 134.141 97.1721 135.477 96.7056C136.538 96.329 137.617 95.9695 138.699 95.6527L139.457 95.4345L139.517 95.4302Z" fill="white"/>
<path d="M157.895 109.747C156.842 108.797 155.841 107.795 154.865 106.781C153.889 105.766 152.93 104.726 151.985 103.678C151.039 102.629 150.118 101.559 149.228 100.468C148.496 99.5817 147.777 98.6829 147.088 97.7542C146.937 97.5573 146.794 97.3604 146.66 97.1635C146.65 97.1471 146.638 97.1314 146.626 97.1165C146.64 97.1316 146.656 97.1445 146.673 97.155L147.251 97.6943C148.081 98.4647 148.873 99.2693 149.66 100.078C150.645 101.093 151.591 102.137 152.537 103.186C153.483 104.234 154.398 105.304 155.293 106.396C156.187 107.487 157.073 108.587 157.895 109.747Z" fill="white"/>
<path d="M99.9867 70.1867L94.3713 70.3066L91.5208 70.3537C90.5664 70.3537 89.6076 70.3537 88.6532 70.3793H88.4649V70.1867L88.4392 65.3974V65.1834H88.6532L94.3199 65.2091C96.2117 65.2091 98.0992 65.2604 99.9867 65.2818H100.106V65.3974C100.106 66.2106 100.068 67.0195 100.047 67.8199L99.9867 70.1867ZM99.9867 70.1867L99.9267 67.7685C99.9267 66.9682 99.8796 66.1807 99.8711 65.3974L99.9867 65.513C98.0992 65.5386 96.2117 65.5815 94.3199 65.5857L88.6532 65.6114L88.8672 65.3974L88.8458 70.1867L88.6532 69.9984C89.5862 69.9984 90.5193 69.9984 91.4566 70.0198L94.2729 70.0669L99.9867 70.1867Z" fill="#EBEBEB"/>
<path d="M93.6651 76.2258L88.0498 76.3456L85.1993 76.3927C84.2448 76.4141 83.2861 76.3927 82.3317 76.4184H82.1434V76.2258L82.1177 71.4365V71.2267H82.3317L87.9984 71.2524C89.8859 71.2524 91.7776 71.3038 93.6651 71.3252H93.785V71.4407C93.785 72.2539 93.7507 73.0629 93.7293 73.8589L93.6651 76.2258ZM93.6651 76.2258L93.6052 73.8076C93.5838 73.0072 93.5581 72.2197 93.5496 71.4365L93.6651 71.552C91.7776 71.5777 89.8859 71.6205 87.9984 71.6248L82.3317 71.6505L82.5457 71.4365V76.2258L82.3531 76.0375C83.2861 76.0375 84.2192 76.0375 85.1565 76.0375L87.9727 76.0845L93.6651 76.2258Z" fill="#EBEBEB"/>
<path d="M87.3693 70.1867L81.7497 70.3066L78.8992 70.3537C77.949 70.3537 76.9903 70.3537 76.0359 70.3793H75.8433V70.1867V65.3974V65.1834H76.0573L81.724 65.2091C83.6115 65.2091 85.4989 65.2604 87.3907 65.2818H87.502V65.3974C87.502 66.2106 87.4635 67.0195 87.4463 67.8199L87.3693 70.1867ZM87.3693 70.1867L87.3094 67.7685C87.288 66.9682 87.258 66.1807 87.2495 65.3974L87.3693 65.513C85.4775 65.5386 83.5901 65.5815 81.7026 65.5857L76.0359 65.6114L76.2499 65.3974L76.2242 70.1867L76.0359 69.9984C76.9689 69.9984 77.8977 69.9984 78.835 70.0198L81.6512 70.0669L87.3693 70.1867Z" fill="#EBEBEB"/>
<path d="M155.665 40.5007C157.565 41.6428 159.778 42.1541 161.987 41.9614C164.195 41.7687 166.286 40.8818 167.959 39.4279C169.633 37.974 170.803 36.0277 171.303 33.8678C171.802 31.708 171.605 29.4454 170.74 27.4044C169.875 25.3633 168.386 23.6486 166.486 22.5058C164.586 21.3631 162.374 20.8509 160.165 21.0428C157.957 21.2347 155.865 22.1208 154.191 23.5741C152.517 25.0274 151.346 26.9733 150.846 29.133C150.334 31.294 150.525 33.5622 151.392 35.6069C152.259 37.6517 153.756 39.3662 155.665 40.5007Z" fill="#EBEBEB"/>
<path d="M157.869 30.3399C157.876 30.9724 158.07 31.5886 158.428 32.1106C158.785 32.6327 159.289 33.0371 159.876 33.2726C160.463 33.5082 161.106 33.5643 161.725 33.434C162.344 33.3036 162.911 32.9926 163.353 32.5403C163.795 32.088 164.093 31.5147 164.209 30.893C164.325 30.2712 164.254 29.629 164.006 29.0475C163.757 28.466 163.341 27.9714 162.811 27.6263C162.281 27.2811 161.66 27.1009 161.028 27.1085C160.181 27.1187 159.372 27.4647 158.78 28.0706C158.188 28.6765 157.86 29.4927 157.869 30.3399Z" fill="white"/>
<path d="M155.648 39.1824V40.5007C157.319 41.5068 159.238 42.027 161.189 42.0028C163.139 41.9786 165.045 41.411 166.69 40.3637V39.0497C166.637 37.6093 166.023 36.2468 164.979 35.2529C163.935 34.259 162.544 33.7124 161.102 33.7297C159.661 33.747 158.284 34.3269 157.264 35.3456C156.244 36.3642 155.663 37.7411 155.644 39.1824H155.648Z" fill="white"/>
<path d="M3.93497 83.4076C5.23023 84.1881 6.71745 84.592 8.22958 84.5738C9.7417 84.5557 11.2188 84.1163 12.495 83.3049C13.9876 82.356 15.1301 80.9462 15.7494 79.2894C16.3686 77.6325 16.4308 75.819 15.9264 74.1237C15.4221 72.4283 14.3787 70.9437 12.9546 69.8947C11.5304 68.8458 9.80306 68.2898 8.03443 68.311C6.26579 68.3322 4.5523 68.9295 3.15371 70.0123C1.75513 71.0951 0.747715 72.6044 0.284198 74.3114C-0.17932 76.0183 -0.0736664 77.8298 0.585142 79.4713C1.24395 81.1128 2.41999 82.4948 3.93497 83.4076Z" fill="#EBEBEB"/>
<path d="M5.64276 75.5453C5.64872 76.0345 5.79962 76.511 6.07637 76.9145C6.35312 77.3179 6.74329 77.6303 7.19755 77.812C7.65181 77.9937 8.14976 78.0367 8.62843 77.9354C9.1071 77.8342 9.545 77.5932 9.88674 77.2431C10.2285 76.893 10.4587 76.4494 10.5484 75.9684C10.638 75.4874 10.583 74.9907 10.3904 74.5409C10.1977 74.0912 9.87597 73.7087 9.46591 73.4418C9.05586 73.1749 8.57587 73.0356 8.08664 73.0415C7.76176 73.0454 7.44084 73.1133 7.14219 73.2412C6.84355 73.3692 6.57303 73.5547 6.34609 73.7872C6.11915 74.0197 5.94024 74.2946 5.81956 74.5963C5.69888 74.8979 5.6388 75.2204 5.64276 75.5453Z" fill="white"/>
<path d="M3.92633 82.389V83.4076C5.22159 84.1881 6.70882 84.592 8.22094 84.5738C9.73307 84.5557 11.2102 84.1162 12.4863 83.3049V82.2863C12.4727 81.1511 12.0087 80.0679 11.1964 79.2749C10.3841 78.4819 9.2901 78.044 8.15497 78.0576C7.01985 78.0712 5.93662 78.5352 5.1436 79.3475C4.35058 80.1598 3.91271 81.2539 3.92633 82.389Z" fill="white"/>
<path d="M49.4784 9.19672C50.2657 9.67205 51.1701 9.9179 52.0897 9.90656C53.0093 9.89522 53.9075 9.62712 54.6828 9.13252C55.5925 8.555 56.2889 7.69654 56.6665 6.68739C57.0441 5.67823 57.0823 4.57345 56.7752 3.54064C56.4681 2.50784 55.8326 1.60338 54.9649 0.964476C54.0973 0.32557 53.045 -0.0129134 51.9675 0.00037694C50.8901 0.0136673 49.8465 0.378007 48.9949 1.03812C48.1432 1.69823 47.5302 2.6181 47.2487 3.65816C46.9671 4.69822 47.0325 5.80173 47.4349 6.80126C47.8373 7.8008 48.5547 8.64181 49.4784 9.19672Z" fill="#EBEBEB"/>
<path d="M50.5184 4.40738C50.5218 4.70532 50.6134 4.99557 50.7818 5.24141C50.9502 5.48725 51.1876 5.67765 51.4642 5.78853C51.7408 5.89941 52.044 5.92579 52.3355 5.86434C52.6271 5.80289 52.8939 5.65636 53.1022 5.44329C53.3104 5.23022 53.4509 4.96017 53.5057 4.6673C53.5605 4.37442 53.5272 4.07187 53.4101 3.7979C53.293 3.52393 53.0972 3.29084 52.8476 3.12812C52.598 2.96539 52.3058 2.88034 52.0078 2.8837C51.6086 2.88934 51.2278 3.05277 50.9488 3.33827C50.6697 3.62378 50.5149 4.00815 50.5184 4.40738Z" fill="white"/>
<path d="M49.4699 8.57613V9.19673C50.2572 9.67205 51.1617 9.91791 52.0813 9.90656C53.0009 9.89522 53.8991 9.62713 54.6744 9.13253V8.51193C54.6659 7.82177 54.3836 7.16326 53.8895 6.68127C53.3955 6.19927 52.7302 5.93327 52.0401 5.94179C51.3499 5.9503 50.6914 6.23263 50.2094 6.72666C49.7274 7.2207 49.4614 7.88597 49.4699 8.57613Z" fill="white"/>
<path d="M120.616 11.4866H50.7795C49.8427 11.495 48.9168 11.6879 48.0546 12.0542C47.1924 12.4206 46.4109 12.9533 45.7547 13.6219C45.0985 14.2904 44.5804 15.0817 44.2301 15.9506C43.8798 16.8194 43.7042 17.7488 43.7132 18.6855V162.446C43.6973 164.337 44.4325 166.157 45.7575 167.506C47.0824 168.855 48.8887 169.623 50.7795 169.641H120.616C122.507 169.623 124.314 168.855 125.64 167.506C126.965 166.157 127.702 164.338 127.687 162.446V18.6855C127.695 17.7486 127.519 16.8191 127.168 15.9502C126.818 15.0814 126.299 14.2901 125.643 13.6216C124.986 12.9531 124.204 12.4205 123.342 12.0542C122.479 11.6878 121.553 11.495 120.616 11.4866ZM123.266 158C123.266 161.783 120.432 164.848 116.94 164.848H54.4517C50.9507 164.848 48.1173 161.783 48.1173 158V24.1468C48.1173 16.4428 50.9507 16.0619 54.4517 16.0619H66.9707C67.6983 16.0619 68.2933 16.8879 68.2933 17.9109V18.3389C68.2933 20.7357 69.6072 20.7442 71.2165 20.7442H100.158C101.784 20.7442 103.09 20.7442 103.09 18.3389V17.9109C103.09 16.8879 103.676 16.0619 104.416 16.0619H116.931C120.424 16.0619 123.257 17.0848 123.257 24.1468L123.266 158Z" fill="#DADADA"/>
<path d="M123.27 24.2495V158.111C123.27 161.894 120.436 164.959 116.944 164.959H54.456C50.9549 164.959 48.1216 161.899 48.1216 158.111V24.2495C48.1216 16.5455 50.9549 16.1646 54.456 16.1646H66.975C67.7026 16.1646 68.2975 16.9949 68.2975 18.0179V18.4459C68.2975 20.8469 69.6115 20.8555 71.2207 20.8555H100.171C101.797 20.8555 103.102 20.8555 103.102 18.4459V18.0179C103.102 16.9949 103.689 16.1646 104.429 16.1646H116.944C120.458 16.1646 123.27 17.1918 123.27 24.2495Z" fill="#2A2B2F"/>
<path d="M123.27 24.2538V36.3962H48.126V24.2538C48.126 16.5498 50.9593 16.1689 54.4604 16.1689H66.9794C67.707 16.1689 68.3019 16.9949 68.3019 18.0178V18.4458C68.3019 20.8426 69.6159 20.8512 71.2251 20.8512H100.171C101.797 20.8512 103.103 20.8512 103.103 18.4458V18.0178C103.103 16.9949 103.689 16.1689 104.429 16.1689H116.944C120.458 16.1689 123.27 17.1918 123.27 24.2538Z" fill="#6562F1"/>
<path d="M89.6418 17.7525H81.7495C81.6208 17.7514 81.4978 17.6995 81.4073 17.6081C81.3167 17.5167 81.2659 17.3933 81.2659 17.2646C81.2659 17.1359 81.3167 17.0125 81.4073 16.9211C81.4978 16.8297 81.6208 16.7778 81.7495 16.7767H89.6418C89.7712 16.7767 89.8953 16.8281 89.9868 16.9196C90.0783 17.0111 90.1298 17.1352 90.1298 17.2646C90.1298 17.394 90.0783 17.5181 89.9868 17.6096C89.8953 17.7011 89.7712 17.7525 89.6418 17.7525Z" fill="white"/>
<path d="M64.818 19.0536L64.6982 19.1777C64.6732 19.1984 64.6503 19.2213 64.6297 19.2462C64.4766 19.0929 64.2948 18.9712 64.0947 18.8882C63.8946 18.8052 63.68 18.7625 63.4634 18.7625C63.2467 18.7625 63.0322 18.8052 62.8321 18.8882C62.6319 18.9712 62.4501 19.0929 62.2971 19.2462L62.2329 19.1777L62.113 19.0579L62.2671 18.921C62.3755 18.834 62.4932 18.7593 62.6181 18.6984C62.7672 18.6247 62.9255 18.5714 63.0889 18.54L63.3243 18.5101H63.534H63.6924C63.839 18.525 63.9829 18.5595 64.1204 18.6128C64.2223 18.6471 64.32 18.693 64.4114 18.7497C64.51 18.805 64.6032 18.8695 64.6896 18.9423L64.818 19.0579V19.0536Z" fill="white"/>
<path d="M62.678 19.6229L62.4854 19.4346C62.694 19.2211 62.9683 19.0839 63.2643 19.0451C63.4756 19.0141 63.6912 19.0327 63.8941 19.0996C64.0969 19.1665 64.2813 19.2797 64.4328 19.4303L64.2401 19.6229C64.0319 19.4177 63.7514 19.3027 63.459 19.3027C63.1667 19.3027 62.8862 19.4177 62.678 19.6229Z" fill="white"/>
<path d="M64.0519 19.8155L63.8636 20.0038C63.8107 19.9513 63.7479 19.9099 63.6788 19.882C63.6097 19.854 63.5358 19.8402 63.4612 19.8411C63.387 19.8403 63.3134 19.8547 63.2449 19.8834C63.1765 19.9121 63.1146 19.9545 63.0632 20.0081L62.8706 19.8155C62.9478 19.7373 63.0398 19.6752 63.1412 19.6329C63.2426 19.5905 63.3514 19.5687 63.4612 19.5687C63.5711 19.5687 63.6799 19.5905 63.7813 19.6329C63.8827 19.6752 63.9747 19.7373 64.0519 19.8155Z" fill="white"/>
<path d="M63.6368 20.1792C63.6377 20.2141 63.6281 20.2485 63.6093 20.2779C63.5906 20.3073 63.5635 20.3304 63.5315 20.3444C63.4995 20.3583 63.4641 20.3624 63.4298 20.3561C63.3955 20.3499 63.3638 20.3335 63.3388 20.3091C63.3139 20.2848 63.2967 20.2535 63.2896 20.2194C63.2825 20.1852 63.2857 20.1497 63.2988 20.1174C63.312 20.0851 63.3345 20.0574 63.3634 20.0379C63.3923 20.0185 63.4264 20.0081 63.4613 20.008C63.4842 20.0075 63.5069 20.0115 63.5281 20.0198C63.5494 20.0282 63.5688 20.0407 63.5851 20.0567C63.6015 20.0726 63.6145 20.0917 63.6234 20.1127C63.6322 20.1338 63.6368 20.1564 63.6368 20.1792Z" fill="white"/>
<path d="M53.0264 19.4388C53.0255 19.3394 53.0543 19.242 53.109 19.159C53.1637 19.076 53.2419 19.0111 53.3335 18.9727C53.4252 18.9343 53.5262 18.924 53.6238 18.9432C53.7213 18.9624 53.8109 19.0102 53.8812 19.0804C53.9515 19.1507 53.9993 19.2404 54.0185 19.3379C54.0377 19.4354 54.0274 19.5365 53.9889 19.6281C53.9505 19.7198 53.8857 19.798 53.8027 19.8527C53.7197 19.9074 53.6223 19.9361 53.5229 19.9353C53.3912 19.9353 53.2649 19.883 53.1718 19.7899C53.0787 19.6968 53.0264 19.5705 53.0264 19.4388Z" fill="white"/>
<path d="M54.5972 19.4388C54.5972 19.3406 54.6263 19.2446 54.6808 19.163C54.7354 19.0813 54.8129 19.0177 54.9037 18.9801C54.9944 18.9425 55.0942 18.9327 55.1905 18.9519C55.2868 18.971 55.3753 19.0183 55.4447 19.0877C55.5142 19.1572 55.5614 19.2456 55.5806 19.3419C55.5997 19.4383 55.5899 19.5381 55.5523 19.6288C55.5148 19.7195 55.4511 19.7971 55.3695 19.8516C55.2878 19.9062 55.1918 19.9353 55.0936 19.9353C54.962 19.9353 54.8357 19.883 54.7426 19.7899C54.6495 19.6968 54.5972 19.5705 54.5972 19.4388Z" fill="white"/>
<path d="M56.1638 19.4388C56.163 19.3394 56.1917 19.242 56.2464 19.159C56.3011 19.076 56.3793 19.0111 56.471 18.9727C56.5627 18.9343 56.6637 18.924 56.7612 18.9432C56.8588 18.9624 56.9484 19.0102 57.0187 19.0804C57.089 19.1507 57.1367 19.2404 57.1559 19.3379C57.1751 19.4354 57.1648 19.5365 57.1264 19.6281C57.088 19.7198 57.0231 19.798 56.9401 19.8527C56.8571 19.9074 56.7597 19.9361 56.6603 19.9353C56.5286 19.9353 56.4024 19.883 56.3093 19.7899C56.2161 19.6968 56.1638 19.5705 56.1638 19.4388Z" fill="white"/>
<path d="M57.7302 19.4388C57.7294 19.3396 57.758 19.2424 57.8125 19.1595C57.867 19.0765 57.945 19.0117 58.0364 18.9731C58.1278 18.9346 58.2286 18.924 58.326 18.9429C58.4235 18.9617 58.5131 19.0091 58.5836 19.0789C58.654 19.1488 58.7021 19.238 58.7218 19.3353C58.7415 19.4325 58.7318 19.5334 58.694 19.6252C58.6563 19.7169 58.5921 19.7954 58.5097 19.8506C58.4272 19.9058 58.3302 19.9353 58.231 19.9353C58.0989 19.9353 57.9722 19.8831 57.8784 19.7901C57.7846 19.6972 57.7314 19.5709 57.7302 19.4388Z" fill="white"/>
<path d="M59.301 19.4388C59.3002 19.3394 59.329 19.242 59.3837 19.159C59.4383 19.076 59.5165 19.0111 59.6082 18.9727C59.6999 18.9343 59.8009 18.924 59.8984 18.9432C59.996 18.9624 60.0856 19.0102 60.1559 19.0804C60.2262 19.1507 60.2739 19.2404 60.2931 19.3379C60.3123 19.4354 60.302 19.5365 60.2636 19.6281C60.2252 19.7198 60.1603 19.798 60.0773 19.8527C59.9943 19.9074 59.8969 19.9361 59.7975 19.9353C59.6659 19.9353 59.5396 19.883 59.4465 19.7899C59.3533 19.6968 59.301 19.5705 59.301 19.4388Z" fill="white"/>
<path d="M117.633 20.5088H113.58V18.6299H117.633V20.5088ZM113.781 20.3034H117.419V18.8353H113.781V20.3034Z" fill="white"/>
<path d="M116.529 18.9509H113.914V20.1921H116.529V18.9509Z" fill="white"/>
<path d="M117.993 19.0665H117.633V20.0723H117.993V19.0665Z" fill="white"/>
<path d="M55.2479 31.7524L53.0266 29.6723L55.2479 27.5922L55.5903 27.956L53.7628 29.6723L55.5903 31.3843L55.2479 31.7524Z" fill="white"/>
<path d="M116.456 31.9021H114.958V31.38C114.957 31.3587 114.951 31.338 114.94 31.3199C114.929 31.3019 114.913 31.2871 114.894 31.2773C114.836 31.2479 114.78 31.2151 114.727 31.1788C114.708 31.1671 114.685 31.1609 114.663 31.1609C114.64 31.1609 114.618 31.1671 114.599 31.1788L114.149 31.4399L113.4 30.1559L113.854 29.8948C113.872 29.8825 113.886 29.8658 113.896 29.8464C113.906 29.8269 113.91 29.8053 113.909 29.7835C113.909 29.7493 113.909 29.7193 113.909 29.6894C113.909 29.6594 113.909 29.6252 113.909 29.5952C113.911 29.5728 113.906 29.5505 113.897 29.5303C113.887 29.5101 113.872 29.4927 113.854 29.4797L113.4 29.2186L114.149 27.9346L114.599 28.1957C114.617 28.207 114.639 28.213 114.661 28.213C114.682 28.213 114.704 28.207 114.723 28.1957L114.894 28.1015C114.913 28.0909 114.929 28.0755 114.94 28.0567C114.952 28.0379 114.958 28.0164 114.958 27.9945V27.4424H116.456V27.9603C116.456 27.9822 116.462 28.0036 116.474 28.0224C116.485 28.0412 116.501 28.0567 116.52 28.0673C116.578 28.0952 116.634 28.1266 116.687 28.1614C116.707 28.1727 116.729 28.1786 116.751 28.1786C116.774 28.1786 116.796 28.1727 116.816 28.1614L117.265 27.9003L118.014 29.1843L117.56 29.4411C117.541 29.4528 117.525 29.4699 117.515 29.4905C117.505 29.5111 117.501 29.5341 117.505 29.5567V29.745C117.502 29.767 117.506 29.7893 117.515 29.8092C117.525 29.829 117.541 29.8454 117.56 29.8563L118.014 30.1174L117.265 31.4014L116.811 31.1403C116.793 31.129 116.771 31.123 116.749 31.123C116.727 31.123 116.706 31.129 116.687 31.1403C116.634 31.1765 116.578 31.2094 116.52 31.2387C116.501 31.2486 116.486 31.2633 116.474 31.2814C116.463 31.2995 116.457 31.3202 116.456 31.3415V31.9021ZM115.279 31.5811H116.135V31.38C116.134 31.299 116.156 31.2195 116.199 31.1505C116.241 31.0816 116.302 31.0261 116.375 30.9905C116.422 30.9659 116.468 30.9388 116.512 30.9092C116.581 30.8649 116.661 30.8414 116.743 30.8414C116.825 30.8414 116.905 30.8649 116.974 30.9092L117.145 31.0076L117.573 30.2672L117.398 30.1687C117.323 30.1268 117.263 30.0637 117.225 29.9874C117.187 29.9112 117.173 29.8253 117.184 29.7407V29.5824C117.173 29.4974 117.188 29.4112 117.227 29.3349C117.266 29.2586 117.327 29.1957 117.402 29.1544L117.573 29.0559L117.145 28.3155L116.974 28.4139C116.905 28.4582 116.825 28.4817 116.743 28.4817C116.661 28.4817 116.581 28.4582 116.512 28.4139C116.469 28.3832 116.423 28.3574 116.375 28.3369C116.301 28.301 116.24 28.2448 116.197 28.175C116.155 28.1053 116.133 28.0248 116.135 27.9431V27.7463H115.279V27.9431C115.28 28.0253 115.258 28.1061 115.215 28.1759C115.172 28.2457 115.109 28.3016 115.035 28.3369C114.988 28.3593 114.942 28.385 114.898 28.4139C114.83 28.4573 114.75 28.4803 114.669 28.4803C114.588 28.4803 114.509 28.4573 114.44 28.4139L114.265 28.3155L113.837 29.0559L114.008 29.1544C114.083 29.1957 114.144 29.2586 114.183 29.3349C114.222 29.4112 114.237 29.4974 114.226 29.5824V29.7407C114.237 29.8257 114.222 29.912 114.183 29.9883C114.144 30.0646 114.083 30.1274 114.008 30.1687L113.837 30.2672L114.265 31.0076L114.44 30.9092C114.509 30.8649 114.589 30.8414 114.671 30.8414C114.753 30.8414 114.833 30.8649 114.902 30.9092C114.947 30.9388 114.992 30.9659 115.039 30.9905C115.112 31.0261 115.173 31.0816 115.216 31.1505C115.258 31.2195 115.28 31.299 115.279 31.38V31.5811ZM115.707 30.7936C115.484 30.7945 115.266 30.7291 115.08 30.6057C114.894 30.4823 114.749 30.3066 114.664 30.1007C114.578 29.8949 114.555 29.6682 114.599 29.4494C114.642 29.2307 114.749 29.0297 114.907 28.872C115.065 28.7144 115.265 28.6071 115.484 28.5638C115.703 28.5205 115.93 28.5431 116.136 28.6289C116.341 28.7146 116.517 28.8595 116.641 29.0453C116.764 29.2311 116.829 29.4493 116.828 29.6723C116.828 29.9697 116.71 30.2549 116.5 30.4652C116.29 30.6755 116.004 30.7936 115.707 30.7936ZM115.707 28.8676C115.548 28.8668 115.392 28.9132 115.259 29.0011C115.126 29.089 115.022 29.2144 114.961 29.3614C114.899 29.5083 114.883 29.6702 114.913 29.8266C114.944 29.983 115.02 30.1267 115.132 30.2397C115.245 30.3527 115.388 30.4297 115.544 30.4611C115.7 30.4925 115.862 30.4768 116.01 30.4161C116.157 30.3553 116.283 30.2522 116.372 30.1197C116.46 29.9873 116.507 29.8316 116.507 29.6723C116.509 29.5659 116.49 29.4602 116.45 29.3614C116.411 29.2626 116.352 29.1725 116.278 29.0965C116.203 29.0205 116.115 28.96 116.017 28.9185C115.919 28.877 115.813 28.8553 115.707 28.8548V28.8676Z" fill="white"/>
<path d="M118.035 132.469H53.3689V77.7666L85.6957 57.2355L118.035 77.7666V132.469Z" fill="#6562F1"/>
<path opacity="0.2" d="M118.035 132.469H53.3689V77.7666L85.6957 57.2355L118.035 77.7666V132.469Z" fill="black"/>
<path d="M114.389 54.6332H57.0154V128.283H114.389V54.6332Z" fill="white"/>
<path d="M114.389 128.283L57.0369 128.382H56.9342V128.283L56.8743 54.6332V54.4749H57.0369L114.389 54.5177H114.5V54.6332L114.389 128.283ZM114.389 128.283L114.273 54.6332L114.389 54.7445L57.0369 54.7916L57.1953 54.6332L57.1139 128.283L57.0155 128.181L114.389 128.283Z" fill="#DBDBDB"/>
<path d="M112.082 100.074C112.136 102.228 112.177 104.38 112.206 106.528C112.206 108.668 112.27 110.834 112.27 112.987L112.296 119.441L112.27 125.899V126.088H112.082C109.831 126.088 107.579 126.054 105.328 126.028C103.077 126.002 100.825 125.955 98.5742 125.899C100.825 125.844 103.077 125.792 105.328 125.771C107.579 125.75 109.831 125.711 112.082 125.711L111.894 125.899L111.868 119.441L111.894 112.987C111.894 110.847 111.936 108.681 111.958 106.528C111.979 104.375 112.026 102.227 112.082 100.074Z" fill="#6562F1"/>
<path d="M59.318 82.8427C59.2638 80.6913 59.2224 78.5385 59.1939 76.3842C59.1725 74.2442 59.1297 72.0828 59.1297 69.9299L59.104 63.4714L59.1297 57.0172V56.8246H59.318C61.5693 56.8246 63.8206 56.8588 66.0718 56.8845C68.3231 56.9102 70.5744 56.9573 72.8257 57.0129C70.5744 57.0685 68.3231 57.1199 66.0718 57.1413C63.8206 57.1627 61.5693 57.2012 59.318 57.2012L59.5063 57.0129L59.532 63.4671L59.5063 69.9428C59.5063 72.0828 59.4635 74.2485 59.4421 76.397C59.4207 78.5456 59.3736 80.6899 59.318 82.8427Z" fill="#6562F1"/>
<path d="M85.7344 57.0172L92.3213 56.9102L98.9082 56.8503C101.104 56.8246 103.3 56.8503 105.495 56.8203H112.082H112.296V57.0343L112.275 63.4886L112.245 69.9428C112.21 74.2485 112.172 78.5499 112.082 82.8556C111.992 78.5499 111.954 74.2485 111.919 69.9428L111.898 63.4714L111.877 57.0172L112.091 57.2312L105.478 57.2098C103.282 57.2098 101.087 57.2098 98.8911 57.1798L92.3213 57.1028L85.7344 57.0172Z" fill="#6562F1"/>
<path d="M85.6658 125.899C81.2745 125.981 76.8832 126.024 72.492 126.054C68.1007 126.084 63.7094 126.088 59.3181 126.109H59.1084V125.899V118.371L59.1341 110.847L59.194 103.318L59.3053 95.7939L59.4166 103.318L59.4765 110.847L59.5022 118.371V125.899L59.2924 125.69C63.6837 125.711 68.075 125.69 72.4663 125.741C76.8576 125.792 81.2745 125.818 85.6658 125.899Z" fill="#6562F1"/>
<path d="M71.302 64.0835V63.8951H74.3494V64.0835H73.3778V71.3252H74.3494V71.5093H71.302V71.3252H72.158V64.0835H71.302Z" fill="#6562F1"/>
<path d="M77.9018 71.5092H75.3338V71.3338H76.1084V66.2962H75.2524V66.1207H75.5178C76.0722 66.1286 76.6259 66.0784 77.1699 65.9709V67.1394H77.2298C77.352 66.7757 77.5848 66.4594 77.8956 66.2346C78.2063 66.0097 78.5796 65.8876 78.9632 65.8853C80.4184 65.8853 80.7351 66.8355 80.7351 68.2907V71.3338H81.5098V71.5092H78.9204V71.3338H79.6951V68.4533C79.6951 67.5032 79.6951 66.2149 78.7449 66.2149C77.4096 66.2149 77.1399 67.8798 77.1399 69.2109V71.3295H77.9146L77.9018 71.5092Z" fill="#6562F1"/>
<path d="M86.9027 67.76C86.9027 66.9425 86.7015 66.0994 85.9782 66.0994C85.9054 66.0994 85.8583 66.1336 85.8583 66.2021C85.8583 66.2706 85.8969 66.2962 85.9653 66.3091C86.0611 66.3317 86.1462 66.3866 86.2062 66.4645C86.2662 66.5425 86.2975 66.6387 86.2949 66.7371C86.2929 66.8149 86.2749 66.8915 86.2421 66.9621C86.2093 67.0327 86.1624 67.0959 86.1042 67.1476C86.0461 67.1993 85.9779 67.2386 85.9039 67.263C85.83 67.2873 85.7518 67.2963 85.6743 67.2892C85.5888 67.2916 85.5037 67.2765 85.4242 67.2448C85.3447 67.2132 85.2726 67.1657 85.2121 67.1052C85.1516 67.0447 85.1041 66.9725 85.0724 66.893C85.0408 66.8135 85.0257 66.7284 85.028 66.6429C85.0306 66.535 85.0552 66.4286 85.1001 66.3305C85.1451 66.2323 85.2096 66.1443 85.2897 66.0718C85.3698 65.9993 85.4638 65.9439 85.5659 65.9089C85.6681 65.8739 85.7763 65.8601 85.884 65.8682C86.8556 65.8682 87.1252 66.7242 87.1252 67.6958C87.1252 69.6304 86.0723 71.7276 84.8397 71.7276C83.5043 71.7276 82.6997 69.793 82.6997 66.934V66.2791H81.8694V66.1036H82.1133C82.6678 66.1117 83.2215 66.0615 83.7654 65.9538V66.6686C83.7654 68.6117 84.1292 71.2011 85.2549 71.2011C86.0253 71.2268 86.9027 69.3778 86.9027 67.76Z" fill="#6562F1"/>
<path d="M89.9628 71.3338H90.7375V71.5093H88.1481V71.3338H88.9185V66.2962H88.0881V66.1207H88.3321C88.8794 66.1289 89.4261 66.0787 89.9628 65.9709V71.3338ZM89.4021 63.6597C89.4931 63.6592 89.5833 63.6767 89.6675 63.7114C89.7516 63.7461 89.828 63.7972 89.8922 63.8618C89.9563 63.9264 90.007 64.0031 90.0411 64.0874C90.0753 64.1718 90.0923 64.2621 90.0912 64.3531C90.0918 64.4434 90.0743 64.5328 90.0397 64.6162C90.0052 64.6996 89.9543 64.7752 89.8901 64.8387C89.8259 64.9021 89.7496 64.952 89.6658 64.9855C89.582 65.019 89.4923 65.0353 89.4021 65.0336C89.3123 65.0354 89.223 65.019 89.1396 64.9854C89.0563 64.9518 88.9805 64.9017 88.917 64.8382C88.8535 64.7746 88.8034 64.6989 88.7698 64.6156C88.7362 64.5322 88.7198 64.4429 88.7216 64.3531C88.7193 64.2625 88.7352 64.1724 88.7684 64.0881C88.8017 64.0037 88.8515 63.927 88.915 63.8623C88.9785 63.7976 89.0543 63.7463 89.138 63.7116C89.2216 63.6768 89.3115 63.6591 89.4021 63.6597Z" fill="#6562F1"/>
<path d="M93.4082 70.2809C93.4082 71.077 93.4082 71.428 93.7249 71.428C94.1529 71.428 94.5809 70.7603 94.7478 70.3494L94.9319 70.4221C94.6751 71.077 94.17 71.7447 93.4681 71.7447C92.4623 71.7447 92.3682 71.0299 92.3682 70.0327V66.3048H91.5378V66.1293H91.6192C92.565 66.1293 93.0829 65.5215 93.2584 64.5842H93.4082V66.1293H94.8292V66.3048H93.4082V70.2809Z" fill="#6562F1"/>
<path d="M100.278 67.3748C100.278 68.8128 98.7327 68.9327 97.2818 68.9327H96.7297V69.2708C96.7297 70.4435 97.1577 71.4108 98.3475 71.4108C99.3062 71.4108 99.8455 70.6746 100.059 69.8186L100.269 69.8443C100.021 70.9443 99.272 71.7404 98.0779 71.7404C96.3915 71.7404 95.5955 70.4992 95.5955 68.8128C95.5955 67.1265 96.4985 65.881 98.2063 65.881C99.2805 65.8853 100.278 66.3219 100.278 67.3748ZM97.1491 68.723C98.309 68.723 99.1393 68.5346 99.1393 67.3748C99.1393 66.6343 98.8483 66.0908 98.1078 66.0908C97.0335 66.0908 96.7382 67.332 96.7382 68.4105V68.7401L97.1491 68.723Z" fill="#6562F1"/>
<path d="M106.312 77.2958H65.2715V77.6768H106.312V77.2958Z" fill="#EBEBEB"/>
<path d="M106.312 79.7611H65.2715V80.142H106.312V79.7611Z" fill="#EBEBEB"/>
<path d="M106.312 82.2307H65.2715V82.6116H106.312V82.2307Z" fill="#EBEBEB"/>
<path d="M106.312 84.6959H65.2715V85.0768H106.312V84.6959Z" fill="#EBEBEB"/>
<path d="M106.312 87.1612H65.2715V87.5421H106.312V87.1612Z" fill="#EBEBEB"/>
<path d="M100.184 89.6308H71.3921V90.0117H100.184V89.6308Z" fill="#EBEBEB"/>
<path d="M106.312 94.5656H65.2715V94.9465H106.312V94.5656Z" fill="#EBEBEB"/>
<path d="M106.312 97.0309H65.2715V97.4118H106.312V97.0309Z" fill="#EBEBEB"/>
<path d="M106.312 99.5004H65.2715V99.8814H106.312V99.5004Z" fill="#EBEBEB"/>
<path d="M106.312 101.966H65.2715V102.347H106.312V101.966Z" fill="#EBEBEB"/>
<path d="M106.312 104.435H65.2715V104.816H106.312V104.435Z" fill="#EBEBEB"/>
<path d="M118.035 91.4583V132.469H53.3689V91.4583C56.1423 93.0291 58.873 94.6812 61.6207 96.2947C64.3685 97.9083 67.0991 99.5775 69.8169 101.247C72.8472 103.093 75.8746 104.963 78.8991 106.858L78.9933 106.802C78.9676 106.802 78.9462 106.849 78.9162 106.871C81.1818 108.28 83.4445 109.694 85.7043 111.112C87.9599 109.695 90.2197 108.266 92.4838 106.871C92.4539 106.871 92.4367 106.819 92.4068 106.802C92.4378 106.821 92.4708 106.837 92.5052 106.849C95.5212 104.966 98.5471 103.096 101.583 101.238C104.302 99.5775 107.032 97.9297 109.771 96.2947C112.527 94.6812 115.258 93.0291 118.035 91.4583Z" fill="#6562F1"/>
<g opacity="0.2">
<path d="M118.035 91.4583C115.42 93.2944 112.762 95.0492 110.13 96.8554C107.498 98.6616 104.819 100.391 102.148 102.141C99.3575 103.964 96.5627 105.773 93.7635 107.568L93.511 107.744C91.0372 109.327 88.5548 110.909 86.0638 112.49L85.6957 112.717L85.3362 112.49C82.8481 110.909 80.3686 109.324 77.8976 107.735C77.812 107.684 77.7221 107.628 77.6365 107.568C74.8288 105.771 72.0311 103.957 69.2434 102.128C66.5855 100.391 63.9234 98.623 61.2698 96.8554C58.6162 95.0878 55.9797 93.2944 53.3689 91.4583C56.1423 93.0291 58.873 94.6812 61.6207 96.2947C64.3685 97.9083 67.0991 99.5775 69.8169 101.247C72.8472 103.093 75.8746 104.963 78.8991 106.858C81.1646 108.267 83.4273 109.681 85.6872 111.099C87.9427 109.683 90.2026 108.253 92.4667 106.858C92.4667 106.858 92.4667 106.858 92.4881 106.858C95.5041 104.975 98.53 103.104 101.566 101.247C104.285 99.586 107.014 97.9382 109.754 96.3033C112.527 94.6811 115.258 93.0291 118.035 91.4583Z" fill="black"/>
<path d="M78.9932 106.802C78.9675 106.802 78.9461 106.849 78.9162 106.871C78.5781 107.162 78.2357 107.453 77.8975 107.727C76.2754 109.096 74.6148 110.406 72.9242 111.677C70.8655 113.252 68.7597 114.754 66.6411 116.252C64.5225 117.75 62.3611 119.176 60.1955 120.575C58.0298 121.975 55.8042 123.34 53.5229 124.594C55.4832 122.882 57.5248 121.273 59.5834 119.711C61.6421 118.148 63.7564 116.629 65.8665 115.135C67.9765 113.642 70.1465 112.203 72.325 110.804C74.0627 109.687 75.8303 108.591 77.6365 107.56C78.0645 107.316 78.4925 107.085 78.9205 106.849L78.9932 106.802Z" fill="black"/>
<path d="M117.89 124.603C115.609 123.349 113.396 121.979 111.222 120.584C109.047 119.188 106.899 117.725 104.763 116.261C102.627 114.797 100.539 113.265 98.4802 111.686C96.7981 110.402 95.1375 109.118 93.5239 107.744L92.4967 106.888C92.4668 106.888 92.4496 106.836 92.4197 106.819C92.4507 106.838 92.4837 106.854 92.5181 106.866C92.9461 107.11 93.3741 107.341 93.7764 107.585C95.5869 108.617 97.3417 109.725 99.0922 110.83C101.275 112.229 103.411 113.684 105.538 115.161C107.665 116.638 109.762 118.157 111.821 119.736C113.88 121.316 115.917 122.882 117.89 124.603Z" fill="black"/>
</g>
<path d="M114.355 52.1165C114.204 51.8122 114.131 51.4757 114.141 51.1364C114.132 50.7972 114.205 50.4608 114.355 50.1562C114.503 50.4614 114.576 50.7973 114.569 51.1364C114.574 51.4753 114.501 51.8108 114.355 52.1165Z" fill="#263238"/>
<path d="M112.583 52.8783C112.258 52.7683 111.964 52.5819 111.727 52.3348C111.481 52.0966 111.296 51.8031 111.187 51.4788C111.504 51.5972 111.791 51.7823 112.03 52.0216C112.268 52.2608 112.452 52.5487 112.57 52.8655L112.583 52.8783Z" fill="#263238"/>
<path d="M111.872 54.6674C111.565 54.8085 111.23 54.8816 110.892 54.8816C110.554 54.8816 110.219 54.8085 109.912 54.6674C110.216 54.5173 110.553 54.4439 110.892 54.4534C111.231 54.4461 111.567 54.5194 111.872 54.6674Z" fill="#263238"/>
<path d="M112.634 56.435C112.515 56.7522 112.329 57.0402 112.089 57.2795C111.849 57.5187 111.561 57.7036 111.243 57.8217C111.362 57.5045 111.548 57.2165 111.788 56.9773C112.028 56.738 112.316 56.5531 112.634 56.435Z" fill="#263238"/>
<path d="M114.423 57.1455C114.57 57.4523 114.642 57.7898 114.633 58.1299C114.642 58.4691 114.568 58.8054 114.419 59.11C114.273 58.8041 114.2 58.4687 114.205 58.1299C114.199 57.7891 114.274 57.4518 114.423 57.1455Z" fill="#263238"/>
<path d="M116.178 56.3879C116.494 56.5063 116.781 56.6915 117.02 56.9307C117.259 57.17 117.443 57.4578 117.56 57.7747C117.244 57.6563 116.956 57.4711 116.718 57.2319C116.479 56.9926 116.295 56.7048 116.178 56.3879Z" fill="#263238"/>
<path d="M116.901 54.5989C117.209 54.4578 117.543 54.3847 117.881 54.3847C118.22 54.3847 118.554 54.4578 118.861 54.5989C118.557 54.7489 118.221 54.8224 117.881 54.8129C117.542 54.8181 117.207 54.7449 116.901 54.5989Z" fill="#263238"/>
<path d="M116.139 52.8227C116.25 52.4985 116.437 52.2052 116.683 51.9667C116.92 51.7196 117.214 51.5332 117.539 51.4232C117.42 51.7404 117.234 52.0284 116.994 52.2676C116.754 52.5069 116.465 52.6918 116.148 52.8099L116.139 52.8227Z" fill="#263238"/>
<path d="M62.0486 94.2231C61.8999 93.9167 61.8266 93.5792 61.8346 93.2387C61.8298 92.8999 61.903 92.5646 62.0486 92.2586C62.1987 92.5645 62.2721 92.9024 62.2626 93.243C62.2674 93.5818 62.1942 93.9172 62.0486 94.2231Z" fill="#263238"/>
<path d="M60.281 94.9807C59.9635 94.8633 59.6751 94.6786 59.4358 94.4393C59.1964 94.1999 59.0117 93.9115 58.8943 93.594C59.2108 93.7131 59.4983 93.8984 59.7374 94.1376C59.9766 94.3767 60.1619 94.6642 60.281 94.9807Z" fill="#263238"/>
<path d="M59.5662 96.7697C59.2611 96.9177 58.9251 96.9911 58.5861 96.9837C58.2472 96.989 57.9118 96.9157 57.606 96.7697C57.9105 96.6202 58.2469 96.5467 58.5861 96.5557C58.925 96.55 59.2605 96.6233 59.5662 96.7697Z" fill="#263238"/>
<path d="M60.3281 98.5374C60.209 98.8539 60.0237 99.1414 59.7846 99.3805C59.5454 99.6196 59.2579 99.805 58.9414 99.9241C59.0605 99.6075 59.2458 99.3201 59.485 99.0809C59.7241 98.8418 60.0116 98.6565 60.3281 98.5374Z" fill="#263238"/>
<path d="M62.117 99.2521C62.2634 99.5578 62.3367 99.8934 62.331 100.232C62.337 100.572 62.2622 100.908 62.1127 101.212C61.9662 100.907 61.8943 100.571 61.903 100.232C61.8931 99.893 61.9666 99.5564 62.117 99.2521Z" fill="#263238"/>
<path d="M63.8848 98.4903C64.2013 98.6094 64.4888 98.7947 64.7279 99.0339C64.9671 99.273 65.1524 99.5605 65.2715 99.877C64.9467 99.767 64.6531 99.5806 64.4155 99.3335C64.1756 99.0974 63.9939 98.8087 63.8848 98.4903Z" fill="#263238"/>
<path d="M64.5952 96.7013C64.9025 96.5552 65.2394 96.482 65.5796 96.4873C65.919 96.4813 66.255 96.5561 66.5597 96.7056C66.2529 96.8527 65.9155 96.9246 65.5753 96.9153C65.2361 96.9243 64.8998 96.8508 64.5952 96.7013Z" fill="#263238"/>
<path d="M63.8376 94.9336C63.955 94.6161 64.1397 94.3277 64.3791 94.0883C64.6185 93.849 64.9068 93.6643 65.2244 93.5469C65.1144 93.8716 64.9279 94.1652 64.6808 94.4029C64.4447 94.6428 64.1561 94.8245 63.8376 94.9336Z" fill="#263238"/>
<path d="M106.762 126.139C106.693 126.074 106.638 125.995 106.601 125.907C106.564 125.819 106.546 125.725 106.548 125.63C106.546 125.535 106.564 125.442 106.601 125.355C106.638 125.268 106.693 125.189 106.762 125.125C106.829 125.191 106.883 125.269 106.919 125.356C106.956 125.443 106.975 125.536 106.976 125.63C106.975 125.725 106.956 125.818 106.92 125.906C106.883 125.993 106.829 126.073 106.762 126.139Z" fill="#263238"/>
<path d="M105.837 126.529C105.743 126.531 105.649 126.513 105.562 126.478C105.474 126.443 105.395 126.39 105.328 126.323C105.262 126.256 105.209 126.177 105.174 126.089C105.139 126.002 105.121 125.908 105.123 125.814C105.217 125.812 105.311 125.829 105.398 125.864C105.486 125.899 105.566 125.952 105.632 126.019C105.699 126.086 105.752 126.165 105.787 126.253C105.822 126.34 105.839 126.434 105.837 126.529Z" fill="#263238"/>
<path d="M105.478 127.453C105.412 127.521 105.334 127.575 105.247 127.612C105.16 127.649 105.067 127.668 104.973 127.668C104.879 127.668 104.785 127.649 104.698 127.612C104.612 127.575 104.533 127.521 104.468 127.453C104.532 127.384 104.611 127.329 104.698 127.293C104.785 127.256 104.878 127.237 104.973 127.239C105.067 127.239 105.16 127.258 105.247 127.295C105.334 127.331 105.412 127.385 105.478 127.453Z" fill="#263238"/>
<path d="M108.067 127.419C108.132 127.351 108.211 127.297 108.298 127.26C108.385 127.223 108.478 127.205 108.572 127.205C108.614 127.164 108.668 127.136 108.726 127.125C108.784 127.113 108.844 127.12 108.898 127.143C108.952 127.165 108.999 127.204 109.031 127.253C109.064 127.302 109.081 127.36 109.081 127.419C109.081 127.478 109.064 127.535 109.031 127.585C108.999 127.634 108.952 127.672 108.898 127.695C108.844 127.718 108.784 127.724 108.726 127.713C108.668 127.702 108.614 127.674 108.572 127.633C108.382 127.631 108.201 127.554 108.067 127.419Z" fill="#263238"/>
<path d="M107.673 126.507C107.508 126.506 107.348 126.448 107.221 126.343C107.094 126.238 107.007 126.091 106.975 125.929C106.944 125.767 106.969 125.599 107.047 125.454C107.126 125.308 107.252 125.194 107.405 125.131C107.558 125.069 107.727 125.061 107.885 125.109C108.043 125.157 108.18 125.258 108.271 125.396C108.363 125.533 108.404 125.698 108.388 125.862C108.372 126.027 108.299 126.181 108.183 126.297C108.117 126.365 108.037 126.419 107.95 126.455C107.862 126.491 107.768 126.509 107.673 126.507Z" fill="#263238"/>
<path d="M18.83 89.5794L18.6074 89.3483L19.2323 88.7576L19.4506 88.993L18.83 89.5794Z" fill="#263238"/>
<path d="M21.6419 123.503C21.0598 123.503 20.4777 123.456 19.9299 123.396L19.9641 123.079C20.5205 123.135 21.0898 123.169 21.6761 123.182L21.6419 123.503ZM23.7819 123.468V123.147C24.3383 123.113 24.9118 123.066 25.4939 122.998L25.5324 123.319C24.9503 123.383 24.3725 123.443 23.8076 123.468H23.7819ZM17.7899 123.07C17.2164 122.951 16.6514 122.801 16.1121 122.642L16.2106 122.339C16.737 122.501 17.2891 122.647 17.8541 122.767L17.7899 123.07ZM27.6638 122.993L27.6082 122.677C28.156 122.574 28.721 122.458 29.2774 122.326L29.3544 122.638C28.7852 122.771 28.216 122.891 27.6596 123.015L27.6638 122.993ZM31.4345 122.086L31.3446 121.778C31.8882 121.619 32.436 121.444 32.9753 121.26L33.078 121.564C32.5302 121.731 31.9781 121.923 31.4302 122.086H31.4345ZM14.092 121.851C13.5692 121.603 13.0618 121.325 12.5726 121.016L12.7438 120.746C13.2216 121.048 13.7176 121.319 14.2289 121.56L14.092 121.851ZM35.1025 120.828L34.9869 120.528C35.5091 120.323 36.0441 120.1 36.5705 119.878L36.6946 120.173C36.1639 120.4 35.6246 120.622 35.0982 120.828H35.1025ZM10.8434 119.702C10.4148 119.311 10.0143 118.891 9.64504 118.444L9.89328 118.238C10.2525 118.675 10.643 119.086 11.0617 119.467L10.8434 119.702ZM38.6634 119.274L38.5265 118.987C39.0315 118.743 39.5451 118.487 40.0587 118.221L40.2042 118.508C39.6778 118.778 39.1599 119.034 38.6506 119.278L38.6634 119.274ZM42.0874 117.485L41.9291 117.207C42.4284 116.921 42.9206 116.636 43.4057 116.351L43.5726 116.625C43.0847 116.92 42.5882 117.207 42.0874 117.489V117.485ZM8.4338 116.629C8.15888 116.118 7.92281 115.587 7.7276 115.041L8.03148 114.934C8.22291 115.465 8.45176 115.981 8.71628 116.479L8.4338 116.629ZM45.3959 115.482L45.2204 115.212C45.7026 114.901 46.1777 114.585 46.6456 114.262L46.8254 114.528C46.3546 114.857 45.8795 115.174 45.3959 115.486V115.482ZM48.5759 113.282L48.3876 113.025C48.8498 112.683 49.3035 112.34 49.7529 111.989L49.9498 112.242C49.4961 112.597 49.0339 112.944 48.5759 113.286V113.282ZM7.17976 112.94C7.08292 112.373 7.02287 111.802 7 111.228H7.31672C7.34137 111.793 7.40141 112.356 7.49648 112.914L7.17976 112.94ZM51.6276 110.902L51.4221 110.654C51.8501 110.29 52.3038 109.922 52.7361 109.55L52.9458 109.794C52.5092 110.175 52.0727 110.543 51.6276 110.907V110.902ZM7.37664 109.079L7.05564 109.049C7.11128 108.488 7.1926 107.915 7.30816 107.337L7.6206 107.397C7.51788 107.971 7.428 108.536 7.37664 109.083V109.079ZM54.5594 108.373L54.3454 108.137C54.7734 107.752 55.2014 107.367 55.6037 106.978L55.822 107.213C55.4025 107.607 54.9831 107.996 54.5594 108.377V108.373ZM57.3756 105.736L57.153 105.505L58.3771 104.307L58.604 104.534L57.3756 105.736ZM8.1556 105.33L7.84744 105.236C8.01436 104.701 8.20268 104.153 8.41668 103.605L8.712 103.721C8.48944 104.264 8.30112 104.808 8.13848 105.334L8.1556 105.33ZM60.1362 103.01L59.9051 102.787C60.3074 102.381 60.7054 101.97 61.1035 101.559L61.3346 101.782L60.1362 103.01ZM9.56372 101.765L9.27696 101.623C9.52092 101.118 9.78628 100.6 10.0688 100.091L10.3512 100.245C10.0516 100.759 9.79056 101.268 9.5466 101.769L9.56372 101.765ZM62.824 100.237L62.5929 100.014L63.7785 98.7728L64.0096 98.9954L62.824 100.237ZM11.464 98.4091L11.1944 98.2378C11.494 97.7628 11.8193 97.2834 12.1531 96.8041L12.4142 96.9924C12.0461 97.4675 11.7251 97.9425 11.4255 98.4133L11.464 98.4091ZM65.5119 97.4375L65.2765 97.2192L66.462 95.9737L66.6932 96.1963L65.5119 97.4375ZM13.6896 95.2718L13.4371 95.0749C13.7795 94.6469 14.1433 94.1847 14.52 93.7353L14.7639 93.9407C14.3659 94.3901 13.9892 94.8395 13.6511 95.2761L13.6896 95.2718ZM68.1783 94.6469L67.9472 94.4244C68.341 94.0135 68.739 93.6026 69.1413 93.1917L69.3724 93.4143C68.9387 93.828 68.5279 94.2403 68.1398 94.6512L68.1783 94.6469ZM16.1763 92.3315L15.9409 92.1175C16.3218 91.6895 16.7156 91.2829 17.1222 90.8634L17.349 91.086C16.9082 91.5054 16.5059 91.9249 16.1378 92.3357L16.1763 92.3315ZM70.8704 91.9035L70.6436 91.6809C71.0459 91.2743 71.4482 90.8677 71.8591 90.4611L72.0817 90.6922L70.8704 91.9035ZM73.6139 89.1899L73.3914 88.9588C73.798 88.5608 74.2131 88.1627 74.6283 87.769L74.8508 88.0001C74.3929 88.381 73.982 88.7748 73.5754 89.1728L73.6139 89.1899ZM76.413 86.5363L76.199 86.3009C76.627 85.9157 77.055 85.5305 77.483 85.1411L77.7013 85.3807L76.413 86.5363ZM79.2892 83.9683L79.0752 83.7244C79.5032 83.352 79.9312 82.9797 80.3592 82.6073L80.5689 82.8513C80.111 83.2108 79.6787 83.5746 79.2507 83.9469L79.2892 83.9683ZM82.2381 81.4817L82.0369 81.2334C82.465 80.8739 82.9229 80.5144 83.3766 80.1591L83.5735 80.4074L82.2381 81.4817ZM85.2684 79.0977L85.0715 78.8409C85.5252 78.4985 85.9831 78.1518 86.4496 77.8094L86.6379 78.0705C86.1372 78.3915 85.6792 78.7339 85.2298 79.0763L85.2684 79.0977ZM88.3756 76.8165L88.1916 76.5511C88.6538 76.2258 89.1246 75.8963 89.5997 75.571L89.7795 75.8321C89.2659 76.1402 88.7994 76.4655 88.3371 76.7908L88.3756 76.8165ZM91.56 74.6379L91.3845 74.3726C91.8553 74.0601 92.3389 73.7477 92.8268 73.4353L92.998 73.7049C92.4716 73.9959 91.9922 74.3041 91.5214 74.6165L91.56 74.6379ZM94.817 72.5707L94.6458 72.2968C95.1295 72.0015 95.6217 71.7061 96.1182 71.4108L96.2808 71.689C95.7501 71.9587 95.2579 72.254 94.7785 72.5493L94.817 72.5707ZM98.134 70.6105L97.9757 70.3323C98.4722 70.0498 98.9686 69.7716 99.478 69.4763L99.632 69.7545C99.1099 70.0284 98.5877 70.3109 98.0955 70.5891L98.134 70.6105ZM101.52 68.7572L101.365 68.4705C101.87 68.2051 102.376 67.9397 102.893 67.6787L103.039 67.9654C102.487 68.2051 101.977 68.4705 101.481 68.7358L101.52 68.7572ZM104.944 67.0024L104.802 66.7157C105.312 66.4631 105.825 66.2149 106.347 65.9667L106.489 66.2534C105.958 66.4803 105.423 66.7328 104.914 66.981L104.944 67.0024ZM108.427 65.3461L108.295 65.055L109.861 64.3488L109.994 64.6399L108.427 65.3461ZM111.958 63.7839L111.83 63.4885C112.356 63.266 112.883 63.0605 113.418 62.8251L113.538 63.1205L111.958 63.7839Z" fill="#263238"/>
<path d="M115.601 62.2387L115.481 61.9391L116.277 61.6267L116.397 61.922L115.601 62.2387Z" fill="#263238"/>
<path d="M114.582 56.8887L111.753 64.6569L117.694 60.0217L140.395 51.787L114.582 56.8887Z" fill="#6562F1"/>
<path opacity="0.1" d="M114.582 56.8887L111.753 64.6569L117.694 60.0217L140.395 51.787L114.582 56.8887Z" fill="white"/>
<path d="M118.451 61.8322L111.753 64.657L117.694 60.0217L118.451 61.8322Z" fill="#263238"/>
<path d="M117.694 60.0217L140.395 51.787L121.772 69.9599L117.694 60.0217Z" fill="#6562F1"/>
<path d="M114.582 56.8888L105.149 50.7983L140.395 51.787L114.582 56.8888Z" fill="#6562F1"/>
</g>
</svg>
