<svg width="129" height="138" viewBox="0 0 129 138" fill="none" xmlns="http://www.w3.org/2000/svg">
<path d="M113.444 61.4563L109.844 67.705C108.086 70.7574 111.61 76.0833 117.715 79.5997C123.821 83.1166 130.195 83.4926 131.954 80.4401L135.553 74.1914L113.444 61.4563Z" fill="#6562F1"/>
<path d="M89.4722 9.94104L83.6618 20.0276C80.4531 25.5988 86.8839 35.3176 98.0255 41.7351C109.167 48.1531 120.8 48.8396 124.009 43.2687L129.82 33.1821L89.4722 9.94104Z" fill="#E2AC40"/>
<path d="M87.8887 33.6804C88.4127 34.2667 88.9729 34.8487 89.5693 35.4265L96.6643 23.1092L94.6466 21.9475L87.8887 33.6804ZM97.0242 41.1414C97.3539 41.3422 97.6877 41.5401 98.0256 41.7351C98.364 41.9301 98.7026 42.1195 99.0416 42.3035L105.854 30.4763L103.837 29.3146L97.0242 41.1414ZM110.079 46.4627L116.777 34.8357L114.759 33.674L107.725 45.885C108.523 46.11 109.308 46.3026 110.08 46.4627H110.079Z" fill="#F2C34E"/>
<path d="M65.011 20.6406L59.6264 10.3206L18.3452 31.8589L23.7299 42.1795C26.7038 47.879 38.3557 47.6782 49.7554 41.7305C61.1551 35.7827 67.9849 26.3404 65.011 20.6406Z" fill="#6562F1"/>
<path d="M53.6658 21.5438L51.6016 22.6212L58.467 35.7794C59.0858 35.2277 59.67 34.6695 60.2195 34.1049L53.6658 21.5438ZM44.2773 28.715L42.2134 29.7921L48.7162 42.2557C49.0627 42.0857 49.409 41.9107 49.7551 41.7304C50.1012 41.5498 50.443 41.3659 50.7804 41.1786L44.2773 28.715ZM39.8906 45.4717L32.6609 31.6153L30.5967 32.6923L37.5147 45.951C38.2907 45.8241 39.0827 45.6644 39.8906 45.4717Z" fill="#8380F3"/>
<path d="M115.456 11.4747C104.315 5.0569 92.681 4.3701 89.4722 9.94102C86.2632 15.5119 92.6941 25.2304 103.836 31.6485C114.977 38.0665 126.611 38.7527 129.82 33.1821C133.029 27.6115 126.598 17.8921 115.456 11.4747H115.456Z" fill="#F2C34E"/>
<path d="M44.3704 31.4099C55.77 25.4623 62.6004 16.0201 59.6266 10.3203C56.6527 4.62056 45.0008 4.82149 33.6012 10.7691C22.2016 16.7168 15.3712 26.1589 18.345 31.8587C21.3189 37.5585 32.9708 37.3576 44.3704 31.4099Z" fill="#8380F3"/>
<path d="M23.279 9.44202L21.9066 7.56176C23.3478 6.5118 24.833 5.52369 26.3582 4.6001L27.5648 6.59123C26.0963 7.48017 24.6664 8.43111 23.279 9.44202ZM7.69483 32.1537C5.61843 25.9749 9.89986 17.4624 18.8678 9.9382L20.3642 11.7215C12.2711 18.5121 8.16395 26.2412 9.9016 31.4122L7.69483 32.1537ZM98.7673 52.1992C95.8787 51.2305 93.0954 49.9722 90.46 48.4436C86.0918 45.9275 82.2941 42.8416 79.4788 39.5199L81.2548 38.0148C83.8987 41.1339 87.4835 44.0426 91.622 46.4263C94.1212 47.8763 96.7606 49.07 99.4998 49.9895L98.7673 52.1992ZM77.1937 36.4203C76.3336 35.0821 75.6564 33.6349 75.1802 32.1171L77.4102 31.4489C77.8268 32.7664 78.4173 34.0223 79.1662 35.1835L77.1937 36.4203ZM75.1819 53.1543C72.4245 51.1912 69.2352 49.9203 65.8833 49.4489C62.5314 48.9775 59.1153 49.3194 55.9234 50.4458L55.1598 48.2466C58.7007 46.999 62.4897 46.6207 66.2074 47.1435C69.9252 47.6663 73.4628 49.075 76.5224 51.2508L75.1819 53.1543Z" fill="#BEBEBE"/>
<path d="M80.4647 78.6594C79.6013 65.8306 70.5812 55.9908 60.3183 56.6813L48.7039 57.463L51.8308 103.921L63.4453 103.139C73.7082 102.448 81.3282 91.4883 80.4647 78.6594Z" fill="#DFDFDF"/>
<path d="M80.4647 78.6594C80.4385 78.2699 80.4046 77.8832 80.3629 77.4994L67.2311 78.3833L67.3873 80.7061L80.5194 79.8223C80.5088 79.4366 80.4905 79.049 80.4647 78.6594ZM76.5395 66.0896L63.2471 66.9845L63.4033 69.3074L77.7719 68.3403C77.3996 67.5696 76.9882 66.8184 76.5395 66.0896ZM79.1793 89.246L64.5395 90.2314L64.6957 92.5543L78.2594 91.6413C78.6064 90.859 78.9133 90.0595 79.179 89.246H79.1793Z" fill="#EDEDED"/>
<path d="M51.8313 103.921C62.0944 103.23 69.7142 92.2699 68.8506 79.441C67.987 66.6122 58.9671 56.7724 48.704 57.4632C38.441 58.1541 30.8211 69.1139 31.6847 81.9428C32.5483 94.7716 41.5682 104.611 51.8313 103.921Z" fill="#EDEDED"/>
<path d="M92.1054 57.6243L80.5311 56.3822L75.5635 102.679L87.1375 103.921C93.5299 104.607 99.8237 94.7989 101.196 82.0146C102.567 69.2302 98.4975 58.3102 92.1051 57.6243H92.1054Z" fill="#E2AC40"/>
<path d="M100.652 69.0781L87.2011 67.6346L86.9529 69.9497L101.074 71.465C100.958 70.6443 100.818 69.8487 100.652 69.0781ZM88.6725 79.4999L88.4243 81.815L101.057 83.1705C101.107 82.7879 101.153 82.4026 101.196 82.0146C101.237 81.6264 101.274 81.24 101.305 80.8555L88.6725 79.4999ZM98.8389 92.2982L86.1887 90.9409L85.9402 93.2559L97.9204 94.5414C98.2452 93.8249 98.5513 93.0772 98.8389 92.2982Z" fill="#F2C34E"/>
<path d="M89.6216 80.7725C90.9932 67.988 86.9233 57.0681 80.531 56.3823C74.1388 55.6965 67.8448 65.5044 66.4732 78.2889C65.1015 91.0734 69.1714 101.993 75.5637 102.679C81.9559 103.365 88.2499 93.557 89.6216 80.7725Z" fill="#F2C34E"/>
<path d="M116.212 133.966L113.102 131.892L108.446 120.252L106.118 94.6423H26.9616V106.283L22.3053 122.58V131.892L20.3482 133.849C19.6324 134.565 19.2302 135.536 19.2302 136.549C19.2302 137.561 19.6324 138.532 20.3482 139.248L20.9416 139.841C21.8148 140.714 22.999 141.205 24.2339 141.205H113.502C114.737 141.205 115.921 140.714 116.794 139.841C117.193 139.442 117.499 138.959 117.689 138.427C117.88 137.895 117.949 137.328 117.894 136.766C117.838 136.204 117.658 135.661 117.368 135.177C117.077 134.692 116.682 134.279 116.212 133.966V133.966Z" fill="#8380F3"/>
<path d="M28.1704 79.8354L46.6897 77.1901C52.1229 76.4139 57.6485 76.5672 63.0303 77.6435L71.6318 79.364C75.977 80.233 80.4208 80.5013 84.839 80.1614L102.658 78.7907C103.354 78.7372 104.052 78.8406 104.702 79.0931C105.352 79.3456 105.937 79.7409 106.413 80.2497C106.89 80.7585 107.246 81.3679 107.456 82.0328C107.666 82.6978 107.723 83.4013 107.625 84.0915L106.118 94.6423L88.7412 98.9863C81.7874 100.725 74.5344 100.897 67.5058 99.4918C59.2445 97.8395 50.6951 98.3718 42.7025 101.036L26.9615 106.283V92.3142L24.5053 86.1743C24.2435 85.5197 24.1337 84.8141 24.1844 84.1108C24.235 83.4075 24.4447 82.7249 24.7977 82.1145C25.1506 81.5041 25.6376 80.9818 26.2218 80.5871C26.8061 80.1923 27.4724 79.9354 28.1704 79.8357V79.8354Z" fill="#5350EF"/>
<path d="M81.9392 91.1123C76.3656 91.9084 70.7 91.8008 65.1607 90.7936L63.8031 90.5468C53.4513 88.6647 42.7727 89.9434 33.158 94.2165L32.5175 94.5105L26.9617 97.0929V106.283L42.7027 101.036C50.6953 98.3718 59.2447 97.8395 67.506 99.4918C74.5346 100.897 81.7876 100.725 88.7414 98.9863L106.118 94.6423L107.134 87.5316L81.9392 91.1123Z" fill="#6562F1"/>
<path d="M41.0555 98.5821L30.5484 93.5717L10.5076 135.601L21.0147 140.611C26.8175 143.378 36.0084 136.213 41.5426 124.607C47.0769 113.001 46.8589 101.349 41.0561 98.5821H41.0555Z" fill="#DFDFDF"/>
<path d="M51.9373 129.764L49.8362 128.762C53.8574 120.328 54.8885 111.514 52.4015 106.829L54.4581 105.737C57.3179 111.125 56.3284 120.556 51.9373 129.764Z" fill="#6562F1"/>
<path d="M35.9082 133.527L23.1841 127.459L22.1821 129.561L34.2977 135.338C34.8417 134.77 35.3785 134.166 35.9082 133.527ZM45.3205 112.223L33.0283 106.361L32.0263 108.462L44.9267 114.614C45.0895 113.801 45.2208 113.004 45.3205 112.223ZM29.3813 117.518L28.3793 119.62L41.028 125.651C41.2026 125.307 41.374 124.959 41.5422 124.607C41.7102 124.254 41.8728 123.902 42.03 123.55L29.3813 117.518Z" fill="#EDEDED"/>
<path d="M31.035 119.596C36.5692 107.991 36.3514 96.3389 30.5485 93.5718C24.7455 90.8047 15.5549 97.9699 10.0206 109.576C4.48639 121.182 4.70423 132.833 10.5072 135.601C16.3101 138.368 25.5008 131.202 31.035 119.596Z" fill="#EDEDED"/>
<path d="M122.882 81.8321L128.222 72.5612L126.204 71.3994L120.648 81.0452C121.378 81.3476 122.123 81.6102 122.882 81.8321ZM114.25 77.193L119.421 68.2154L117.404 67.0537L112.504 75.5601C113.054 76.138 113.637 76.6831 114.25 77.1927V77.193Z" fill="#8380F3"/>
<path d="M18.4989 81.4564L16.1807 81.2413C16.4727 78.2088 17.0705 75.2136 17.9649 72.3013C19.431 67.4766 21.5802 63.0811 24.1807 59.5895L26.0478 60.9805C23.6062 64.2588 21.5813 68.4078 20.1926 72.9782C19.3439 75.7399 18.7765 78.5803 18.4989 81.4561V81.4564ZM28.3349 58.3061L26.6849 56.6642C27.7943 55.5242 29.0513 54.5378 30.4224 53.7313L31.5768 55.753C30.3874 56.4561 29.2971 57.3148 28.3349 58.3064V58.3061Z" fill="#BEBEBE"/>
<path d="M127.267 63.018C121.161 59.5014 114.973 58.802 113.444 61.4564C111.915 64.1105 115.625 69.113 121.73 72.6299C127.835 76.1469 134.024 76.8459 135.553 74.1915C137.082 71.5375 133.372 66.5349 127.267 63.018Z" fill="#8380F3"/>
</svg>
