<svg width="257" height="257" viewBox="0 0 257 257" fill="none" xmlns="http://www.w3.org/2000/svg">
<path d="M169.874 44.4294C171.098 36.9493 166.027 29.8931 158.546 28.669C151.066 27.4449 144.01 32.5165 142.786 39.9966C141.562 47.4768 146.634 54.533 154.114 55.757C161.594 56.9811 168.65 51.9096 169.874 44.4294Z" fill="#E3EEFF"/>
<path d="M169.912 44.6004C171.081 37.4564 166.238 30.7174 159.094 29.5483C151.95 28.3792 145.211 33.2229 144.042 40.3668C142.873 47.5108 147.716 54.2498 154.86 55.4189C162.004 56.588 168.743 51.7444 169.912 44.6004Z" fill="#DBDBDB"/>
<path d="M161.606 53.8725C167.889 51.3134 170.908 44.1452 168.349 37.862C165.79 31.5788 158.621 28.5598 152.338 31.119C146.055 33.6781 143.036 40.8463 145.595 47.1295C148.154 53.4127 155.322 56.4317 161.606 53.8725Z" fill="white"/>
<path d="M157.13 31.1484H156.821V32.9988H157.13V31.1484Z" fill="#E3EEFF"/>
<path d="M151.41 32.5884L151.142 32.7426L152.068 34.3452L152.335 34.191L151.41 32.5884Z" fill="#E3EEFF"/>
<path d="M147.183 36.6597L147.029 36.9268L148.632 37.8519L148.786 37.5848L147.183 36.6597Z" fill="#E3EEFF"/>
<path d="M147.415 42.3536H145.565V42.662H147.415V42.3536Z" fill="#E3EEFF"/>
<path d="M148.639 47.0954L147.037 48.021L147.191 48.288L148.793 47.3625L148.639 47.0954Z" fill="#E3EEFF"/>
<path d="M152.07 50.6718L151.146 52.2748L151.413 52.4289L152.337 50.8259L152.07 50.6718Z" fill="#E3EEFF"/>
<path d="M157.13 52.0168H156.821V53.8672H157.13V52.0168Z" fill="#E3EEFF"/>
<path d="M161.85 50.6757L161.583 50.8299L162.508 52.4324L162.775 52.2781L161.85 50.6757Z" fill="#E3EEFF"/>
<path d="M165.265 47.0968L165.111 47.3639L166.714 48.2891L166.868 48.022L165.265 47.0968Z" fill="#E3EEFF"/>
<path d="M168.335 42.3536H166.485V42.662H168.335V42.3536Z" fill="#E3EEFF"/>
<path d="M166.731 36.6563L165.128 37.5815L165.283 37.8486L166.885 36.9234L166.731 36.6563Z" fill="#E3EEFF"/>
<path d="M162.506 32.5964L161.582 34.1994L161.849 34.3534L162.774 32.7505L162.506 32.5964Z" fill="#E3EEFF"/>
<path d="M158.806 38.5774L153.422 49.1602L153.697 49.3L159.081 38.7173L158.806 38.5774Z" fill="#E3EEFF"/>
<path d="M156.349 38.3175L155.946 38.3982L158.235 49.8397L158.638 49.759L156.349 38.3175Z" fill="#DBDBDB"/>
<path d="M116.678 130.967H28.4242V29.0924H116.678V130.967ZM30.4802 128.911H114.622V31.1484H30.4802V128.911Z" fill="#E3EEFF"/>
<path d="M72.7824 31.6624H70.7264V129.939H72.7824V31.6624Z" fill="#E3EEFF"/>
<path d="M118.528 33.2558H26.5738V36.1342H118.528V33.2558Z" fill="#E3EEFF"/>
<path d="M118.528 36.4426H26.5738V39.321H118.528V36.4426Z" fill="#E3EEFF"/>
<path d="M118.528 39.6808H26.5738V42.5592H118.528V39.6808Z" fill="#E3EEFF"/>
<path d="M118.528 42.8676H26.5738V45.746H118.528V42.8676Z" fill="#E3EEFF"/>
<path d="M118.528 46.1058H26.5738V48.9842H118.528V46.1058Z" fill="#E3EEFF"/>
<path d="M118.528 49.344H26.5738V52.2224H118.528V49.344Z" fill="#E3EEFF"/>
<path d="M118.528 52.5308H26.5738V55.4092H118.528V52.5308Z" fill="#E3EEFF"/>
<path d="M118.528 55.769H26.5738V58.6474H118.528V55.769Z" fill="#E3EEFF"/>
<path d="M118.528 59.0072H26.5738V61.8856H118.528V59.0072Z" fill="#E3EEFF"/>
<path d="M112.463 32.639H111.949V98.6366H112.463V32.639Z" fill="#14213D"/>
<path d="M113.08 101.052H111.281L111.744 98.431H112.617L113.08 101.052Z" fill="#14213D"/>
<path d="M114.314 32.639H113.8V128.089H114.314V32.639Z" fill="#14213D"/>
<path d="M114.93 130.042H113.131L113.594 127.421H114.468L114.93 130.042Z" fill="#14213D"/>
<path d="M121.767 28.6812H23.387V34.695H121.767V28.6812Z" fill="#DBDBDB"/>
<path d="M236.183 52.2738H180.722V122.126H236.183V52.2738Z" fill="#E3EEFF"/>
<path d="M229.141 66.6658H187.61V68.0022H229.141V66.6658Z" fill="#DBDBDB"/>
<path d="M222.768 69.4414H187.61V70.7778H222.768V69.4414Z" fill="#DBDBDB"/>
<path d="M214.441 72.217H187.61V73.5534H214.441V72.217Z" fill="#DBDBDB"/>
<path d="M227.702 74.9926H187.61V76.329H227.702V74.9926Z" fill="#DBDBDB"/>
<path d="M224.258 77.7168H187.61V79.0532H224.258V77.7168Z" fill="#DBDBDB"/>
<path d="M225.646 83.268H187.61V84.6044H225.646V83.268Z" fill="#DBDBDB"/>
<path d="M202.208 86.0436H187.61V87.38H202.208V86.0436Z" fill="#DBDBDB"/>
<path d="M217.011 88.7678H187.61V90.1042H217.011V88.7678Z" fill="#DBDBDB"/>
<path d="M227.702 91.5434H187.61V92.8798H227.702V91.5434Z" fill="#DBDBDB"/>
<path d="M222.151 94.319H187.61V95.6554H222.151V94.319Z" fill="#DBDBDB"/>
<path d="M225.081 99.8188H187.61V101.155H225.081V99.8188Z" fill="#DBDBDB"/>
<path d="M210.277 102.594H187.61V103.931H210.277V102.594Z" fill="#DBDBDB"/>
<path d="M210.277 110.973H187.61V112.309H210.277V110.973Z" fill="#DBDBDB"/>
<path d="M225.595 116.472C227.922 116.472 229.809 114.585 229.809 112.258C229.809 109.93 227.922 108.043 225.595 108.043C223.267 108.043 221.38 109.93 221.38 112.258C221.38 114.585 223.267 116.472 225.595 116.472Z" fill="#A0C4FF"/>
<path d="M193.778 57.6194C194.292 57.6194 194.806 57.825 195.166 58.082C195.217 58.1334 195.269 58.2362 195.166 58.2876C195.114 58.339 195.012 58.3904 194.96 58.339C194.652 58.082 194.189 57.9278 193.727 57.9278C192.647 57.9278 191.773 58.7502 191.773 59.8296C191.773 60.8576 192.647 61.68 193.727 61.68C194.189 61.68 194.6 61.5258 194.909 61.2688C194.96 61.2174 195.063 61.2174 195.114 61.3202C195.166 61.3716 195.166 61.4744 195.114 61.5258C194.755 61.8342 194.241 61.9884 193.727 61.9884C192.493 61.9884 191.465 61.0118 191.465 59.8296C191.516 58.596 192.544 57.6194 193.778 57.6194Z" fill="#A6A6A6"/>
<path d="M198.25 57.6194C199.381 57.6194 200.306 58.596 200.306 59.8296C200.306 61.0632 199.381 62.0398 198.25 62.0398C197.068 62.0398 196.194 61.0632 196.142 59.8296C196.142 58.596 197.068 57.6194 198.25 57.6194ZM198.25 61.7314C199.175 61.7314 199.997 60.909 199.997 59.8296C199.997 58.7502 199.175 57.9278 198.25 57.9278C197.273 57.9278 196.451 58.7502 196.451 59.8296C196.451 60.8576 197.273 61.7314 198.25 61.7314Z" fill="#A6A6A6"/>
<path d="M201.745 58.339V61.8856C201.745 61.9884 201.694 62.0398 201.591 62.0398C201.488 62.0398 201.437 61.9884 201.437 61.8856V57.9278C201.437 57.8764 201.437 57.825 201.488 57.7736C201.539 57.7222 201.642 57.7222 201.694 57.825L204.315 61.4744V57.9792C204.315 57.8764 204.366 57.825 204.469 57.825C204.572 57.825 204.623 57.8764 204.623 57.9792V61.937C204.623 62.0398 204.572 62.0912 204.469 62.0912C204.418 62.0912 204.366 62.0912 204.366 62.0398L201.745 58.339Z" fill="#A6A6A6"/>
<path d="M207.245 57.9792H205.96C205.857 57.9792 205.806 57.9278 205.806 57.825C205.806 57.7222 205.857 57.6708 205.96 57.6708H208.838C208.941 57.6708 208.992 57.7222 208.992 57.825C208.992 57.9278 208.941 57.9792 208.838 57.9792H207.553V61.8342C207.553 61.937 207.502 61.9884 207.399 61.9884C207.296 61.9884 207.245 61.937 207.245 61.8342V57.9792Z" fill="#A6A6A6"/>
<path d="M212.282 61.0632C212.282 60.7548 212.128 60.5492 211.922 60.395C211.717 60.2408 211.511 60.1894 211.408 60.1894C211.408 60.1894 211.408 60.1894 211.357 60.1894H210.329V61.8856C210.329 61.9884 210.277 62.0398 210.175 62.0398C210.072 62.0398 210.02 61.9884 210.02 61.8856V57.8764C210.02 57.825 210.072 57.7222 210.175 57.7222H211.357C212.025 57.7222 212.59 58.2876 212.59 58.9558C212.59 59.4698 212.282 59.881 211.871 60.0866C211.871 60.0866 211.922 60.0866 211.922 60.138C212.231 60.2922 212.488 60.6006 212.488 61.1146C212.488 61.3716 212.488 61.5258 212.539 61.6286C212.539 61.68 212.59 61.7314 212.59 61.7314C212.642 61.7314 212.745 61.7828 212.745 61.8342C212.745 61.937 212.745 61.9884 212.642 62.0398H212.59C212.488 62.0398 212.385 61.9884 212.333 61.8342C212.282 61.6286 212.282 61.423 212.282 61.0632ZM211.408 57.9792H210.329V59.8296H211.357H211.408C211.922 59.8296 212.333 59.4184 212.333 58.9044C212.333 58.3904 211.922 57.9792 211.408 57.9792Z" fill="#A6A6A6"/>
<path d="M216.343 60.909H214.389L214.03 61.937C214.03 61.9884 213.927 62.0398 213.875 62.0398H213.824C213.773 61.9884 213.721 61.937 213.721 61.8342L215.212 57.825C215.212 57.7736 215.315 57.7222 215.366 57.7222C215.417 57.7222 215.52 57.7736 215.52 57.825L217.011 61.8342C217.062 61.8856 217.011 61.9884 216.908 62.0398H216.857C216.805 62.0398 216.754 61.9884 216.702 61.937L216.343 60.909ZM214.492 60.6006H216.24L215.366 58.2876L214.492 60.6006Z" fill="#A6A6A6"/>
<path d="M219.786 57.6194C220.3 57.6194 220.814 57.825 221.174 58.082C221.226 58.1334 221.277 58.2362 221.174 58.2876C221.123 58.339 221.02 58.3904 220.969 58.339C220.66 58.082 220.198 57.9278 219.735 57.9278C218.656 57.9278 217.782 58.7502 217.782 59.8296C217.782 60.8576 218.656 61.68 219.735 61.68C220.198 61.68 220.609 61.5258 220.917 61.2688C220.969 61.2174 221.071 61.2174 221.123 61.3202C221.174 61.3716 221.174 61.4744 221.123 61.5258C220.763 61.8342 220.249 61.9884 219.735 61.9884C218.501 61.9884 217.473 61.0118 217.473 59.8296C217.525 58.596 218.501 57.6194 219.786 57.6194Z" fill="#A6A6A6"/>
<path d="M223.59 57.9792H222.305C222.202 57.9792 222.151 57.9278 222.151 57.825C222.151 57.7222 222.202 57.6708 222.305 57.6708H225.183C225.286 57.6708 225.338 57.7222 225.338 57.825C225.338 57.9278 225.286 57.9792 225.183 57.9792H223.898V61.8342C223.898 61.937 223.847 61.9884 223.744 61.9884C223.641 61.9884 223.59 61.937 223.59 61.8342V57.9792Z" fill="#A6A6A6"/>
<path d="M132.098 188.175H233.921L236.029 146.439H129.991L132.098 188.175Z" fill="#E3EEFF"/>
<path d="M229.09 165.559H186.531L185.708 151.065H230.015L229.09 165.559ZM186.993 165.045H228.576L229.45 151.579H186.222L186.993 165.045Z" fill="#DBDBDB"/>
<path d="M228.319 182.213H188.175L187.507 169.106H229.09L228.319 182.213ZM188.689 181.699H227.856L228.627 169.62H188.124L188.689 181.699Z" fill="#DBDBDB"/>
<path d="M211.922 159.854H204.778L204.315 156.359H212.385L211.922 159.854ZM205.189 159.34H211.46L211.768 156.873H204.88L205.189 159.34Z" fill="#DBDBDB"/>
<path d="M211.922 177.433H204.778L204.315 173.938H212.385L211.922 177.433ZM205.189 176.919H211.46L211.768 174.452H204.88L205.189 176.919Z" fill="#DBDBDB"/>
<path d="M179.026 165.559H136.467L135.645 151.065H179.951L179.026 165.559ZM136.93 165.045H178.512L179.386 151.579H136.21L136.93 165.045Z" fill="#DBDBDB"/>
<path d="M178.255 182.213H138.112L137.444 169.106H179.026L178.255 182.213ZM138.626 181.699H177.793L178.564 169.62H138.06L138.626 181.699Z" fill="#DBDBDB"/>
<path d="M161.859 159.854H154.714L154.251 156.359H162.321L161.859 159.854ZM155.125 159.34H161.396L161.704 156.873H154.817L155.125 159.34Z" fill="#DBDBDB"/>
<path d="M161.859 177.433H154.714L154.251 173.938H162.321L161.859 177.433ZM155.125 176.919H161.396L161.704 174.452H154.817L155.125 176.919Z" fill="#DBDBDB"/>
<path d="M141.247 188.175L140.579 192.75L139.294 201.899H136.775V188.175H141.247Z" fill="#E3EEFF"/>
<path d="M141.247 188.175L140.579 192.75H136.775V188.175H141.247Z" fill="#DBDBDB"/>
<path d="M224.772 188.175L225.44 192.75L226.725 201.899H229.244V188.175H224.772Z" fill="#E3EEFF"/>
<path d="M224.772 188.175L225.44 192.75H229.244V188.175H224.772Z" fill="#DBDBDB"/>
<path d="M128.5 243.071C179.711 243.071 221.226 237.663 221.226 230.992C221.226 224.321 179.711 218.913 128.5 218.913C77.2891 218.913 35.7744 224.321 35.7744 230.992C35.7744 237.663 77.2891 243.071 128.5 243.071Z" fill="#E3EEFF"/>
<path d="M43.433 217.73C58.7622 217.73 71.189 214.762 71.189 211.1C71.189 207.438 58.7622 204.469 43.433 204.469C28.1038 204.469 15.677 207.438 15.677 211.1C15.677 214.762 28.1038 217.73 43.433 217.73Z" fill="#E3EEFF"/>
<path d="M17.1676 201.899L45.0264 201.796L72.8338 201.745L128.5 201.642L184.166 201.745H211.974L239.832 201.899L211.974 202.002L184.166 202.053L128.5 202.156L72.8338 202.053L45.0264 202.002L17.1676 201.899Z" fill="#14213D"/>
<path d="M44.2554 112.874C44.2554 112.874 30.4288 110.921 33.667 94.2676C33.667 94.2676 49.087 97.7114 44.2554 112.874Z" fill="#A0C4FF"/>
<path opacity="0.1" d="M44.2554 112.874C44.2554 112.874 30.4288 110.921 33.667 94.2676C33.667 94.2676 49.087 97.7114 44.2554 112.874Z" fill="#14213D"/>
<path d="M43.5358 109.379C43.2788 108.557 42.9704 107.683 42.6106 106.912C42.6106 106.809 42.5592 106.706 42.5592 106.604C42.5592 106.398 42.5078 106.141 42.5078 105.935C42.4564 105.421 42.4564 104.959 42.405 104.445C42.3536 103.468 42.3022 102.44 42.2508 101.464C42.2508 101.412 42.148 101.412 42.148 101.464C42.148 102.44 42.148 103.468 42.148 104.445C42.148 104.959 42.1994 105.421 42.2508 105.935C42.2508 106.038 42.2508 106.141 42.2508 106.244C41.4798 104.599 40.5546 103.006 39.4752 101.515C39.0126 100.847 38.4986 100.23 37.9846 99.6132C37.4192 98.9964 36.8538 98.3796 36.2884 97.7628C36.237 97.7114 36.1856 97.7628 36.237 97.8142C37.265 98.8936 38.0874 100.127 38.9098 101.361C39.321 101.978 39.7322 102.646 40.092 103.314C40.0406 103.314 39.9892 103.263 39.9378 103.263C39.7836 103.211 39.6294 103.108 39.4238 103.057C39.064 102.903 38.6528 102.749 38.293 102.646C37.5734 102.389 36.8024 102.08 36.0828 101.823C36.0314 101.823 36.0314 101.875 36.0314 101.926C36.751 102.235 37.4706 102.543 38.2416 102.851C38.6014 103.006 38.9612 103.16 39.321 103.314C39.4752 103.365 39.6808 103.468 39.835 103.52C39.9378 103.571 40.092 103.622 40.1948 103.674C40.4518 104.188 40.7602 104.702 41.0172 105.164C41.634 106.449 42.2508 107.786 42.7134 109.122C42.7648 109.225 42.7648 109.328 42.8162 109.431C42.4564 109.225 42.0452 109.071 41.6854 108.865C41.2228 108.66 40.7088 108.454 40.2462 108.197C39.2696 107.734 38.293 107.323 37.3678 106.758C37.3164 106.706 37.265 106.809 37.3164 106.809C38.2416 107.323 39.2182 107.889 40.1434 108.403C40.606 108.66 41.12 108.917 41.5826 109.122C41.9938 109.328 42.4564 109.585 42.8676 109.636C43.2788 110.921 43.6386 112.206 43.7928 113.543C43.947 115.444 43.947 117.346 43.9984 119.248C43.9984 119.299 44.0498 119.299 44.0498 119.248C44.204 117.552 44.2554 115.804 44.2554 114.057C44.3582 112.463 44.0498 110.973 43.5358 109.379Z" fill="#14213D"/>
<path d="M41.4284 99.5618C41.3256 100.538 41.2228 101.515 41.2742 102.492C41.2742 102.543 41.3256 102.543 41.3256 102.492C41.377 101.515 41.377 100.538 41.4798 99.5618C41.4798 99.5618 41.4284 99.5104 41.4284 99.5618Z" fill="#14213D"/>
<path d="M37.4706 100.436C36.8538 100.179 36.237 99.9216 35.6716 99.5618C35.6202 99.5104 35.5688 99.6132 35.6202 99.6132C36.1856 99.973 36.751 100.281 37.4192 100.487C37.4706 100.487 37.4706 100.436 37.4706 100.436Z" fill="#14213D"/>
<path d="M44.6666 139.397C44.6666 137.855 44.6152 136.364 44.6152 134.822C44.5638 129.734 44.5638 124.696 44.461 119.608C44.4096 115.599 44.3068 111.538 44.204 107.529C44.204 107.529 44.204 107.477 44.1526 107.477C44.1526 106.398 44.1526 105.267 44.1526 104.188C44.1526 104.136 44.1012 104.136 44.1012 104.136C44.0498 104.136 44.0498 104.136 44.0498 104.188C44.0498 105.267 44.0498 106.398 44.0498 107.477L43.9984 107.529C43.7928 114.673 43.6386 121.869 43.5872 129.014C43.5872 130.453 43.5872 131.944 43.5872 133.383C43.5358 138.06 43.5358 142.738 43.5358 147.415C43.5358 148.135 43.5358 148.906 43.5358 149.625C43.5358 153.892 43.5872 158.158 43.5872 162.475C43.5872 162.681 43.8442 162.835 44.1012 162.835C44.4096 162.835 44.718 162.732 44.718 162.475C44.718 157.747 44.7694 153.069 44.7694 148.34C44.718 145.308 44.718 142.327 44.6666 139.397Z" fill="#14213D"/>
<path d="M38.9098 134.719C38.9098 134.719 32.2792 129.785 25.957 133.126C19.6348 136.467 18.6582 149.266 18.6582 149.266C18.6582 149.266 27.9102 150.602 33.7698 145.051C39.3724 139.705 38.9098 134.719 38.9098 134.719Z" fill="#A0C4FF"/>
<path d="M40.7088 135.028C39.5266 134.514 38.1902 134.411 36.8538 134.514C36.5968 134.462 36.2884 134.462 36.0314 134.411C35.723 134.411 35.4146 134.36 35.1062 134.36C34.438 134.308 33.8212 134.257 33.153 134.205C31.8166 134.103 30.5316 134.051 29.1952 133.897C29.1438 133.897 29.1438 134 29.1952 134C30.4802 134.154 31.7652 134.36 33.1016 134.462C33.7698 134.514 34.438 134.617 35.1062 134.668C35.2604 134.668 35.4146 134.719 35.5688 134.719C35.3632 134.771 35.1576 134.822 35.0034 134.874C33.9754 135.182 32.9474 135.593 31.9708 136.107C31.4568 136.21 30.9428 136.364 30.4288 136.467C29.6064 136.673 28.784 136.878 27.9616 137.084C26.3682 137.495 24.7748 137.958 23.13 138.472C23.0786 138.472 23.0786 138.574 23.13 138.574C24.7234 138.163 26.3168 137.803 27.9616 137.444C28.7326 137.238 29.5036 137.084 30.2746 136.878C30.4802 136.827 30.6858 136.775 30.8914 136.724C29.0924 137.803 27.499 139.243 26.1626 140.836C24.8262 142.429 23.7982 144.177 22.873 146.027C22.873 146.079 22.9244 146.13 22.9244 146.079C24.0038 144.177 25.3402 142.429 26.8822 140.887C26.8308 140.99 26.8308 141.042 26.7794 141.144C26.6766 141.556 26.5224 141.915 26.4196 142.327C26.1626 143.098 25.9056 143.869 25.7 144.691C25.7 144.742 25.7514 144.742 25.8028 144.691C26.0598 143.92 26.3682 143.149 26.6252 142.429C26.7794 142.07 26.8822 141.658 27.0364 141.299C27.0878 141.093 27.1906 140.887 27.242 140.733C27.242 140.682 27.2934 140.63 27.2934 140.579C28.0644 139.859 28.8354 139.191 29.6578 138.574C30.7372 137.752 31.9194 137.084 33.2044 136.57C33.2044 136.673 33.153 136.775 33.153 136.93C33.1016 137.238 32.9988 137.546 32.9474 137.855C32.7932 138.472 32.6904 139.14 32.5876 139.757C32.3306 141.042 32.1764 142.327 31.9194 143.612C31.9194 143.663 31.9708 143.663 32.0222 143.612C32.3306 142.327 32.6904 141.042 32.9988 139.757C33.153 139.088 33.3072 138.472 33.41 137.803C33.4614 137.495 33.5128 137.187 33.6156 136.878C33.667 136.724 33.667 136.518 33.7184 136.364C33.8212 136.313 33.9754 136.261 34.0782 136.21C35.8258 135.542 37.7276 135.079 39.6294 135.439C41.4284 135.799 42.919 136.981 43.6386 138.626C43.69 138.78 43.947 138.677 43.8956 138.523C43.5358 136.827 42.1994 135.645 40.7088 135.028Z" fill="#14213D"/>
<path d="M30.5316 140.528C30.326 141.35 30.1718 142.224 29.9662 143.046C29.812 143.869 29.555 144.691 29.5036 145.513C29.5036 145.565 29.555 145.565 29.555 145.513C29.812 144.742 29.9662 143.869 30.1204 143.046C30.2746 142.224 30.4288 141.401 30.6344 140.528C30.6344 140.476 30.5316 140.476 30.5316 140.528Z" fill="#14213D"/>
<path d="M24.1066 142.635C23.2842 143.046 22.4618 143.56 21.5366 143.92C21.4852 143.92 21.5366 144.023 21.588 143.971C22.4618 143.56 23.3356 143.2 24.1066 142.635C24.158 142.686 24.158 142.635 24.1066 142.635Z" fill="#14213D"/>
<path d="M40.4004 125.673C40.4004 125.673 32.2792 126.187 28.4756 120.841C24.672 115.496 25.5458 107.837 25.5458 107.837C25.5458 107.837 34.0782 108.865 37.4706 112.72C40.863 116.575 40.4004 125.673 40.4004 125.673Z" fill="#A0C4FF"/>
<path d="M44.204 133.691C43.947 132.818 43.5872 131.944 43.2274 131.121C42.919 130.299 42.5592 129.477 42.1994 128.706C41.4798 127.061 40.6574 125.467 39.7836 123.925C39.2182 122.949 38.6014 121.972 37.9846 121.047C37.9846 120.893 37.9332 120.739 37.9332 120.636C37.8818 120.379 37.8818 120.122 37.8304 119.865C37.7276 119.351 37.6762 118.837 37.5734 118.323C37.3678 117.192 37.1622 116.061 36.9566 114.982C36.9566 114.93 36.8538 114.93 36.8538 114.982C37.008 116.113 37.1108 117.192 37.265 118.323C37.3164 118.888 37.4192 119.402 37.4706 119.968C37.522 120.173 37.522 120.379 37.5734 120.533C36.3398 118.734 35.0034 116.986 33.5642 115.342C33.3586 115.136 33.153 114.879 32.9474 114.673C32.9474 114.622 32.896 114.571 32.896 114.468C32.8446 114.314 32.7932 114.159 32.7418 114.005C32.639 113.697 32.4848 113.337 32.382 113.029C32.1764 112.412 31.9708 111.744 31.7652 111.075C31.7652 111.024 31.6624 111.024 31.6624 111.075C31.8166 111.744 32.0222 112.412 32.1764 113.08C32.2792 113.388 32.382 113.697 32.4848 114.005C32.4848 114.057 32.5362 114.108 32.5362 114.159C31.5082 113.029 30.4288 111.949 29.298 110.87C29.2466 110.818 29.1952 110.87 29.2466 110.921C31.354 113.08 33.2558 115.496 35.0034 117.963C34.7978 117.912 34.5922 117.86 34.3866 117.809C33.7698 117.706 33.153 117.603 32.4848 117.5C31.1484 117.346 29.8634 117.141 28.527 116.935C28.4756 116.935 28.4756 116.986 28.527 117.038C29.7606 117.295 31.0456 117.552 32.2792 117.86C32.8446 118.014 33.4614 118.117 34.0782 118.22C34.5922 118.323 35.0548 118.477 35.5174 118.631C35.6716 118.837 35.7744 118.991 35.9286 119.197C36.5454 120.07 37.1108 120.944 37.6762 121.818C37.4192 121.767 37.1108 121.715 36.8538 121.664C36.237 121.561 35.6202 121.407 34.952 121.304C33.7184 121.098 32.4848 120.893 31.2512 120.584C31.1998 120.584 31.1998 120.636 31.2512 120.687C32.4848 120.996 33.7184 121.304 34.952 121.664C35.5688 121.818 36.1342 121.972 36.751 122.075C37.0594 122.126 37.3678 122.229 37.6762 122.281C37.8304 122.332 37.9332 122.332 38.036 122.332C39.2182 124.234 40.349 126.238 41.377 128.243C41.8396 129.117 42.2508 130.042 42.7134 130.916C43.1246 131.841 43.5358 132.766 43.8956 133.691C43.9984 134 44.3068 133.897 44.204 133.691Z" fill="#14213D"/>
<path d="M35.8772 115.033C35.723 114.262 35.5688 113.491 35.3632 112.72C35.3632 112.669 35.2604 112.669 35.2604 112.72C35.4146 113.491 35.5688 114.262 35.723 115.033C35.8772 115.804 35.98 116.575 36.1856 117.295C36.237 116.524 36.0314 115.753 35.8772 115.033Z" fill="#14213D"/>
<path d="M31.1484 114.776C30.7886 114.571 30.3774 114.416 29.9662 114.262C29.7606 114.159 29.555 114.108 29.3494 114.005C29.2466 113.954 29.1438 113.902 29.041 113.902C28.9382 113.851 28.784 113.8 28.6812 113.748C28.6298 113.697 28.5784 113.8 28.6298 113.8C28.7326 113.8 28.8868 113.902 28.9896 113.954C29.0924 114.005 29.1952 114.057 29.298 114.108C29.5036 114.211 29.7092 114.262 29.9148 114.365C30.326 114.519 30.6858 114.725 31.097 114.828C31.1998 114.879 31.1998 114.828 31.1484 114.776Z" fill="#14213D"/>
<path d="M48.7272 119.299C48.7272 119.299 53.6616 110.099 61.1146 108.711C68.619 107.272 73.1936 114.982 73.1936 114.982C73.1936 114.982 67.7452 121.972 60.8576 123.154C53.97 124.388 48.7272 119.299 48.7272 119.299Z" fill="#A0C4FF"/>
<path d="M66.1518 112.823C64.1986 112.566 62.2454 112.566 60.2922 112.874C60.395 112.823 60.4978 112.772 60.6006 112.72C61.166 112.463 61.7314 112.155 62.2454 111.846C63.3762 111.23 64.5584 110.613 65.7406 110.15C65.792 110.15 65.7406 110.047 65.6892 110.099C64.507 110.664 63.3248 111.075 62.1426 111.641C61.5772 111.898 60.9604 112.206 60.395 112.515C60.0352 112.72 59.624 112.874 59.2642 113.131C57.6194 113.491 56.026 114.005 54.484 114.725C54.7924 114.365 55.1008 114.057 55.4092 113.697C56.1288 112.926 56.797 112.155 57.568 111.435C57.6194 111.384 57.568 111.332 57.5166 111.384C56.7456 112.103 55.9232 112.772 55.1522 113.491C54.7924 113.851 54.4326 114.211 54.0728 114.622C53.9186 114.828 53.713 115.033 53.5588 115.239C50.3206 116.986 47.545 119.659 45.6946 122.897C44.6666 124.748 43.947 126.701 43.5358 128.757C43.5358 128.808 43.5872 128.86 43.6386 128.808C44.6666 125.365 46.6198 122.075 49.1384 119.505C51.8626 116.729 55.3578 114.673 59.1614 113.697C61.423 113.131 63.736 112.926 66.1004 113.08C66.2032 112.977 66.2032 112.823 66.1518 112.823Z" fill="#14213D"/>
<path opacity="0.1" d="M73.1936 114.982C73.1936 114.982 67.7452 121.972 60.8576 123.154C55.6148 124.08 51.2972 121.355 49.5496 120.019L49.1898 119.402C49.1898 119.402 52.7364 116.421 59.4184 114.673C66.1518 112.926 73.1936 114.982 73.1936 114.982Z" fill="#14213D"/>
<path d="M61.7828 109.533C61.2174 109.893 60.652 110.202 60.138 110.613C59.624 111.024 59.11 111.435 58.6988 111.949C58.6474 112.001 58.6988 112.052 58.7502 112.001C59.2642 111.589 59.7268 111.127 60.2408 110.716C60.7548 110.304 61.2688 109.893 61.8342 109.585C61.8856 109.585 61.8342 109.482 61.7828 109.533Z" fill="#14213D"/>
<path d="M65.8948 111.075C65.6378 111.178 65.3294 111.281 65.0724 111.384C64.8154 111.487 64.507 111.589 64.25 111.744C64.1986 111.744 64.1986 111.846 64.3014 111.846C64.5584 111.744 64.8668 111.641 65.1238 111.487C65.3808 111.384 65.6892 111.23 65.9462 111.127C65.9462 111.127 65.9462 111.075 65.8948 111.075Z" fill="#14213D"/>
<path d="M47.7506 130.864C47.7506 130.864 49.087 139.962 55.9232 143.149C62.7594 146.336 71.1376 143.149 71.1376 143.149C71.1376 143.149 67.848 123.463 47.7506 130.864Z" fill="#A0C4FF"/>
<path d="M66.4088 137.238C65.792 137.187 65.1238 137.084 64.507 136.93C64.1986 136.878 63.8902 136.827 63.5818 136.775C63.4276 136.724 63.2734 136.724 63.1192 136.673C62.9136 136.518 62.7594 136.313 62.5538 136.159C61.2688 135.028 59.8296 134 58.339 133.126C57.5166 132.663 56.6942 132.201 55.8204 131.841C55.8718 131.841 55.9232 131.841 55.9746 131.841C56.7456 131.892 57.4652 131.892 58.2362 131.944C59.7268 131.995 61.2688 132.047 62.7594 132.149C62.8108 132.149 62.8108 132.047 62.7594 132.047C61.2688 131.944 59.7268 131.79 58.2362 131.635C57.5166 131.584 56.797 131.481 56.026 131.43C55.6662 131.378 55.255 131.378 54.8952 131.327C54.7924 131.327 54.6896 131.327 54.5868 131.276C54.1756 131.121 53.8158 130.967 53.4046 130.864C51.5542 130.299 49.4982 130.042 47.5964 130.556C45.8488 131.019 44.1526 132.149 43.69 133.948C43.69 134 43.7928 134.051 43.7928 134C44.461 132.458 46.1058 131.738 47.6478 131.378C48.6758 131.173 49.7038 131.173 50.7318 131.327C50.7832 131.79 50.9374 132.252 51.0916 132.715C51.2972 133.332 51.4514 134 51.657 134.617C52.0682 135.902 52.4794 137.187 52.8392 138.472C52.8392 138.523 52.942 138.523 52.942 138.472C52.6336 137.187 52.3766 135.902 52.0682 134.617C51.914 134 51.7598 133.383 51.6056 132.715C51.5028 132.304 51.4 131.841 51.2458 131.43C51.8626 131.533 52.428 131.687 53.0448 131.841C54.0728 132.149 55.1522 132.509 56.1288 132.972C56.2316 133.64 56.3858 134.257 56.54 134.925C56.7456 135.747 56.9512 136.518 57.2082 137.289C57.2082 137.341 57.311 137.341 57.2596 137.289C57.2596 137.238 57.2596 137.187 57.2082 137.135C57.054 136.416 56.8998 135.645 56.7456 134.925C56.6428 134.308 56.4886 133.743 56.3858 133.126C57.2596 133.486 58.082 133.948 58.9044 134.411C58.9044 134.617 58.9558 134.771 59.0072 134.976C59.0586 135.285 59.11 135.593 59.1614 135.902C59.3156 136.621 59.4184 137.289 59.624 138.009C59.9324 139.345 60.2922 140.682 60.8062 141.967V142.018L60.8576 142.07C60.909 142.121 60.9604 142.07 60.909 142.018C60.6006 140.682 60.2408 139.345 59.9324 137.958C59.7782 137.289 59.624 136.621 59.5212 135.902C59.4698 135.542 59.367 135.233 59.3156 134.874C59.3156 134.771 59.2642 134.668 59.2642 134.565C60.1894 135.131 61.0632 135.696 61.937 136.364C63.3762 137.444 64.8154 138.729 65.9976 140.116C66.049 140.168 66.1518 140.116 66.1004 140.014C65.5864 139.345 65.0724 138.677 64.4556 138.009C64.0958 137.649 63.736 137.289 63.3762 136.93C63.4276 136.93 63.4276 136.93 63.479 136.93C63.7874 136.981 64.1472 137.032 64.4556 137.084C65.0724 137.187 65.7406 137.238 66.3574 137.289C66.4088 137.341 66.4602 137.238 66.4088 137.238Z" fill="#14213D"/>
<path d="M61.5772 140.322C61.5772 140.219 61.5772 140.168 61.5258 140.065C61.5258 139.962 61.4744 139.859 61.423 139.757C61.2688 139.14 61.166 138.523 61.0632 137.906C61.0632 137.855 61.0118 137.855 61.0118 137.906C61.0118 138.78 61.2174 139.551 61.5772 140.322C61.5772 140.373 61.5258 140.373 61.5772 140.322Z" fill="#14213D"/>
<path d="M55.8204 140.168C55.5634 139.345 55.4092 138.523 55.255 137.701C55.1522 137.289 55.1008 136.827 54.998 136.416C54.9466 136.21 54.8952 135.953 54.8952 135.747C54.8438 135.542 54.8438 135.336 54.741 135.131C54.741 135.079 54.6896 135.131 54.6896 135.131C54.6382 135.49 54.7924 135.953 54.8438 136.364C54.9466 136.827 54.998 137.238 55.1008 137.701C55.3064 138.574 55.512 139.5 55.769 140.373C55.769 140.425 55.8718 140.425 55.8718 140.373C55.8718 140.322 55.8204 140.219 55.8204 140.168Z" fill="#14213D"/>
<path d="M65.7406 134.617C64.507 134.462 63.222 134.257 61.9884 134.103C61.937 134.103 61.937 134.154 61.9884 134.205C63.222 134.411 64.507 134.565 65.7406 134.719C65.792 134.668 65.8434 134.617 65.7406 134.617Z" fill="#14213D"/>
<path d="M44.204 109.482C44.204 109.482 39.9892 91.0808 59.7782 83.6278C59.7782 83.6278 65.278 107.837 44.204 109.482Z" fill="#A0C4FF"/>
<path d="M48.4702 99.0478C48.5216 98.9964 48.6244 98.945 48.6758 98.8936C49.0356 98.688 49.3954 98.4824 49.8066 98.2768L52.1196 96.9918C53.6102 96.1694 55.1008 95.2956 56.6428 94.4218C56.6942 94.3704 56.6428 94.319 56.5914 94.3704C55.0494 95.1928 53.5074 95.9638 51.9654 96.7862L49.7038 97.9684C49.3954 98.1226 49.087 98.2768 48.7786 98.4824C49.4468 97.2488 50.1664 96.0152 50.9374 94.833C51.9654 93.2396 53.0962 91.749 54.2784 90.3098C54.3298 90.2584 54.227 90.1556 54.1756 90.207C52.428 91.8518 50.9374 93.805 49.601 95.8096C49.601 95.7582 49.601 95.6554 49.601 95.604C49.601 95.1414 49.6524 94.6788 49.6524 94.2162C49.6524 93.3424 49.601 92.4172 49.6524 91.5434C49.6524 91.492 49.5496 91.492 49.5496 91.5434C49.4982 92.4172 49.3954 93.291 49.344 94.2162C49.344 94.6788 49.2926 95.09 49.2926 95.5526C49.2926 95.8096 49.2412 96.0666 49.2926 96.3236C48.8814 96.9918 48.4702 97.6086 48.1104 98.2768C47.4422 99.459 46.8768 100.693 46.3628 101.978C46.3628 101.515 46.3114 101.052 46.3114 100.59C46.26 99.5618 46.1058 98.5852 46.1058 97.5572C46.1058 97.5058 46.003 97.5058 46.003 97.5572C46.003 98.5852 45.9516 99.5618 46.003 100.59C46.003 101.104 46.0544 101.618 46.0544 102.08C46.0544 102.286 46.0544 102.44 46.1058 102.646C45.489 104.291 44.975 105.987 44.6152 107.683C44.2554 109.533 44.0498 111.384 43.8956 113.234C44.0498 111.589 44.5124 109.893 44.9236 108.3C45.1806 107.426 45.4376 106.552 45.6946 105.73C46.517 105.319 47.288 104.856 48.1104 104.393C48.9328 103.931 49.7552 103.468 50.5776 103.057C52.2224 102.132 53.8672 101.207 55.5634 100.436C55.6148 100.436 55.5634 100.333 55.512 100.384C53.7644 101.155 52.0682 101.926 50.372 102.749C49.5496 103.16 48.6758 103.622 47.9048 104.085C47.2366 104.496 46.517 104.856 45.8488 105.319C46.0544 104.753 46.26 104.188 46.4656 103.622C47.0824 102.029 47.7506 100.538 48.4702 99.0478Z" fill="#14213D"/>
<path d="M46.8254 94.833C46.8254 94.7816 46.7226 94.7816 46.7226 94.833C46.774 95.861 46.8254 96.9404 46.9282 97.9684C46.9282 98.0198 47.031 98.0198 47.031 97.9684C47.031 96.9404 46.9282 95.9124 46.8254 94.833Z" fill="#14213D"/>
<path d="M56.283 98.3796C55.0494 98.8936 53.8158 99.3562 52.5822 99.8702C52.5308 99.8702 52.5822 99.9216 52.5822 99.9216C53.8158 99.459 55.0494 98.945 56.283 98.4824C56.3858 98.431 56.3344 98.3282 56.283 98.3796Z" fill="#14213D"/>
<path d="M58.1848 89.8986C56.9512 90.464 55.8204 91.0808 54.6896 91.8004C54.6382 91.8518 54.6896 91.9032 54.741 91.9032C55.8718 91.235 57.054 90.5668 58.2362 90.0014C58.2876 89.8986 58.2362 89.8472 58.1848 89.8986Z" fill="#14213D"/>
<path d="M57.9278 149.266H29.4008V179.335H57.9278V149.266Z" fill="#455A64"/>
<path d="M28.8354 159.905H27.3962V211.357H28.8354V159.905Z" fill="#14213D"/>
<path d="M59.6754 159.905H58.2362V211.357H59.6754V159.905Z" fill="#14213D"/>
<path d="M45.0264 159.905H43.5872V211.357H45.0264V159.905Z" fill="#14213D"/>
<path d="M59.0072 177.381H28.1672V181.545H59.0072V177.381Z" fill="#14213D"/>
<path d="M172.498 194.549V216.702C172.498 220.917 172.447 224.669 172.241 226.571C172.241 226.571 172.241 226.571 172.241 226.623C172.139 227.342 172.087 227.805 171.933 227.908C171.933 227.908 171.933 227.908 171.933 227.959C170.699 228.833 136.878 229.964 135.645 229.604C134.462 229.244 135.388 225.8 136.673 224.721C137.958 223.641 150.705 217.371 150.705 217.371L150.91 195.269L172.498 194.549Z" fill="#AD6359"/>
<path d="M172.498 212.179V216.702C172.498 220.917 172.447 224.669 172.241 226.571C172.241 226.571 172.241 226.571 172.241 226.623C172.139 227.342 172.036 227.805 171.933 227.908C171.933 227.908 171.933 227.908 171.933 227.959C170.699 228.833 136.878 229.964 135.645 229.604C134.462 229.244 135.388 225.8 136.673 224.721C137.958 223.641 150.705 217.371 150.705 217.371L150.653 212.745L172.498 212.179Z" fill="#C7C7C7"/>
<path d="M135.645 229.604C136.827 229.964 170.648 228.781 171.933 227.959C172.396 227.651 172.55 222.716 172.498 216.754C172.498 216.702 172.498 216.651 172.498 216.548L150.653 217.062V217.422C150.653 217.422 137.906 223.641 136.621 224.772C135.388 225.8 134.462 229.244 135.645 229.604Z" fill="#14213D"/>
<path d="M136.004 228.267C141.71 227.908 164.686 227.137 170.34 227.239C170.391 227.239 170.391 227.291 170.34 227.291C164.686 227.753 141.71 228.37 136.004 228.422C135.902 228.37 135.85 228.267 136.004 228.267Z" fill="#455A64"/>
<path d="M148.854 217.525C151.065 217.011 153.84 217.268 155.588 218.81C155.639 218.861 155.588 218.964 155.485 218.964C153.223 218.347 151.167 217.987 148.854 217.833C148.7 217.782 148.7 217.525 148.854 217.525Z" fill="#455A64"/>
<path d="M147.261 218.553C149.471 218.039 152.247 218.296 153.994 219.838C154.046 219.889 153.994 219.992 153.892 219.992C151.63 219.375 149.574 219.015 147.261 218.861C147.158 218.81 147.107 218.604 147.261 218.553Z" fill="#455A64"/>
<path d="M145.719 219.581C147.929 219.067 150.705 219.324 152.452 220.866C152.504 220.917 152.452 221.02 152.35 221.02C150.088 220.403 148.032 220.043 145.719 219.889C145.565 219.838 145.513 219.632 145.719 219.581Z" fill="#455A64"/>
<path d="M174.452 112.463V113.954L173.629 178.615L173.578 178.872L173.115 217.628L149.42 217.165L153.994 112.566L154.046 111.178L154.303 98.9964H174.297L174.452 112.463Z" fill="#455A64"/>
<path d="M150.448 213.207C154.149 213.156 153.069 213.156 156.77 213.156C158.569 213.156 170.442 213.207 172.139 213.516C172.19 213.516 172.19 213.567 172.139 213.567C170.442 213.824 158.569 213.567 156.77 213.516C153.069 213.413 154.149 213.413 150.448 213.31C150.345 213.31 150.345 213.207 150.448 213.207Z" fill="#14213D"/>
<path d="M161.036 119.299C161.036 119.248 160.933 119.248 160.933 119.299C160.933 125.467 160.676 128.963 160.522 135.131C160.368 141.299 160.214 147.518 160.008 153.686C159.648 166.073 159.186 178.409 158.723 190.797C158.466 197.736 158.158 204.675 157.747 211.614C157.747 211.665 157.798 211.665 157.798 211.614C158.672 199.278 159.546 186.89 160.06 174.503C160.574 162.116 160.882 149.78 160.985 137.392C161.036 130.453 161.036 126.238 161.036 119.299Z" fill="#14213D"/>
<path d="M174.452 112.463L173.629 178.615L157.747 99.0478H174.297L174.452 112.463Z" fill="#14213D"/>
<path d="M199.072 193.367L202.053 215.315C202.67 219.529 203.081 223.179 203.133 225.132C203.133 225.132 203.133 225.132 203.133 225.183C203.133 225.903 203.133 226.366 203.03 226.52C203.03 226.52 203.03 226.52 203.03 226.571C201.899 227.599 168.541 233.305 167.307 233.099C166.073 232.893 166.536 229.398 167.667 228.113C168.798 226.88 180.568 218.964 180.568 218.964L177.793 197.016L199.072 193.367Z" fill="#AD6359"/>
<path d="M201.437 210.791C201.437 210.791 202.053 215.263 202.053 215.315C202.67 219.529 203.081 223.179 203.133 225.132C203.133 225.132 203.133 225.132 203.133 225.183C203.133 225.903 203.081 226.366 203.03 226.52C203.03 226.52 203.03 226.52 203.03 226.571C201.899 227.599 168.541 233.305 167.307 233.099C166.073 232.893 166.536 229.398 167.667 228.113C168.798 226.88 180.568 218.964 180.568 218.964L179.9 214.389L201.437 210.791Z" fill="#C7C7C7"/>
<path d="M167.256 233.048C168.489 233.253 201.848 227.548 202.979 226.52C203.39 226.16 202.876 221.226 202.053 215.315C202.053 215.263 202.053 215.212 202.002 215.109L180.465 218.553L180.517 218.913C180.517 218.913 168.746 226.828 167.615 228.062C166.485 229.347 166.022 232.842 167.256 233.048Z" fill="#14213D"/>
<path d="M167.41 231.711C173.012 230.632 195.68 226.725 201.334 226.057C201.385 226.057 201.385 226.057 201.334 226.109C195.783 227.342 173.115 231.043 167.461 231.814C167.307 231.814 167.307 231.711 167.41 231.711Z" fill="#455A64"/>
<path d="M178.718 219.272C180.877 218.501 183.601 218.347 185.605 219.632C185.657 219.684 185.605 219.786 185.554 219.786C183.241 219.478 181.134 219.375 178.821 219.529C178.615 219.581 178.564 219.375 178.718 219.272Z" fill="#455A64"/>
<path d="M177.279 220.557C179.437 219.786 182.162 219.632 184.166 220.917C184.218 220.969 184.166 221.071 184.115 221.071C181.802 220.763 179.694 220.66 177.381 220.814C177.176 220.814 177.124 220.609 177.279 220.557Z" fill="#455A64"/>
<path d="M175.891 221.791C178.05 221.02 180.774 220.866 182.778 222.151C182.83 222.202 182.778 222.305 182.727 222.305C180.414 221.997 178.307 221.894 175.994 222.048C175.737 222.048 175.737 221.842 175.891 221.791Z" fill="#455A64"/>
<path d="M156.307 98.9964C156.41 99.4076 157.798 105.935 159.237 111.487C160.265 115.547 161.396 119.145 162.013 119.505C162.732 119.916 166.125 121.458 167.307 121.921L172.55 172.139L179.643 218.707L202.876 215.109L186.325 113.234L183.652 98.9964H156.307Z" fill="#455A64"/>
<path d="M179.797 214.081C183.447 213.516 182.367 213.618 186.068 213.053C187.867 212.796 199.638 211.048 201.334 211.1C201.385 211.1 201.385 211.151 201.334 211.151C199.689 211.665 187.918 213.207 186.119 213.413C182.47 213.875 183.498 213.721 179.849 214.132C179.746 214.184 179.746 214.081 179.797 214.081Z" fill="#14213D"/>
<path d="M193.264 200.152C192.699 196.913 192.133 193.675 191.516 190.488C190.334 184.012 189.101 177.587 187.918 171.111C185.503 158.209 183.087 145.256 180.722 132.355C179.386 125.056 179.437 125.724 178.255 118.426C178.255 118.374 178.152 118.374 178.152 118.426C179.283 124.953 178.718 123.514 179.797 130.042C180.825 136.518 181.956 142.943 183.087 149.42C185.4 162.373 187.867 175.274 190.334 188.227C191.002 191.825 191.722 195.474 192.442 199.072C193.161 202.773 193.984 206.422 194.755 210.123C194.755 210.226 194.909 210.175 194.909 210.123C194.343 206.782 193.881 203.441 193.264 200.152Z" fill="#14213D"/>
<path d="M186.89 118.888C186.274 118.734 185.605 118.683 184.989 118.58C184.475 118.477 183.961 118.426 183.447 118.323C182.521 118.117 181.545 117.809 180.774 117.192C179.9 116.524 179.437 115.496 179.026 114.468C178.769 113.902 178.512 113.286 178.255 112.72C178.152 112.412 177.998 112.155 177.844 111.898C177.69 111.589 177.484 111.23 177.381 110.87C177.381 110.818 177.279 110.87 177.33 110.87C177.433 111.075 177.484 111.384 177.536 111.589C177.638 111.898 177.69 112.155 177.793 112.463C177.947 112.977 178.101 113.491 178.255 113.954C178.564 114.879 178.821 115.804 179.335 116.627C180.26 118.117 181.956 118.734 183.601 118.94C184.063 118.991 184.577 119.042 185.04 119.042C185.657 119.094 186.274 119.145 186.839 119.042C186.942 119.042 186.993 118.888 186.89 118.888Z" fill="#14213D"/>
<path d="M160.214 118.58C162.681 119.402 165.045 120.636 167.307 121.869C167.41 121.921 167.358 122.075 167.256 122.024C164.891 120.996 162.424 120.019 160.111 118.888C159.905 118.785 160.008 118.528 160.214 118.58Z" fill="#14213D"/>
<path d="M159.494 102.286C159.494 102.183 159.648 102.183 159.648 102.286C159.648 105.113 159.803 107.632 160.06 110.253C160.162 111.487 161.139 118.271 163.298 117.757C163.658 117.655 163.812 117.346 163.915 116.781C163.966 116.113 163.76 115.342 163.606 114.725C163.349 113.286 163.195 111.898 163.041 110.459C162.835 107.786 162.784 105.113 163.144 102.44C163.144 102.337 163.298 102.337 163.298 102.44C163.298 106.141 163.401 109.842 163.966 113.543C164.223 115.29 165.097 117.963 163.298 118.22C161.396 118.477 160.214 114.057 159.957 112.823C159.237 109.379 159.237 105.73 159.494 102.286Z" fill="#14213D"/>
<path d="M163.195 117.912C163.401 118.374 163.555 118.837 163.658 119.299C163.76 119.659 163.915 120.07 163.863 120.43C163.863 120.482 163.76 120.533 163.709 120.482C163.452 120.173 163.349 119.711 163.195 119.351C163.041 118.94 162.887 118.477 162.732 118.066C162.681 117.809 163.092 117.655 163.195 117.912Z" fill="#14213D"/>
<path d="M186.633 114.725C183.806 114.519 154.046 111.127 154.046 111.127L154.303 98.9964H156.359H183.704L186.376 113.234L186.633 114.725Z" fill="#14213D"/>
<path d="M165.816 71.1376C162.424 81.7774 156.667 92.777 154.971 94.9358C150.499 100.744 137.084 106.501 132.972 107.22C131.224 107.529 126.958 96.118 128.037 94.5246C129.117 92.9312 145.822 86.5576 146.644 85.7352C147.21 85.1698 154.251 76.072 158.98 70.6236C164.891 63.8388 166.69 68.362 165.816 71.1376Z" fill="#AD6359"/>
<path d="M131.635 92.3144L138.215 105.678C138.215 105.678 152.247 99.6132 155.536 95.2956C158.877 90.978 164.943 76.2776 165.816 71.6002C166.742 66.9228 165.148 63.5818 158.877 70.418C152.607 77.2542 147.415 84.039 146.284 85.2212C145.205 86.352 131.635 92.3144 131.635 92.3144Z" fill="#E3EEFF"/>
<path d="M132.201 91.6462L140.116 105.473C140.116 105.473 152.452 99.5618 155.588 95.7068C158.723 91.8004 163.915 79.927 165.559 73.5534C167.204 67.1284 166.228 62.6052 158.98 70.418C151.733 78.2308 147.621 83.9876 146.13 85.2212C145.359 85.838 132.201 91.6462 132.201 91.6462Z" fill="#37474F"/>
<path d="M135.49 92.9312C135.888 92.9312 136.21 92.609 136.21 92.2116C136.21 91.8142 135.888 91.492 135.49 91.492C135.093 91.492 134.771 91.8142 134.771 92.2116C134.771 92.609 135.093 92.9312 135.49 92.9312Z" fill="#14213D"/>
<path d="M138.934 91.3378C139.332 91.3378 139.654 91.0156 139.654 90.6182C139.654 90.2208 139.332 89.8986 138.934 89.8986C138.537 89.8986 138.215 90.2208 138.215 90.6182C138.215 91.0156 138.537 91.3378 138.934 91.3378Z" fill="#14213D"/>
<path d="M165.508 73.5534C163.863 79.9784 158.723 91.8518 155.536 95.7068C154.2 97.3516 151.167 99.4076 148.135 101.155L164.017 66.3574C166.536 65.6892 166.587 69.1844 165.508 73.5534Z" fill="#14213D"/>
<path d="M188.175 109.636C188.073 109.739 152.555 109.842 152.195 109.482C151.733 108.968 159.751 70.4694 163.401 65.6892C164.172 64.6612 166.742 64.4042 168.952 64.6612C169.569 64.7126 170.134 64.8668 170.648 65.021H170.699C171.213 65.1752 171.625 65.3808 171.933 65.6378C177.998 70.5208 183.138 87.4828 184.372 92.6228C186.376 101.001 188.484 109.328 188.175 109.636Z" fill="#E3EEFF"/>
<path d="M171.83 65.1752C171.83 65.1752 168.952 80.955 168.438 85.067C167.924 89.179 168.695 110.818 168.695 110.818L191.002 112.463C191.002 112.463 186.171 98.1226 186.119 97.1974C186.119 97.1974 182.11 80.0298 178.358 72.8338C175.942 68.2078 171.83 65.1752 171.83 65.1752Z" fill="#37474F"/>
<path d="M191.002 112.463L180.877 111.692L173.629 66.7172V66.7686L178.152 72.5768C178.204 72.6796 178.255 72.7824 178.307 72.8338C182.059 80.0298 186.068 97.1974 186.068 97.1974C186.171 98.1226 191.002 112.463 191.002 112.463Z" fill="#14213D"/>
<path d="M163.195 65.535C163.195 65.535 160.831 81.5204 160.574 82.8568C160.317 84.1932 156.719 110.253 156.719 110.253L151.116 110.407L154.046 98.4824C154.046 98.431 160.574 68.9274 163.195 65.535Z" fill="#37474F"/>
<path d="M166.485 74.273L164.891 71.189L162.835 73.4506L163.349 75.6608L165.354 75.9178L166.485 74.273Z" fill="#14213D"/>
<path d="M165.354 75.9178L166.33 98.5852L162.064 106.09L159.854 97.66L163.349 75.6608L165.354 75.9178Z" fill="#14213D"/>
<path d="M164.491 138.635L164.464 165.26L208.462 165.305L208.489 138.68L164.491 138.635Z" fill="#A0C4FF"/>
<path opacity="0.1" d="M164.446 138.635L164.433 151.177L208.432 151.221L208.444 138.68L164.446 138.635Z" fill="#14213D"/>
<path d="M163.449 147.126L209.504 147.173L209.516 134.734L163.462 134.687L163.449 147.126Z" fill="#A0C4FF"/>
<path d="M176.765 127.626V134.719H180.106V130.659L192.801 130.71V134.719H196.142V127.626H176.765Z" fill="#14213D"/>
<path d="M200.176 150.158L203.157 150.161L203.163 144.198L200.182 144.195L200.176 150.158Z" fill="#14213D"/>
<path d="M169.777 150.096L172.758 150.099L172.764 144.136L169.783 144.133L169.777 150.096Z" fill="#14213D"/>
<path d="M176.765 69.904C186.685 78.899 192.956 91.749 193.418 94.3704C194.446 100.641 195.731 111.641 195.526 116.472C195.423 118.271 181.905 116.113 181.905 114.159C182.007 108.197 181.185 95.0386 181.134 94.7816C180.877 93.1882 177.947 85.9408 174.966 78.0766C171.984 70.2638 172.601 66.1518 176.765 69.904Z" fill="#AD6359"/>
<path d="M180.465 132.92C181.802 133.589 182.881 132.458 182.881 132.458C182.881 132.458 183.447 133.486 184.577 133.794C185.811 134.154 186.942 132.355 186.942 132.355C186.942 132.355 187.764 133.28 188.946 133.486C190.18 133.691 191.568 132.047 191.568 132.047C191.568 132.047 192.801 132.458 193.932 131.944C195.217 131.327 196.297 127.678 196.554 125.57C196.811 123.463 195.577 117.192 195.474 116.01L181.905 114.211C181.905 114.211 177.998 123.36 178.05 125.879C178.101 127.986 178.975 132.149 180.465 132.92Z" fill="#AD6359"/>
<path d="M182.676 132.355C182.11 130.093 182.213 127.78 182.213 125.467C182.213 125.416 182.316 125.416 182.316 125.467C182.316 127.78 182.727 130.042 182.83 132.304C182.778 132.406 182.676 132.406 182.676 132.355Z" fill="#14213D"/>
<path d="M186.736 132.304C186.633 131.79 186.685 131.224 186.685 130.71C186.685 130.145 186.736 129.579 186.788 129.014C186.89 127.883 186.993 126.752 187.147 125.673C187.147 125.622 187.25 125.622 187.25 125.673C187.147 126.804 187.096 127.935 187.045 129.014C187.045 129.579 186.993 130.145 186.993 130.71C186.993 131.224 186.993 131.79 186.89 132.304C186.89 132.355 186.736 132.355 186.736 132.304Z" fill="#14213D"/>
<path d="M191.516 131.995C191.414 131.533 191.516 131.019 191.568 130.556C191.619 130.042 191.671 129.528 191.722 129.014C191.825 127.986 191.876 126.958 191.979 125.93C191.979 125.879 192.082 125.879 192.082 125.93C192.03 126.958 191.979 128.037 191.928 129.065C191.876 129.579 191.876 130.093 191.825 130.607C191.722 131.07 191.773 131.635 191.516 131.995C191.568 132.047 191.516 132.047 191.516 131.995Z" fill="#14213D"/>
<path d="M181.236 114.211L196.245 115.033C196.245 115.033 195.114 98.5852 193.932 94.0106C192.75 89.436 182.573 74.2216 176.559 68.6704C170.905 63.479 170.905 67.7966 173.064 73.8618C175.171 79.927 180.517 94.6788 180.671 95.7582C180.877 96.889 181.236 114.211 181.236 114.211Z" fill="#37474F"/>
<path d="M181.905 111.23C182.47 111.178 183.035 111.23 183.652 111.23C184.218 111.23 184.783 111.23 185.4 111.281C186.531 111.332 187.61 111.384 188.741 111.487C189.872 111.538 190.951 111.641 192.082 111.692C193.213 111.744 194.395 111.795 195.526 111.949C195.577 111.949 195.577 112.052 195.526 112.052C194.395 112.103 193.213 112.001 192.082 111.949C190.951 111.898 189.82 111.846 188.689 111.795C187.559 111.744 186.428 111.692 185.297 111.641C184.732 111.589 184.166 111.589 183.652 111.487C183.087 111.435 182.521 111.435 181.956 111.332C181.853 111.281 181.853 111.23 181.905 111.23Z" fill="#14213D"/>
<path d="M165.405 70.7778C165.971 70.7778 169.877 67.6938 171.059 65.3294C171.162 65.1752 170.854 63.479 170.545 61.423C170.391 60.1894 170.237 58.8016 170.185 57.5166C170.185 57.2596 169.312 57.7736 169.312 57.7736L167.667 58.2362L162.218 59.7268C162.218 59.7268 163.092 62.3996 163.144 64.6098C163.144 64.8154 163.144 64.9696 163.092 65.1238C163.092 65.1238 163.092 65.1752 163.092 65.2266C163.092 66.2546 164.48 70.8292 165.405 70.7778Z" fill="#AD6359"/>
<path d="M163.195 65.1752C163.195 65.1752 163.195 65.2266 163.195 65.278C163.452 65.3294 163.709 65.3294 164.017 65.278C169.414 64.9696 169.877 58.082 169.877 58.082L167.77 58.2362L162.321 59.7268C162.321 59.7268 163.195 62.3996 163.246 64.6098C163.246 64.8154 163.246 65.021 163.195 65.1752Z" fill="#14213D"/>
<path d="M170.031 46.6712C171.316 49.344 171.111 57.7222 169.414 59.8296C166.947 62.9136 162.218 63.8902 159.443 60.7548C156.77 57.7222 157.233 46.8254 159.237 44.8208C162.116 41.9424 168.129 42.7134 170.031 46.6712Z" fill="#AD6359"/>
<path d="M162.887 52.7878C162.887 53.4046 162.938 54.0728 163.452 54.227V54.2784C162.835 54.1756 162.732 53.3018 162.887 52.7878Z" fill="#14213D"/>
<path d="M163.401 52.2224C164.326 52.171 164.326 53.97 163.503 54.0214C162.681 54.0728 162.63 52.2738 163.401 52.2224Z" fill="#14213D"/>
<path d="M159.597 52.942C159.597 53.5588 159.494 54.227 159.032 54.3812V54.4326C159.648 54.3298 159.751 53.456 159.597 52.942Z" fill="#14213D"/>
<path d="M159.083 52.3766C158.158 52.3252 158.158 54.1242 158.98 54.1756C159.803 54.227 159.854 52.3766 159.083 52.3766Z" fill="#14213D"/>
<path d="M164.069 51.3486C163.812 51.2972 163.606 51.1944 163.349 51.0916C163.092 50.9888 162.835 50.9374 162.681 50.7318C162.578 50.629 162.63 50.372 162.732 50.2692C162.989 50.0122 163.349 50.0636 163.709 50.1664C164.069 50.2692 164.326 50.4234 164.531 50.7832C164.737 51.0402 164.429 51.4514 164.069 51.3486Z" fill="#14213D"/>
<path d="M158.363 51.4514C158.62 51.4 158.826 51.2972 159.083 51.2458C159.34 51.143 159.597 51.143 159.803 50.886C159.905 50.7832 159.905 50.5262 159.751 50.4234C159.494 50.1664 159.134 50.1664 158.775 50.2692C158.415 50.372 158.158 50.5262 157.952 50.8346C157.747 51.143 158.055 51.5028 158.363 51.4514Z" fill="#14213D"/>
<path d="M163.503 57.9792C163.349 58.1334 163.246 58.2876 163.041 58.339C162.835 58.339 162.63 58.2876 162.424 58.1848C162.424 58.1848 162.373 58.1848 162.424 58.2362C162.578 58.4418 162.887 58.596 163.144 58.5446C163.401 58.4932 163.503 58.2876 163.555 58.0306C163.555 57.9792 163.503 57.9792 163.503 57.9792Z" fill="#14213D"/>
<path d="M162.887 56.3344C162.578 56.8484 162.116 57.1054 161.602 57.2082C161.396 57.2596 161.139 57.2596 160.933 57.2596C160.882 57.2596 160.831 57.2596 160.779 57.2596C160.728 57.2596 160.676 57.2596 160.676 57.2596C160.625 57.2596 160.574 57.2082 160.574 57.1568V57.1054V57.054C160.574 56.6428 160.574 55.9746 160.574 55.9746C160.419 56.0774 159.597 56.4372 159.648 56.2316C159.751 54.3298 159.803 52.2738 160.265 50.4234C160.265 50.372 160.368 50.372 160.368 50.4234C160.368 52.2224 160.06 54.0214 160.008 55.8204C160.265 55.7176 160.676 55.512 160.933 55.512C160.985 55.512 160.831 56.797 160.882 57.0026C161.602 57.1054 162.167 56.8484 162.835 56.3344C162.835 56.2316 162.887 56.283 162.887 56.3344Z" fill="#14213D"/>
<path d="M161.139 57.0026C161.139 57.0026 161.55 57.5166 162.064 57.6708C162.27 57.7222 162.475 57.7736 162.681 57.7222C163.144 57.6194 163.144 57.2082 163.041 56.8484C162.989 56.54 162.835 56.3344 162.835 56.3344C162.835 56.3344 162.218 56.9512 161.139 57.0026Z" fill="#14213D"/>
<path d="M162.064 57.7222C162.27 57.7736 162.475 57.825 162.681 57.7736C163.144 57.6708 163.144 57.2596 163.041 56.8998C162.578 56.8998 162.116 57.2596 162.064 57.7222Z" fill="#EB9481"/>
<path d="M158.055 47.6478C158.363 46.9282 158.672 46.2086 159.134 46.0544C159.546 45.9002 159.854 46.9282 160.831 46.9796C162.167 47.031 162.784 45.7974 164.634 45.6432C167.307 45.3862 168.489 47.5964 168.643 51.3486C168.746 54.6896 170.802 54.998 170.802 54.998C170.802 54.998 171.882 47.545 169.774 45.1292C167.615 42.7134 162.835 41.7368 159.648 44.1012C158.415 45.0264 158.055 47.6478 158.055 47.6478Z" fill="#14213D"/>
<path d="M169.055 53.713C169.055 53.713 170.545 50.8346 171.83 51.3486C173.115 51.8626 172.241 55.8718 170.905 56.54C169.569 57.2596 168.9 56.026 168.9 56.026L169.055 53.713Z" fill="#AD6359"/>
<path d="M171.522 52.4794C171.573 52.4794 171.573 52.4794 171.522 52.4794C170.597 53.0448 170.185 54.0214 169.98 55.0494C170.237 54.6382 170.597 54.3812 171.111 54.6896C171.162 54.6896 171.111 54.741 171.111 54.741C170.699 54.6896 170.391 54.8438 170.185 55.2036C170.031 55.4606 169.928 55.769 169.826 56.026C169.774 56.1288 169.62 56.0774 169.671 55.9746C169.466 54.6896 170.185 52.7878 171.522 52.4794Z" fill="#14213D"/>
<path d="M163.195 65.3808L165.148 70.161L171.008 64.1472L172.704 66.049C172.704 66.049 166.947 75.6094 166.947 75.1468L164.994 71.0862L162.167 73.9132L162.373 66.7686L163.195 65.3808Z" fill="#E3EEFF"/>
<path d="M162.013 70.3666C162.064 69.1844 162.116 68.0022 162.27 66.82C162.27 66.7686 162.321 66.7686 162.373 66.82C162.63 67.9508 162.321 72.474 162.321 73.5534C162.424 73.4506 164.943 71.0348 164.943 71.0862C165.354 71.7544 166.793 74.6842 166.896 74.9926C167.821 73.502 171.265 67.9508 172.344 66.5116C172.396 66.4602 172.447 66.5116 172.396 66.563C171.573 68.1564 166.999 75.6094 166.896 75.558C166.844 75.6094 165.045 71.9086 164.84 71.2404C164.429 71.7544 161.91 74.4272 161.91 74.273C161.91 73.0908 161.961 71.5488 162.013 70.3666Z" fill="#14213D"/>
<path d="M96.7862 70.2638C103.263 83.011 109.842 113.748 110.459 117.86C110.87 120.636 96.2208 123.154 96.2208 121.253C96.2208 118.785 93.2396 89.7958 93.548 78.3336C93.6508 72.0114 95.4498 67.6424 96.7862 70.2638Z" fill="#EB9481"/>
<path d="M96.118 120.019C95.861 121.715 96.4264 127.523 97.5572 131.841C98.0712 133.948 100.281 139.808 101.926 139.551C103.571 139.243 103.108 137.495 103.108 137.495C103.108 137.495 104.393 139.859 106.038 139.397C107.683 138.934 106.809 136.21 106.809 136.21C106.809 136.21 108.3 138.523 109.893 137.958C111.487 137.392 110.202 134.771 110.202 134.771C110.202 134.771 111.487 136.93 112.617 135.953C113.954 134.719 111.178 130.967 110.664 128.603C110.561 128.089 109.225 117.603 109.225 117.603L96.118 120.019Z" fill="#EB9481"/>
<path d="M110.15 134.771C108.094 131.995 107.683 130.453 107.426 127.061C107.426 127.009 107.323 127.009 107.323 127.061C107.272 130.402 107.529 132.458 110.047 134.874C110.15 134.976 110.253 134.874 110.15 134.771Z" fill="#14213D"/>
<path d="M106.809 136.364C104.907 133.28 104.445 131.635 103.931 128.089C103.931 128.037 103.828 128.037 103.828 128.089C104.085 131.584 104.342 133.64 106.655 136.416C106.758 136.518 106.912 136.467 106.809 136.364Z" fill="#14213D"/>
<path d="M102.903 137.238C101.309 134.154 100.693 132.304 100.641 128.808C100.641 128.706 100.538 128.706 100.538 128.808C100.281 132.355 101.001 134.668 102.851 137.289C102.954 137.444 103.006 137.392 102.903 137.238Z" fill="#14213D"/>
<path d="M110.356 117.089C110.356 117.089 112.72 120.687 113.388 122.538C114.057 124.388 114.159 132.047 112.463 132.201C110.304 132.355 109.379 127.883 109.225 125.673C109.225 125.673 104.239 126.033 102.903 122.949C101.566 119.865 110.356 117.089 110.356 117.089Z" fill="#EB9481"/>
<path d="M111.898 132.047C109.842 130.762 109.79 127.832 109.482 125.673C109.482 125.519 109.328 125.467 109.174 125.519C107.066 125.519 104.136 124.902 102.851 123.103C102.8 123.052 102.749 123.103 102.749 123.154C103.828 125.262 106.706 126.136 108.968 125.981C109.328 128.14 109.482 131.07 111.898 132.047Z" fill="#14213D"/>
<path d="M111.846 116.215L95.1928 118.785C95.1928 118.785 92.52 87.8426 92.4172 77.4598C92.3144 67.077 96.0666 64.507 100.076 75.1468C104.085 85.7866 111.846 116.215 111.846 116.215Z" fill="#A0C4FF"/>
<path d="M95.09 116.215C101.926 114.673 109.328 114.108 110.613 113.902C110.664 113.902 110.664 114.005 110.613 114.005C109.328 114.108 100.95 115.701 95.09 116.318C95.0386 116.318 95.0386 116.215 95.09 116.215Z" fill="#14213D"/>
<path d="M132.047 229.552C130.864 229.912 96.9918 229.398 95.7582 228.576C95.604 228.473 95.604 225.44 95.6554 221.226L94.0106 196.297L115.444 196.348L117.141 217.936C117.141 217.936 121.972 220.146 125.93 222.099C128.397 223.282 130.505 224.361 130.967 224.772C132.201 225.852 133.177 229.193 132.047 229.552Z" fill="#EB9481"/>
<path d="M132.047 229.552C130.864 229.912 96.9918 229.398 95.7582 228.576C95.604 228.473 95.604 225.44 95.6554 221.226C104.034 223.076 126.341 226.109 127.009 224.361C127.266 223.641 126.752 222.87 125.93 222.151C128.397 223.333 130.505 224.412 130.967 224.824C132.201 225.852 133.177 229.193 132.047 229.552Z" fill="#14213D"/>
<path d="M84.9128 105.524C84.9128 105.524 90.978 169.98 91.1322 170.751C91.1322 170.854 91.1836 172.036 91.235 173.989C91.5948 184.629 92.4172 217.782 92.4172 217.782H117.912C117.912 217.782 116.267 178.512 115.29 169.363C114.057 157.695 106.604 105.524 106.604 105.524H84.9128Z" fill="#37474F"/>
<path d="M94.1648 172.961C93.3938 159.597 92.2116 146.233 90.6182 132.92C89.7444 125.416 88.665 117.912 87.5856 110.459C87.5856 110.407 87.4828 110.407 87.4828 110.459C89.436 123.771 90.8752 137.187 92.0574 150.602C93.2396 164.017 94.1134 177.433 94.6274 190.848C94.9358 198.455 95.1928 206.063 95.3984 213.67C95.3984 213.875 95.7068 213.824 95.6554 213.67C95.347 200.049 94.9358 186.479 94.1648 172.961Z" fill="#14213D"/>
<path d="M116.267 213.67C115.599 213.567 114.879 213.618 114.211 213.567C113.44 213.516 112.669 213.516 111.898 213.516C110.407 213.464 108.968 213.413 107.477 213.413C104.496 213.361 101.515 213.361 98.5338 213.464C97.7114 213.516 96.889 213.516 96.0666 213.567C95.1928 213.618 94.319 213.67 93.4452 213.67C93.3938 213.67 93.3938 213.773 93.4452 213.773C94.9358 213.773 96.4778 213.927 97.9684 213.978C99.459 214.03 100.898 214.081 102.389 214.081C105.37 214.132 108.351 214.081 111.332 213.978C112.155 213.927 112.977 213.927 113.8 213.927C114.262 213.927 114.673 213.875 115.085 213.875C115.496 213.875 115.856 213.875 116.267 213.824C116.37 213.773 116.37 213.721 116.267 213.67Z" fill="#14213D"/>
<path d="M103.314 105.524L91.6976 189.512C91.5434 183.241 91.3892 177.484 91.235 174.04C91.1836 172.087 91.1322 170.905 91.1322 170.802C90.978 170.031 84.9128 105.576 84.9128 105.576H103.314V105.524Z" fill="#14213D"/>
<path d="M89.3332 234.024C88.0996 233.921 57.0026 220.403 56.1802 219.17C56.0774 219.015 57.2596 216.188 58.9044 212.333L65.7406 188.175L85.581 196.142L79.9784 217.576C79.9784 217.576 83.5764 221.483 86.5062 224.772C88.3052 226.828 89.8472 228.627 90.1556 229.193C90.9266 230.683 90.5668 234.127 89.3332 234.024Z" fill="#EB9481"/>
<path d="M89.3332 234.024C88.0996 233.921 57.0026 220.403 56.1802 219.17C56.0774 219.015 57.2596 216.188 58.9044 212.333C65.8948 217.268 85.3754 228.627 86.6604 227.291C87.1744 226.725 86.9688 225.8 86.5062 224.824C88.3052 226.88 89.8472 228.679 90.1556 229.244C90.9266 230.683 90.5668 234.127 89.3332 234.024Z" fill="#14213D"/>
<path d="M56.6942 209.866L81.5718 217.576C81.5718 217.576 93.7022 174.966 94.6274 164.943C95.5526 155.022 96.4264 134.771 96.8376 120.07C96.8376 120.07 101.001 117.603 102.029 116.267C103.006 114.982 104.034 110.099 106.09 105.473H75.6608C68.4134 119.608 73.8618 125.879 73.8618 128.963C73.8618 143.817 71.6002 163.555 70.8806 166.485C69.4414 172.653 56.6942 209.866 56.6942 209.866Z" fill="#37474F"/>
<path d="M81.469 212.128C80.8522 211.871 80.1326 211.717 79.5158 211.511C78.7962 211.305 78.0252 211.1 77.3056 210.843C75.9178 210.432 74.4786 209.969 73.0394 209.609C70.161 208.787 67.2826 208.016 64.4042 207.348C63.5818 207.142 62.8108 206.988 61.9884 206.782C61.1146 206.577 60.2922 206.422 59.4184 206.217C59.367 206.217 59.3156 206.268 59.4184 206.268C60.8576 206.628 62.2968 207.193 63.736 207.605C65.1238 208.016 66.563 208.427 68.0022 208.838C70.8806 209.661 73.759 210.38 76.6374 211.048C77.4598 211.254 78.2308 211.408 79.0018 211.614C79.413 211.717 79.8756 211.819 80.2868 211.922C80.6466 212.025 81.0578 212.128 81.4176 212.179C81.5204 212.231 81.5718 212.179 81.469 212.128Z" fill="#14213D"/>
<path d="M102.749 116.01C101.258 116.627 99.9216 117.552 98.6366 118.426C97.2488 119.351 96.0152 120.43 94.7302 121.458C94.6788 121.51 94.7302 121.561 94.7816 121.561C96.1694 120.687 97.6086 119.916 98.9964 118.991C100.333 118.117 101.721 117.243 102.851 116.113C102.851 116.061 102.8 115.958 102.749 116.01Z" fill="#14213D"/>
<path d="M102.903 107.426C102.749 108.351 102.492 109.328 102.286 110.253C102.08 111.127 101.978 112.052 101.721 112.926C101.515 113.748 101.155 114.571 100.487 115.136C100.127 115.444 99.7674 115.753 99.4076 116.061C99.202 116.215 98.9964 116.37 98.7908 116.524C98.8422 116.421 98.8422 116.267 98.8422 116.164C98.8936 115.804 98.945 115.444 99.0478 115.085C99.202 114.262 99.3048 113.491 99.4076 112.669C99.6646 111.075 99.8702 109.533 100.179 107.94C100.179 107.889 100.076 107.837 100.076 107.94C99.6646 109.482 99.2534 111.024 98.8936 112.566C98.7394 113.337 98.1226 117.089 98.1226 117.346C98.0712 117.603 98.0712 117.912 98.0712 118.169C98.0712 118.426 98.0198 118.734 98.0712 118.991C98.0712 119.042 98.174 119.042 98.174 118.991C98.3282 118.734 98.3282 118.426 98.431 118.169C98.4824 117.912 98.5852 117.603 98.5852 117.346C98.5852 117.243 98.6366 117.141 98.6366 117.038C98.9964 116.832 99.3562 116.524 99.716 116.267C100.076 116.01 100.487 115.753 100.847 115.444C101.515 114.879 101.926 114.159 102.183 113.337C102.44 112.463 102.543 111.538 102.646 110.613C102.749 109.533 102.851 108.454 103.006 107.426C103.006 107.426 102.954 107.375 102.903 107.426Z" fill="#14213D"/>
<path d="M102.286 66.4602C101.772 72.5254 101.207 78.6934 99.7674 84.6044C98.688 89.179 96.1694 92.777 91.1836 93.2396C86.5576 93.7022 80.1326 92.7256 76.7402 89.2304C75.1468 87.5856 74.8384 85.5296 75.2496 83.3708C75.815 80.3382 80.5438 63.9416 81.983 58.853C82.8568 55.7176 83.7306 52.5822 85.1184 49.6524C88.0996 43.4844 91.2864 43.9984 91.749 43.8956C92.1602 43.69 94.7816 42.9704 98.0712 44.5124C99.9216 45.3862 101.104 46.8768 101.721 48.7786C103.52 54.2784 102.749 60.8062 102.286 66.4602Z" fill="#14213D"/>
<path d="M90.6696 44.6666C86.609 45.9516 85.1184 50.0122 83.6792 53.6102C81.6746 58.6474 79.7728 63.736 78.0766 68.876C77.2542 71.3432 76.5346 73.8618 75.8664 76.3804C75.1982 78.7962 74.3758 81.3662 74.2216 83.8334C73.9132 87.9968 77.4084 90.3612 81.0064 91.4406C81.1606 91.492 81.2634 91.235 81.1092 91.1836C79.1046 90.464 77.0486 89.6416 75.7122 87.894C74.016 85.6324 74.5814 83.1138 75.1468 80.5952C76.1234 76.2776 77.357 72.0628 78.7962 67.848C80.184 63.6332 81.726 59.5212 83.3194 55.3578C84.8614 51.4514 86.3006 46.2086 90.721 44.718C90.721 44.718 90.721 44.6152 90.6696 44.6666Z" fill="#14213D"/>
<path d="M102.903 53.4046C102.594 50.1664 101.412 46.8768 98.2254 45.5404C102.286 47.4936 102.697 52.2738 102.749 56.283C102.8 60.4464 102.646 64.6612 102.389 68.8246C102.132 72.8338 101.772 76.8944 101.155 80.8522C100.487 85.1184 99.1506 89.0762 96.118 92.263C96.0666 92.3144 96.118 92.4172 96.2208 92.3658C99.0992 89.8472 100.487 85.9922 101.207 82.3428C102.132 77.5112 102.492 72.5254 102.8 67.591C103.057 62.9136 103.314 58.082 102.903 53.4046Z" fill="#14213D"/>
<path d="M90.4126 67.2826C90.6182 67.7966 93.5994 70.932 96.0152 70.5208C96.7862 70.3666 96.2208 66.049 96.2208 66.049L96.2722 65.7406L96.6834 61.1146L90.978 58.3904L90.1556 58.0306C90.1556 58.0306 90.1042 59.3156 90.1042 60.909C90.1042 60.9604 90.1042 61.0632 90.1042 61.1146C90.1042 61.2174 90.1042 61.2688 90.1042 61.3716C90.1042 61.6286 90.1042 61.8342 90.1042 62.0912C90.1042 62.2968 90.1042 62.451 90.1042 62.6566C90.1042 62.8622 90.1042 63.0164 90.1042 63.222C90.1556 65.0724 90.3612 67.0256 90.4126 67.2826Z" fill="#EB9481"/>
<path d="M90.1042 60.8576C91.8518 64.25 94.8844 65.3294 96.2722 65.6892L96.6834 61.0632L90.978 58.339L90.1556 57.9792C90.1556 57.9792 90.1042 59.2642 90.1042 60.8576Z" fill="#14213D"/>
<path d="M102.594 54.227C103.263 62.3482 98.431 63.6332 96.6834 63.7874C95.09 63.8902 89.6416 64.1472 88.2024 56.1288C86.7118 48.1104 90.3098 45.232 93.9078 44.7694C97.5058 44.3068 101.926 46.1058 102.594 54.227Z" fill="#EB9481"/>
<path d="M101.207 52.4794C101.001 52.4794 100.847 52.428 100.641 52.3766C100.436 52.3252 100.281 52.3252 100.076 52.171C99.973 52.0682 99.973 51.914 100.076 51.8112C100.23 51.6056 100.538 51.6056 100.795 51.657C101.052 51.7084 101.258 51.8112 101.464 52.0168C101.669 52.2224 101.464 52.5308 101.207 52.4794Z" fill="#14213D"/>
<path d="M95.8096 52.6336C96.0152 52.6336 96.1694 52.5308 96.375 52.5308C96.5806 52.4794 96.7348 52.4794 96.889 52.3252C96.9918 52.2224 96.9404 52.0682 96.889 51.9654C96.6834 51.7598 96.4264 51.7598 96.1694 51.8112C95.9124 51.8626 95.7068 51.9654 95.5012 52.171C95.347 52.3252 95.5526 52.6336 95.8096 52.6336Z" fill="#14213D"/>
<path d="M97.0946 54.6896C97.0432 54.6896 97.0946 54.6382 97.0946 54.6896C97.0946 55.3064 97.0432 55.9232 96.5292 56.1288V56.1802C97.146 56.026 97.1974 55.2036 97.0946 54.6896Z" fill="#14213D"/>
<path d="M96.5806 54.1242C95.7068 54.0728 95.6554 55.8718 96.5292 55.9232C97.3002 55.9232 97.3002 54.1242 96.5806 54.1242Z" fill="#14213D"/>
<path d="M96.2208 54.1756C96.0666 54.2784 95.9124 54.4326 95.7068 54.484C95.5012 54.484 95.347 54.3298 95.1928 54.1242H95.1414C95.1414 54.484 95.2442 54.8438 95.6554 54.8952C96.0152 54.9466 96.2208 54.6382 96.3236 54.2784C96.3236 54.227 96.2722 54.1756 96.2208 54.1756Z" fill="#14213D"/>
<path d="M100.179 54.5354C100.179 55.1522 100.281 55.769 100.744 55.9746V56.026C100.127 55.9232 100.024 55.0494 100.179 54.5354Z" fill="#14213D"/>
<path d="M100.641 53.97C101.515 53.9186 101.566 55.7176 100.744 55.769C99.973 55.8204 99.9216 54.0214 100.641 53.97Z" fill="#14213D"/>
<path d="M101.052 54.0728C101.207 54.1756 101.361 54.3298 101.515 54.3298C101.721 54.3298 101.875 54.1242 101.978 53.97H102.029C102.029 54.3298 101.926 54.6896 101.618 54.741C101.309 54.7924 101.104 54.5354 101.001 54.1756C100.95 54.1242 101.001 54.0214 101.052 54.0728Z" fill="#14213D"/>
<path d="M97.0432 59.0586C97.146 59.2128 97.3002 59.367 97.5058 59.4184C97.7114 59.4698 97.917 59.367 98.1226 59.3156C98.1226 59.3156 98.174 59.3156 98.1226 59.367C97.9684 59.5726 97.66 59.6754 97.403 59.624C97.146 59.5726 97.0432 59.367 96.9918 59.11C96.9918 59.0586 96.9918 59.0586 97.0432 59.0586Z" fill="#14213D"/>
<path d="M99.3562 57.054C99.3562 57.054 99.459 57.8764 99.459 58.2876C99.459 58.339 99.3562 58.339 99.2534 58.339C98.5852 58.4418 97.8656 58.2362 97.4544 57.6708C97.403 57.6194 97.4544 57.568 97.5058 57.6194C98.0198 57.9792 98.5852 58.082 99.202 58.082C99.2534 57.9792 98.945 56.6942 98.9964 56.6428C99.202 56.6428 99.6132 56.7456 99.8702 56.8484C99.6646 55.1008 99.202 53.4046 99.0478 51.7084C99.0478 51.657 99.1506 51.6056 99.1506 51.657C99.7674 53.4046 100.024 55.3578 100.281 57.1568C100.333 57.4138 99.5104 57.1054 99.3562 57.054Z" fill="#14213D"/>
<path d="M99.973 55.1008C99.8702 53.7644 100.436 52.6336 101.361 52.5308C102.235 52.428 103.057 53.456 103.16 54.7924C103.263 56.1288 102.697 57.2596 101.772 57.3624C100.898 57.4138 100.076 56.3858 99.973 55.1008ZM100.281 55.0494C100.384 56.1802 101.052 57.054 101.721 57.0026C102.44 56.9512 102.903 55.9746 102.8 54.7924C102.697 53.6616 102.029 52.7878 101.361 52.8392C100.693 52.942 100.179 53.9186 100.281 55.0494Z" fill="#14213D"/>
<path d="M93.9592 55.6662C93.8564 54.3298 94.7302 53.1476 95.9638 53.0448C97.1974 52.942 98.3282 53.9186 98.431 55.255C98.5338 56.5914 97.66 57.7736 96.4264 57.8764C95.1928 57.9792 94.062 57.0026 93.9592 55.6662ZM94.2676 55.6148C94.3704 56.7456 95.347 57.6194 96.375 57.5166C97.4544 57.4138 98.2254 56.3858 98.1226 55.255C98.0198 54.1242 97.0432 53.2504 96.0152 53.3532C94.9358 53.456 94.1648 54.484 94.2676 55.6148Z" fill="#14213D"/>
<path d="M98.2768 55.0494C99.459 54.5354 100.024 54.8438 100.024 54.8438L100.179 54.5868C100.127 54.5868 99.459 54.1242 98.1226 54.741L98.2768 55.0494Z" fill="#14213D"/>
<path d="M94.062 55.4092L94.1134 55.1008C93.9078 55.1008 88.922 54.6382 88.3566 54.6382C87.7912 54.6382 86.5576 55.512 86.4034 55.6148L86.609 55.8718C86.9688 55.6148 87.9454 54.998 88.3566 54.9466C88.8192 54.998 92.3144 55.255 94.062 55.4092Z" fill="#14213D"/>
<path d="M88.408 55.5634C89.2818 55.512 91.5948 53.0962 91.6462 48.83C91.6462 48.83 91.3378 52.6336 91.0294 53.199C90.721 53.7644 92.3144 51.8112 92.4172 48.4188C92.4172 48.4188 94.319 49.8066 95.9638 50.2692C97.6086 50.7318 98.5852 50.7318 98.688 50.5776C98.7908 50.4748 96.4264 49.7038 95.7582 48.9842C95.7582 48.9842 100.076 50.9888 102.08 51.143C102.286 51.143 102.594 46.4142 99.5104 44.4096C96.4264 42.405 91.5434 44.5638 90.2584 45.8488C90.2584 45.8488 88.7164 46.0544 87.0716 48.3674C85.3754 50.5776 87.4828 55.6148 88.408 55.5634Z" fill="#14213D"/>
<path d="M89.5388 56.6428C89.5388 56.6428 87.7912 54.0728 86.609 54.6896C85.4268 55.3064 86.7632 59.0072 88.0996 59.5212C89.436 60.0352 89.95 58.8016 89.95 58.8016L89.5388 56.6428Z" fill="#EB9481"/>
<path d="M87.0202 55.769C86.9688 55.769 86.9688 55.8204 87.0202 55.769C87.9454 56.1802 88.4594 57.1054 88.8192 57.9792C88.5622 57.6194 88.151 57.4138 87.6884 57.7736V57.825C88.0996 57.7222 88.3566 57.825 88.6136 58.1334C88.8192 58.339 88.922 58.6474 89.0762 58.9044C89.1276 59.0072 89.2818 58.9558 89.2304 58.853C89.2304 57.6194 88.3052 55.9232 87.0202 55.769Z" fill="#14213D"/>
<path d="M89.2304 59.367C89.2304 59.6754 88.9734 59.9838 88.6136 59.9838C88.3052 59.9838 87.9968 59.7268 87.9968 59.367C87.9968 59.0586 88.2538 58.7502 88.6136 58.7502C88.9734 58.8016 89.2304 59.0586 89.2304 59.367Z" fill="white"/>
<path d="M107.426 108.248C107.426 108.248 80.0298 108.66 73.245 108.197C73.245 108.197 78.7962 76.7916 86.095 68.876C86.4034 68.5676 86.6604 68.3106 86.9688 68.0536C87.4314 67.6938 87.38 64.6612 87.5856 64.4556C87.7912 64.25 96.6834 65.3808 96.7862 65.5864C96.889 65.792 97.3516 68.619 97.3516 68.619C99.3562 71.189 105.833 80.0812 106.604 83.7306C107.375 87.38 104.959 91.4406 104.959 91.4406L107.426 108.248Z" fill="#A0C4FF"/>
<path d="M83.9876 74.4786C82.3942 82.2914 83.3194 99.202 87.0716 102.235C93.2396 107.272 108.043 108.762 112.206 109.225C114.005 109.431 117.552 97.7628 116.37 96.2722C115.187 94.7816 96.9404 92.4172 96.0666 91.6462C95.4498 91.0808 92.6228 80.9036 90.207 75.1468C86.866 67.3854 84.6044 71.6002 83.9876 74.4786Z" fill="#EB9481"/>
<path d="M113.234 95.2956C113.234 95.2956 118.683 95.2442 122.281 95.3984C124.285 95.4498 127.678 95.9124 129.117 96.632C131.276 97.7114 139.602 103.622 138.215 105.678C136.981 107.529 134.462 105.113 134.462 105.113C134.462 105.113 137.444 107.529 135.593 108.968C133.743 110.459 130.864 106.963 130.864 106.963C130.864 106.963 134.205 109.328 132.098 110.664C130.299 111.846 126.495 108.197 126.495 108.197C126.495 108.197 130.248 110.253 128.5 111.692C126.598 113.234 120.173 108.454 120.173 108.454C115.599 109.482 112.72 109.482 109.379 108.917C108.814 108.814 113.234 95.2956 113.234 95.2956Z" fill="#EB9481"/>
<path d="M131.79 107.734C131.533 107.477 131.276 107.22 131.07 106.963C130.607 106.449 130.145 105.935 129.579 105.473C129.065 105.01 128.551 104.599 127.986 104.188C127.421 103.777 126.804 103.365 126.238 102.954C126.187 102.903 126.136 103.006 126.187 103.006C126.752 103.417 127.266 103.931 127.78 104.393C128.294 104.856 128.808 105.319 129.322 105.781C129.836 106.244 130.35 106.655 130.864 107.118C131.121 107.323 131.378 107.58 131.635 107.786C131.841 107.991 132.098 108.248 132.355 108.454C132.406 108.454 132.406 108.454 132.406 108.403C132.252 108.197 131.995 107.991 131.79 107.734Z" fill="#14213D"/>
<path d="M135.131 105.627C134.822 105.113 132.972 103.263 132.458 102.8C131.481 101.926 130.453 101.155 129.322 100.538C129.271 100.538 129.22 100.59 129.271 100.59C130.248 101.464 131.224 102.286 132.201 103.16C132.663 103.571 134.771 105.524 135.028 105.73C135.079 105.73 135.131 105.678 135.131 105.627Z" fill="#14213D"/>
<path d="M128.757 109.842C128.449 109.379 126.701 107.632 126.187 107.272C125.724 106.912 123.668 105.576 123.052 105.267C123 105.267 122.949 105.319 123 105.319C123.977 106.038 125.005 106.758 125.981 107.58C126.444 107.94 128.243 109.585 128.706 109.945C128.757 109.945 128.808 109.893 128.757 109.842Z" fill="#14213D"/>
<path d="M108.146 109.688L114.673 94.4732C114.673 94.4732 96.7862 91.492 96.2722 91.1322C95.7068 90.7724 92.4686 78.899 90.3612 74.273C88.2538 69.5956 84.6558 66.8714 83.268 76.8944C81.8802 86.9174 83.8848 99.0992 85.8894 101.618C88.3052 104.753 97.9684 108.608 108.146 109.688Z" fill="#A0C4FF"/>
<path d="M98.945 107.786C96.2722 107.066 93.6508 105.781 91.1322 104.753C88.922 103.828 86.7118 102.697 85.4782 100.538C84.8614 99.459 84.553 98.2768 84.296 97.0432C84.039 95.7068 83.782 94.319 83.5764 92.9312C83.3194 91.3378 83.1138 89.7958 82.9596 88.2024C82.8568 87.38 82.754 86.5576 82.7026 85.7866C82.5998 84.9642 82.4456 84.1418 82.4456 83.3194C82.4456 83.268 82.3428 83.268 82.3428 83.3194C82.3942 84.0904 82.3428 84.81 82.3942 85.581C82.3942 86.095 82.4456 86.5576 82.497 87.0716C82.4456 86.9688 82.3942 86.866 82.3428 86.7632C82.1886 86.4034 82.0858 86.0436 81.983 85.6324C81.983 85.581 81.8802 85.581 81.9316 85.6324C82.0344 86.0436 82.1372 86.4034 82.24 86.7632C82.2914 86.9688 82.3428 87.123 82.4456 87.3286C82.497 87.4314 82.5484 87.5856 82.5998 87.6884C82.7026 89.179 82.9082 90.6182 83.0624 92.1088C83.268 93.548 83.4736 94.9358 83.7306 96.3236C83.9362 97.5572 84.1932 98.7908 84.7072 99.973C85.1698 101.104 85.8894 102.029 86.8146 102.851C87.7398 103.622 88.8192 104.239 89.8986 104.753C92.3658 105.935 94.9872 106.861 97.66 107.632C100.744 108.608 101.721 108.557 98.945 107.786Z" fill="#14213D"/>
<path d="M105.627 92.9312C104.959 92.8284 97.1974 91.235 96.889 91.1322C96.5292 91.0294 96.375 90.8238 96.2722 90.464C96.0152 89.8472 95.8096 89.179 95.604 88.5622C95.1928 87.4828 94.833 86.4034 94.4218 85.324C94.4218 85.067 94.3704 84.81 94.3704 84.6044C94.319 84.296 94.2676 84.039 94.2676 83.7306C94.1648 83.1138 93.9592 82.497 93.9078 81.8802C93.9078 81.8288 93.805 81.8288 93.805 81.8802C94.0106 82.497 94.0106 83.1138 94.062 83.7306C94.062 83.9876 94.1134 84.2446 94.1134 84.4502C93.8564 83.8334 93.6508 83.1652 93.3938 82.5484C93.0854 81.8288 92.777 81.0578 92.52 80.3382C92.52 80.2868 92.4172 80.3382 92.4686 80.3382C92.7256 81.0064 92.9312 81.726 93.1368 82.3942C93.3424 83.1138 93.5994 83.782 93.805 84.4502C94.2676 85.838 94.7302 87.1744 95.1928 88.5108C95.3984 89.179 95.6554 89.8472 95.861 90.464C96.0666 90.978 96.3236 91.2864 96.889 91.4406C98.2254 91.8004 104.856 92.8798 105.627 92.9312C105.73 93.0854 105.73 92.9312 105.627 92.9312Z" fill="#14213D"/>
<path d="M111.332 94.7302C110.304 96.9404 109.276 99.0992 108.351 101.309C107.426 103.52 106.552 105.73 105.884 108.043C105.884 108.094 105.935 108.094 105.935 108.094C106.963 105.935 107.889 103.725 108.762 101.515C109.688 99.3048 110.51 97.0432 111.435 94.833C111.487 94.7302 111.384 94.6274 111.332 94.7302Z" fill="#14213D"/>
<path d="M130.556 92.9826C129.785 93.4452 125.262 92.1602 123.463 93.548C122.229 94.4732 121.047 96.632 120.79 99.459C120.533 102.389 122.846 102.235 123.72 101.001C125.159 98.8422 126.444 95.861 126.444 95.861C127.575 96.0666 128.86 96.5292 128.86 96.5292L130.556 92.9826Z" fill="#AD6359"/>
<path d="M125.056 103.263C123.668 101.823 116.729 107.169 118.888 109.585C121.098 112.001 126.598 104.907 125.056 103.263Z" fill="#AD6359"/>
<path d="M127.369 105.319C125.981 103.879 119.042 109.225 121.201 111.641C123.36 114.057 128.911 107.015 127.369 105.319Z" fill="#AD6359"/>
<path d="M129.168 106.09C127.678 104.959 122.126 110.767 124.439 112.669C126.804 114.571 130.864 107.375 129.168 106.09Z" fill="#AD6359"/>
<path d="M131.173 106.398C129.477 105.781 125.93 112.72 128.654 113.851C131.378 114.93 133.075 107.118 131.173 106.398Z" fill="#AD6359"/>
<path d="M124.851 105.627C124.439 105.884 124.131 106.192 123.771 106.501C123.411 106.809 123.052 107.169 122.692 107.529C122.383 107.889 122.024 108.248 121.767 108.608C121.458 109.019 121.201 109.482 120.893 109.842C120.841 109.893 120.944 109.945 120.944 109.893C121.201 109.482 121.612 109.122 121.921 108.814C122.281 108.454 122.589 108.094 122.897 107.734C123.206 107.375 123.514 107.015 123.874 106.706C124.234 106.347 124.594 106.038 124.902 105.678L124.851 105.627Z" fill="#14213D"/>
<path d="M127.575 106.295C127.266 106.758 126.238 108.505 125.93 108.968C125.622 109.431 125.262 109.842 124.953 110.304C124.594 110.767 124.285 111.23 123.925 111.641C123.874 111.692 123.925 111.744 123.977 111.692C124.388 111.281 124.799 110.921 125.159 110.459C125.519 110.047 125.879 109.585 126.187 109.122C126.495 108.66 127.523 106.809 127.729 106.295C127.678 106.295 127.626 106.244 127.575 106.295Z" fill="#14213D"/>
<path d="M129.528 107.323C129.22 107.991 128.963 108.711 128.654 109.379C128.5 109.739 128.346 110.047 128.192 110.407C128.14 110.561 128.037 110.716 127.986 110.921C127.883 111.075 127.832 111.332 127.729 111.487C127.678 111.538 127.78 111.589 127.78 111.538C127.883 111.332 128.037 111.127 128.14 110.973C128.243 110.818 128.346 110.664 128.397 110.51C128.551 110.202 128.706 109.842 128.86 109.533C129.168 108.865 129.425 108.146 129.631 107.477C129.682 107.272 129.579 107.272 129.528 107.323Z" fill="#14213D"/>
<path d="M134.051 48.8814C133.332 55.8718 127.061 60.9604 120.07 60.2408C117.243 59.9324 114.725 58.7502 112.772 56.9512L106.398 57.8764L109.585 52.3766C108.814 50.4748 108.505 48.4188 108.711 46.26C109.431 39.2696 115.701 34.181 122.692 34.9006C129.734 35.6202 134.771 41.891 134.051 48.8814Z" fill="white"/>
<path d="M134.051 48.8814C133.794 51.1944 132.92 53.5074 131.481 55.3578C131.121 55.8204 130.71 56.2316 130.35 56.6942C129.888 57.1054 129.477 57.5166 129.014 57.825C128.089 58.5446 127.009 59.11 125.93 59.5212C124.851 59.9838 123.668 60.1894 122.486 60.3436C121.921 60.395 121.304 60.4464 120.739 60.395C120.122 60.395 119.556 60.3436 118.991 60.1894C116.678 59.7782 114.468 58.6988 112.669 57.054L112.823 57.1054L106.449 58.082L105.987 58.1334L106.244 57.7222L109.431 52.2224V52.428C107.889 48.7786 108.248 44.461 110.202 41.0686C111.178 39.3724 112.566 37.9332 114.211 36.8024C115.856 35.723 117.706 35.0034 119.659 34.7464C121.612 34.4894 123.566 34.6436 125.416 35.2604C127.266 35.8772 128.963 36.9052 130.35 38.293C133.075 41.0172 134.462 45.0264 134.051 48.8814ZM134.051 48.8814C134.462 45.0264 132.972 41.0686 130.196 38.3958C128.808 37.0594 127.112 36.0828 125.262 35.5174C123.411 34.952 121.458 34.7978 119.608 35.1062C117.706 35.4146 115.907 36.0828 114.365 37.1622C112.823 38.2416 111.487 39.6808 110.561 41.3256C109.585 42.9704 109.071 44.8208 108.968 46.7226C108.865 48.6244 109.174 50.5262 109.842 52.2738L109.893 52.3766L109.842 52.4794L106.655 57.9792L106.449 57.6194L112.823 56.7456H112.926L112.977 56.797C114.673 58.3904 116.781 59.4698 119.094 59.9324C119.659 60.0352 120.225 60.138 120.841 60.138C121.407 60.1894 122.024 60.138 122.589 60.138C123.72 60.0352 124.902 59.8296 125.981 59.367C127.061 58.9558 128.14 58.4418 129.065 57.7222C129.579 57.4138 129.991 57.0026 130.402 56.5914C130.813 56.1802 131.224 55.769 131.584 55.255C132.92 53.456 133.794 51.1944 134.051 48.8814Z" fill="#14213D"/>
<path d="M119.916 54.8438L114.468 49.2926L116.267 47.4936L119.454 50.7318L126.084 40.349L128.243 41.7368L119.916 54.8438Z" fill="#A0C4FF"/>
</svg>
