<svg width="28" height="28" viewBox="0 0 28 28" fill="none" xmlns="http://www.w3.org/2000/svg">
<path d="M25.6123 6.88505C26.6277 5.86941 27.2812 4.58296 27.5024 3.16308C27.616 2.43118 27.3813 1.71167 26.8573 1.18808C26.3339 0.664491 25.6134 0.430284 24.884 0.544009C23.465 0.765268 22.1783 1.41835 21.163 2.43399L18.0228 5.57496L16.1429 5.16566C16.4637 4.67867 16.4102 4.01545 15.9825 3.58701C15.4928 3.09833 14.6975 3.09777 14.2078 3.58701L13.2583 4.53679L11.0305 4.05149L11.1858 3.8961C11.675 3.40685 11.6744 2.61021 11.1858 2.12153C10.7136 1.64749 9.88677 1.64692 9.41173 2.12153L8.11717 3.41642L3.50628 2.41204C3.14381 2.33265 2.76951 2.443 2.50553 2.70592L1.57739 3.6343C1.33367 3.87808 1.2211 4.21419 1.26951 4.55593C1.31791 4.89767 1.51885 5.1893 1.8211 5.35651L12.6498 11.3401L7.1682 17.3394L1.60103 17.6355L0.73874 18.4974C0.554124 18.6827 0.476451 18.9467 0.531047 19.2029C0.586207 19.459 0.764631 19.6674 1.00891 19.7603L6.27889 21.7735L8.29221 27.0454C8.38565 27.2898 8.5939 27.4688 8.85 27.5234C8.90403 27.5347 8.95863 27.5403 9.0121 27.5403C9.2136 27.5403 9.40835 27.4609 9.55525 27.3146L10.4164 26.4532L10.7125 20.884L16.7102 15.401L22.6883 26.2285C22.8549 26.5309 23.1464 26.7319 23.4881 26.7803C23.8297 26.8276 24.1658 26.7161 24.4095 26.4723L25.3382 25.5439C25.601 25.281 25.7108 24.9072 25.632 24.5435L24.6296 19.9359L25.9258 18.6399C26.1628 18.4029 26.2933 18.0876 26.2933 17.752C26.2933 17.4165 26.1628 17.1012 25.9258 16.8642C25.4361 16.3755 24.6408 16.3749 24.1511 16.8642L23.9952 17.0201L23.5106 14.7918L24.4607 13.8415C24.6977 13.6044 24.8282 13.2892 24.8282 12.9536C24.8282 12.6181 24.6977 12.3028 24.4613 12.0663C24.0476 11.6525 23.3648 11.6002 22.883 11.9081L22.4733 10.0249L25.6134 6.88393L25.6123 6.88505Z" fill="black"/>
</svg>
