<svg width="25" height="25" viewBox="0 0 25 25" fill="none" xmlns="http://www.w3.org/2000/svg">
<path fill-rule="evenodd" clip-rule="evenodd" d="M4.20716 11.6771C3.8078 11.7321 3.5 12.0795 3.5 12.4999C3.5 12.9585 3.86631 13.3302 4.31818 13.3302H18.6999L13.5047 18.5813L13.4253 18.6743C13.187 18.9989 13.2124 19.4602 13.5023 19.7556C13.8212 20.0805 14.3392 20.0816 14.6594 19.758L21.2477 13.0996C21.287 13.0614 21.3224 13.0194 21.3536 12.974C21.5766 12.6498 21.5452 12.1999 21.2593 11.9111L14.6593 5.24193L14.5674 5.16174C14.2466 4.92125 13.7921 4.94905 13.5023 5.24446C13.1834 5.56942 13.1845 6.09515 13.5047 6.41871L18.7012 11.6696L4.31818 11.6696L4.20716 11.6771Z" fill="#0044B1"/>
</svg>
