<svg width="37" height="26" viewBox="0 0 37 26" fill="none" xmlns="http://www.w3.org/2000/svg">
<path d="M29.901 12.9505C29.0344 12.9505 28.0996 13.1617 27.3068 13.5206L26.344 12.0845C27.713 11.2919 29.2919 10.8393 30.9564 10.8393C31.5397 10.8393 32.0117 10.3671 32.0117 9.78367V7.67243C32.0117 3.59836 28.6973 0.283081 24.6243 0.283081H22.5136C21.9303 0.283081 21.4582 0.755225 21.4582 1.3387C21.4582 1.92218 21.9303 2.39432 22.5136 2.39432H23.5689V4.50556H20.4029C20.0504 4.50556 19.7206 4.68185 19.5248 4.97567L18.4309 6.61681H9.56953L9.03982 5.82199C8.49055 4.99727 7.5712 4.50556 6.58185 4.50556H1.26592C0.682593 4.50556 0.210571 4.97771 0.210571 5.56118C0.210571 8.27343 2.26667 10.5146 4.90089 10.8073L6.34313 12.9708C2.94568 13.0791 0.210571 15.86 0.210571 19.2843C0.210571 22.7769 3.05093 25.618 6.54266 25.618C9.24315 25.618 11.614 23.8835 12.4973 21.3955H18.8456C20.2493 21.3955 21.4685 20.3955 21.7427 19.0193L21.8921 18.2719C22.2808 16.3289 23.2912 14.6492 24.6629 13.3656L25.557 14.6992C24.2766 15.9133 23.5689 17.5918 23.5689 19.2843C23.5689 22.6922 26.4335 25.618 29.901 25.618C33.3927 25.618 36.2331 22.7769 36.2331 19.2843C36.2331 15.7916 33.3927 12.9505 29.901 12.9505ZM6.54266 21.3885H10.191C9.45091 22.6603 8.07594 23.5067 6.54266 23.5067C4.21449 23.5067 2.32127 21.613 2.32127 19.2843C2.32127 16.9555 4.21449 15.0618 6.54266 15.0618C7.01172 15.0618 7.46299 15.1547 7.89807 15.3032L8.26688 15.8566C8.81616 16.6813 9.7355 17.173 10.7249 17.173H6.54266C5.37692 17.173 4.43196 18.1182 4.43196 19.2843C4.43196 20.4503 5.37692 21.3885 6.54266 21.3885ZM29.901 23.5067C27.6144 23.5067 25.6796 21.5857 25.6796 19.2843C25.6796 18.3085 26.0213 17.3351 26.7629 16.4979L29.0249 19.8719C29.346 20.3528 30.0032 20.4878 30.4884 20.1606C30.9728 19.8359 31.1016 19.1802 30.777 18.6967L28.5143 15.3219C29.0236 15.1436 29.3637 15.0618 29.901 15.0618C32.2292 15.0618 34.1224 16.9555 34.1224 19.2843C34.1224 21.613 32.2292 23.5067 29.901 23.5067Z" fill="black"/>
</svg>
