<svg width="28" height="30" viewBox="0 0 28 30" fill="none" xmlns="http://www.w3.org/2000/svg">
<path d="M26.0912 7.3985C25.8506 5.04589 25.4673 3.21413 24.861 2.49414C22.3611 -0.466244 4.84983 -0.682889 2.86162 2.49414C2.37526 3.27251 2.03417 5.09778 1.80526 7.4024C1.06665 7.48931 0.491455 8.11136 0.491455 8.87286V11.7548C0.491455 12.3956 0.897398 12.9359 1.46416 13.1467C1.32993 17.6859 1.43887 22.4216 1.6399 24.7768C1.6399 26.595 2.86097 26.2934 2.86097 26.2934H4.00552V28.2561C4.00552 29.0345 4.80768 29.6643 5.79595 29.6643C6.78552 29.6643 7.58768 29.0345 7.58768 28.2561V26.2934H20.9034V28.2561C20.9034 29.0345 21.7049 29.6643 22.6945 29.6643C23.6827 29.6643 24.4849 29.0345 24.4849 28.2561V26.2934H24.861C24.861 26.2934 26.298 26.4905 26.3901 25.6343C26.3901 23.2856 26.5379 18.0803 26.416 13.1669C27.0185 12.9781 27.4581 12.4229 27.4581 11.7548V8.87286C27.4588 8.0932 26.8557 7.46077 26.0912 7.3985ZM7.13828 2.91641H20.5843V4.95119H7.13828V2.91641ZM7.33023 23.9758C6.27452 23.9758 5.41919 23.1196 5.41919 22.0636C5.41919 21.0082 6.27452 20.1527 7.33023 20.1527C8.38594 20.1527 9.24192 21.0082 9.24192 22.0636C9.24192 23.1196 8.38659 23.9758 7.33023 23.9758ZM20.5124 23.9758C19.4573 23.9758 18.6 23.1196 18.6 22.0636C18.6 21.0082 19.4566 20.1527 20.5124 20.1527C21.5681 20.1527 22.4234 21.0082 22.4234 22.0636C22.424 23.1196 21.5681 23.9758 20.5124 23.9758ZM22.9422 15.6083H4.78044V6.07982H22.9422V15.6083Z" fill="black"/>
</svg>
