<svg width="37" height="26" viewBox="0 0 37 26" fill="none" xmlns="http://www.w3.org/2000/svg">
<path d="M35.9322 8.16898C35.7561 7.95402 35.4932 7.82854 35.2174 7.82854H31.7115C30.8464 5.54599 29.7193 3.30956 28.4381 2.46537C24.0062 -0.451022 12.2508 -0.451022 7.81888 2.46537C6.53681 3.31049 5.41431 5.54968 4.54453 7.82854H1.03866C0.760111 7.82854 0.498163 7.95402 0.323838 8.16898C0.148591 8.38303 0.0784917 8.66628 0.135678 8.93845L0.654963 11.4553C0.743509 11.8844 1.12167 12.1907 1.55795 12.1907H2.59652C1.59392 13.3476 1.10784 14.8044 1.10138 16.2622C1.09493 18.0631 1.77839 19.6906 3.02818 20.842C3.04201 20.854 3.05585 20.8623 3.06876 20.8743V24.396C3.06876 25.159 3.68858 25.7799 4.45229 25.7799H7.68607C8.44977 25.7799 9.0696 25.159 9.0696 24.396V22.9807H27.1855V24.396C27.1855 25.159 27.8054 25.7799 28.5691 25.7799H31.8029C32.5647 25.7799 33.1864 25.159 33.1864 24.396V20.9435C34.5127 19.7284 35.1464 18.0567 35.1547 16.3877C35.1602 14.8801 34.652 13.3698 33.5904 12.1888H34.6981C35.1362 12.1888 35.5144 11.8825 35.6011 11.4526L36.1213 8.9366C36.1748 8.66628 36.1075 8.38488 35.9322 8.16898ZM9.338 4.77652C12.8706 2.45061 23.3845 2.45061 26.9153 4.77652C27.6015 5.22676 28.4842 7.04708 29.2931 9.27612H6.96202C7.76908 7.04801 8.65177 5.22861 9.338 4.77652ZM5.20032 16.6091C5.20032 15.1052 6.41967 13.8874 7.92219 13.8874C9.42655 13.8874 10.6441 15.1052 10.6441 16.6091C10.6441 18.1129 9.42655 19.3317 7.92219 19.3317C6.41967 19.3317 5.20032 18.1129 5.20032 16.6091ZM28.3689 19.3317C26.8664 19.3317 25.6471 18.1129 25.6471 16.6091C25.6471 15.1052 26.8664 13.8874 28.3689 13.8874C29.8733 13.8874 31.0908 15.1052 31.0908 16.6091C31.0908 18.1129 29.8714 19.3317 28.3689 19.3317Z" fill="#010101"/>
</svg>
