<svg width="20" height="20" viewBox="0 0 20 20" fill="none" xmlns="http://www.w3.org/2000/svg">
<path d="M4.56666 15.4085V12.9752C4.56666 12.1668 5.19999 11.4418 6.09999 11.4418C6.90832 11.4418 7.63332 12.0752 7.63332 12.9752V15.3168C7.63332 16.9418 6.28331 18.2918 4.65831 18.2918C3.03331 18.2918 1.68331 16.9335 1.68331 15.3168V10.1835C1.59164 5.50015 5.29165 1.7085 9.97499 1.7085C14.6583 1.7085 18.35 5.50016 18.35 10.0918V15.2252C18.35 16.8502 17 18.2002 15.375 18.2002C13.75 18.2002 12.4 16.8502 12.4 15.2252V12.8835C12.4 12.0752 13.0333 11.3502 13.9333 11.3502C14.7417 11.3502 15.4666 11.9835 15.4666 12.8835V15.4085" stroke="#009C48" stroke-width="1.5" stroke-linecap="round" stroke-linejoin="round"/>
</svg>
