<svg width="18" height="19" viewBox="0 0 18 19" fill="none" xmlns="http://www.w3.org/2000/svg">
<path d="M15.75 4.98535C13.2525 4.73785 10.74 4.61035 8.235 4.61035C6.75 4.61035 5.265 4.68535 3.78 4.83535L2.25 4.98535" stroke="#FF4040" stroke-width="1.3" stroke-linecap="round" stroke-linejoin="round"/>
<path d="M6.375 4.2275L6.54 3.245C6.66 2.5325 6.75 2 8.0175 2H9.9825C11.25 2 11.3475 2.5625 11.46 3.2525L11.625 4.2275" stroke="#FF4040" stroke-width="1.3" stroke-linecap="round" stroke-linejoin="round"/>
<path d="M14.1375 7.35474L13.65 14.9072C13.5675 16.0847 13.5 16.9997 11.4075 16.9997H6.59249C4.49999 16.9997 4.43249 16.0847 4.34999 14.9072L3.86249 7.35474" stroke="#FF4040" stroke-width="1.3" stroke-linecap="round" stroke-linejoin="round"/>
<path d="M7.7475 12.875H10.245" stroke="#FF4040" stroke-width="1.3" stroke-linecap="round" stroke-linejoin="round"/>
<path d="M7.125 9.875H10.875" stroke="#FF4040" stroke-width="1.3" stroke-linecap="round" stroke-linejoin="round"/>
</svg>
