<svg width="64" height="63" viewBox="0 0 64 63" fill="none" xmlns="http://www.w3.org/2000/svg">
<g clip-path="url(#clip0_322_400)">
<path d="M63.377 31.5C63.377 37.7177 61.5313 43.7643 58.0398 48.9866C57.5654 49.6965 56.7858 50.0801 55.9918 50.0801C55.5217 50.0801 55.0463 49.946 54.6262 49.6648C53.4962 48.9097 53.1929 47.3812 53.948 46.2512C56.8968 41.8412 58.4551 36.7406 58.4551 31.5C58.4551 29.2482 58.1734 27.0117 57.6178 24.8536C57.2789 23.5375 58.0715 22.1955 59.3876 21.8567C60.7046 21.5183 62.0456 22.3104 62.3844 23.6265C63.0429 26.1854 63.377 28.8343 63.377 31.5ZM45.6255 54.2507C41.4919 56.7544 36.7378 58.0781 31.877 58.0781C17.2219 58.0781 5.29883 46.1551 5.29883 31.5C5.29883 16.8449 17.2219 4.92188 31.877 4.92188C37.303 4.92188 42.5205 6.54552 46.9661 9.61737C48.0841 10.3898 49.6169 10.1096 50.3898 8.99156C51.1622 7.87356 50.8824 6.34076 49.764 5.56787C44.4922 1.92549 38.3071 0 31.877 0C23.4632 0 15.5526 3.27661 9.60307 9.22612C3.65356 15.1756 0.376953 23.0862 0.376953 31.5C0.376953 39.9138 3.65356 47.8244 9.60307 53.7739C15.5526 59.7234 23.4632 63 31.877 63C37.6371 63 43.2732 61.4302 48.1759 58.4603C49.3386 57.7561 49.7101 56.243 49.006 55.0803C48.3013 53.9176 46.7882 53.5466 45.6255 54.2507ZM32.1144 38.6358C31.7246 38.6512 31.3607 38.5127 31.0781 38.2436L18.1894 26.023C17.2031 25.0876 15.6453 25.129 14.7105 26.1153C13.7751 27.1016 13.8165 28.6594 14.8028 29.5942L27.689 41.8129C28.8791 42.9443 30.4187 43.5586 32.05 43.5586C32.1375 43.5586 32.225 43.5567 32.3124 43.5533C34.0404 43.4836 35.6275 42.7357 36.7811 41.4471C36.8104 41.4149 36.8383 41.3817 36.8657 41.3476L62.8338 9.04779C63.6856 7.98844 63.5173 6.4393 62.458 5.58806C61.3991 4.73635 59.8495 4.90457 58.9978 5.96393L33.0805 38.2008C32.8258 38.4666 32.4845 38.6209 32.1144 38.6358Z" fill="#009C48"/>
</g>
<defs>
<clipPath id="clip0_322_400">
<rect width="63" height="63" fill="white" transform="translate(0.5)"/>
</clipPath>
</defs>
</svg>
