<svg width="15" height="15" viewBox="0 0 15 15" fill="none" xmlns="http://www.w3.org/2000/svg">
<path d="M6.771 2.36011H2.282C1.94199 2.36011 1.61591 2.49518 1.37549 2.7356C1.13507 2.97602 1 3.3021 1 3.64211V12.6191C1 12.9591 1.13507 13.2852 1.37549 13.5256C1.61591 13.766 1.94199 13.9011 2.282 13.9011H11.259C11.599 13.9011 11.9251 13.766 12.1655 13.5256C12.4059 13.2852 12.541 12.9591 12.541 12.6191V8.13111" stroke="#009C48" stroke-width="1.2" stroke-linecap="round" stroke-linejoin="round"/>
<path d="M11.5807 1.39812C11.8358 1.14311 12.1818 0.999906 12.5425 1C12.9032 1.00009 13.2492 1.14348 13.5042 1.39862C13.7592 1.65376 13.9024 1.99975 13.9023 2.36047C13.9022 2.7212 13.7588 3.06711 13.5037 3.32212L7.41266 9.41312L4.84766 10.0541L5.48866 7.48912L11.5807 1.39812Z" stroke="#009C48" stroke-width="1.2" stroke-linecap="round" stroke-linejoin="round"/>
</svg>
