<svg width="31" height="31" viewBox="0 0 31 31" fill="none" xmlns="http://www.w3.org/2000/svg">
<g clip-path="url(#clip0_1_2461)">
<path d="M26.75 0.5H4.25C2.18187 0.5 0.5 2.18187 0.5 4.25V26.75C0.5 28.8181 2.18187 30.5 4.25 30.5H26.75C28.8181 30.5 30.5 28.8181 30.5 26.75V4.25C30.5 2.18187 28.8181 0.5 26.75 0.5Z" fill="#1976D2"/>
<path d="M25.8125 15.5H21.125V11.75C21.125 10.715 21.965 10.8125 23 10.8125H24.875V6.125H21.125C18.0181 6.125 15.5 8.64313 15.5 11.75V15.5H11.75V20.1875H15.5V30.5H21.125V20.1875H23.9375L25.8125 15.5Z" fill="#FAFAFA"/>
</g>
<defs>
<clipPath id="clip0_1_2461">
<rect width="30" height="30" fill="white" transform="translate(0.5 0.5)"/>
</clipPath>
</defs>
</svg>
