<svg width="31" height="31" viewBox="0 0 31 31" fill="none" xmlns="http://www.w3.org/2000/svg">
<g clip-path="url(#clip0_1_2455)">
<path d="M7.14863 18.6294L6.10438 22.5277L2.28764 22.6085C1.14699 20.4928 0.5 18.0722 0.5 15.5C0.5 13.0126 1.10492 10.667 2.17719 8.60162H2.17801L5.57598 9.22459L7.06449 12.6022C6.75295 13.5104 6.58314 14.4854 6.58314 15.5C6.58326 16.6011 6.78271 17.6561 7.14863 18.6294Z" fill="#FBBB00"/>
<path d="M30.2379 12.6978C30.4102 13.6052 30.5 14.5423 30.5 15.5C30.5 16.5739 30.3871 17.6214 30.172 18.6319C29.4418 22.0704 27.5338 25.0728 24.8907 27.1975L24.8899 27.1967L20.61 26.9783L20.0042 23.197C21.7581 22.1684 23.1287 20.5588 23.8507 18.6319H15.8298V12.6978H23.9677H30.2379Z" fill="#518EF8"/>
<path d="M24.8898 27.1967L24.8907 27.1976C22.3201 29.2638 19.0547 30.5 15.5 30.5C9.78766 30.5 4.82119 27.3072 2.28766 22.6086L7.14865 18.6295C8.41539 22.0102 11.6767 24.4168 15.5 24.4168C17.1434 24.4168 18.683 23.9726 20.0041 23.197L24.8898 27.1967Z" fill="#28B446"/>
<path d="M25.0744 3.95328L20.2151 7.93156C18.8478 7.07691 17.2316 6.5832 15.5 6.5832C11.5901 6.5832 8.26783 9.10021 7.06455 12.6022L2.17801 8.60164H2.17719C4.67363 3.78846 9.70273 0.5 15.5 0.5C19.1395 0.5 22.4766 1.79645 25.0744 3.95328Z" fill="#F14336"/>
</g>
<defs>
<clipPath id="clip0_1_2455">
<rect width="30" height="30" fill="white" transform="translate(0.5 0.5)"/>
</clipPath>
</defs>
</svg>
