<svg width="18" height="24" viewBox="0 0 18 24" fill="none" xmlns="http://www.w3.org/2000/svg">
<path d="M11.7275 4.69091C12.9275 4.69091 13.9093 3.70909 13.9093 2.50909C13.9093 1.30909 12.9275 0.327271 11.7275 0.327271C10.5275 0.327271 9.54568 1.30909 9.54568 2.50909C9.54568 3.70909 10.5275 4.69091 11.7275 4.69091ZM8.23659 17.7818L8.89113 15.0545L11.182 17.2364V22.6909C11.182 23.2364 11.6184 23.7818 12.2729 23.7818C12.9275 23.7818 13.3639 23.2364 13.3639 22.6909V16.5818C13.3639 15.9273 13.1457 15.3818 12.7093 15.0545L11.0729 13.5273L11.7275 10.2545C12.9275 11.5636 14.5639 12.5455 16.5275 12.8727C17.182 12.9818 17.7275 12.4364 17.7275 11.7818C17.7275 11.2364 17.2911 10.8 16.7457 10.6909C15.1093 10.3636 13.6911 9.49091 13.0366 8.18182L11.9457 6.43636C11.5093 5.78182 10.8548 5.34545 10.0911 5.34545C9.76386 5.34545 9.54568 5.45454 9.2184 5.45454L4.85477 7.30909C3.98204 7.52727 3.54568 8.29091 3.54568 9.16363V11.7818C3.54568 12.4364 3.98204 12.8727 4.63659 12.8727C5.29113 12.8727 5.72749 12.4364 5.72749 11.7818V9.16363L7.69113 8.4L5.94568 17.2364L1.58204 16.3636C1.03659 16.2545 0.38204 16.5818 0.272949 17.2364C0.272949 17.7818 0.600222 18.3273 1.14568 18.5455L5.72749 19.4182C6.8184 19.6364 8.0184 18.8727 8.23659 17.7818Z" fill="#069748"/>
</svg>
