<svg width="100" height="118" viewBox="0 0 100 118" fill="none" xmlns="http://www.w3.org/2000/svg">
<path fill-rule="evenodd" clip-rule="evenodd" d="M50 40.1591L90.255 55.8116V102.294L50 117.946L9.74512 102.294V55.8116L50 40.1591Z" fill="#2B2C30"/>
<path fill-rule="evenodd" clip-rule="evenodd" d="M50 40.1591L90.2551 55.8116V102.294L50 117.946V40.1591Z" fill="#393B40"/>
<path fill-rule="evenodd" clip-rule="evenodd" d="M50 71.4148L40.8444 87.273L0.546875 71.6041L9.7025 55.7458L50 71.4148ZM50 71.4148L59.1556 87.273L99.4531 71.6041L90.2975 55.7458L50 71.4148Z" fill="#5A5A5B"/>
<path fill-rule="evenodd" clip-rule="evenodd" d="M90.1919 55.7867L49.9999 40.1591L9.80786 55.7867L49.9999 71.4148L90.1919 55.7867Z" fill="#2B2C30"/>
<path fill-rule="evenodd" clip-rule="evenodd" d="M90.192 55.7867L50 40.1591V71.4148L90.192 55.7867Z" fill="#393B40"/>
<path fill-rule="evenodd" clip-rule="evenodd" d="M49.9966 60.8363C61.3823 60.8363 70.6685 51.5501 70.6685 40.1642C70.6685 28.7787 61.3823 19.4926 49.9966 19.4926C38.6109 19.4926 29.3247 28.7787 29.3247 40.1642C29.3247 51.5501 38.6109 60.8363 49.9966 60.8363Z" fill="#009C48"/>
<path fill-rule="evenodd" clip-rule="evenodd" d="M54.1946 35.3087C54.8395 34.6893 55.8847 34.6893 56.5294 35.3087C57.1741 35.928 57.1741 36.9324 56.5294 37.5517L48.4763 45.2888C47.7462 45.9903 46.5399 45.88 45.9539 45.0737L42.5659 40.9773C41.9994 40.2929 42.1178 39.2968 42.8302 38.7528C43.5428 38.2085 44.5793 38.3223 45.1458 39.0067L47.4482 41.7904L54.1946 35.3087Z" fill="#EFF4F7"/>
<path fill-rule="evenodd" clip-rule="evenodd" d="M87.7385 38.7828C87.9865 38.78 88.2325 38.8265 88.4624 38.9194C88.6923 39.0124 88.9015 39.1501 89.0778 39.3245C89.2542 39.4988 89.3942 39.7064 89.4897 39.9353C89.5853 40.1641 89.6345 40.4097 89.6345 40.6577C89.6345 40.9057 89.5853 41.1512 89.4897 41.38C89.3942 41.6089 89.2542 41.8165 89.0778 41.9909C88.9015 42.1653 88.6923 42.3029 88.4624 42.3959C88.2325 42.4889 87.9865 42.5353 87.7385 42.5326H78.9567C78.7087 42.5353 78.4626 42.4889 78.2327 42.3959C78.0028 42.3029 77.7937 42.1653 77.6173 41.9909C77.441 41.8165 77.301 41.6089 77.2055 41.38C77.1099 41.1512 77.0607 40.9057 77.0607 40.6577C77.0607 40.4097 77.1099 40.1641 77.2055 39.9353C77.301 39.7064 77.441 39.4988 77.6173 39.3245C77.7937 39.1501 78.0028 39.0124 78.2327 38.9194C78.4626 38.8265 78.7087 38.78 78.9567 38.7828H87.7385ZM48.1211 1.92895C48.1211 1.43167 48.3187 0.95476 48.6703 0.60313C49.0219 0.251499 49.4989 0.0539551 49.9961 0.0539551C50.4934 0.0539551 50.9703 0.251499 51.322 0.60313C51.6736 0.95476 51.8711 1.43167 51.8711 1.92895V10.7108C51.8711 11.208 51.6736 11.6849 51.322 12.0366C50.9703 12.3882 50.4934 12.5858 49.9961 12.5858C49.4989 12.5858 49.0219 12.3882 48.6703 12.0366C48.3187 11.6849 48.1211 11.208 48.1211 10.7108V1.92895ZM29.1942 7.73536C29.072 7.52279 28.9929 7.28824 28.9614 7.04511C28.9299 6.80197 28.9466 6.55501 29.0106 6.31832C29.0745 6.08164 29.1844 5.85987 29.3341 5.66567C29.4838 5.47148 29.6702 5.30867 29.8828 5.18653C30.0954 5.06437 30.3299 4.98528 30.573 4.95378C30.8162 4.92227 31.0631 4.93896 31.2998 5.00291C31.5365 5.06685 31.7583 5.17679 31.9525 5.32644C32.1467 5.4761 32.3095 5.66254 32.4316 5.87513L36.8224 13.4801C37.0691 13.9094 37.1351 14.4192 37.006 14.8972C36.8768 15.3752 36.5631 15.7823 36.1338 16.029C35.7045 16.2756 35.1948 16.3417 34.7168 16.2125C34.2388 16.0834 33.8316 15.7697 33.585 15.3404L29.1942 7.73536ZM15.6996 22.238C15.487 22.1149 15.3008 21.9512 15.1515 21.7561C15.0022 21.561 14.8928 21.3384 14.8296 21.101C14.7663 20.8637 14.7505 20.6162 14.7829 20.3727C14.8153 20.1292 14.8953 19.8945 15.0185 19.6819C15.1416 19.4694 15.3053 19.2832 15.5004 19.1339C15.6955 18.9847 15.918 18.8753 16.1554 18.812C16.3927 18.7488 16.6402 18.7329 16.8836 18.7653C17.1271 18.7977 17.3618 18.8777 17.5743 19.0008L25.1793 23.3916C25.3938 23.5137 25.582 23.6771 25.7331 23.8723C25.8842 24.0674 25.9951 24.2906 26.0596 24.5288C26.124 24.7671 26.1406 25.0157 26.1085 25.2605C26.0764 25.5052 25.9962 25.7411 25.8725 25.9547C25.7488 26.1683 25.5841 26.3553 25.3878 26.5049C25.1915 26.6545 24.9675 26.7638 24.7288 26.8264C24.4901 26.8891 24.2413 26.9039 23.9968 26.87C23.7523 26.8361 23.517 26.7541 23.3043 26.6288L15.6996 22.238ZM11.2675 41.5458C11.0196 41.5486 10.7735 41.5022 10.5436 41.4092C10.3137 41.3162 10.1045 41.1785 9.92819 41.0042C9.75185 40.8298 9.61186 40.6222 9.51632 40.3933C9.42078 40.1645 9.37158 39.9189 9.37158 39.6709C9.37158 39.423 9.42078 39.1774 9.51632 38.9486C9.61186 38.7197 9.75185 38.5121 9.92819 38.3377C10.1045 38.1634 10.3137 38.0257 10.5436 37.9327C10.7735 37.8397 11.0196 37.7933 11.2675 37.7961H20.0493C20.2973 37.7933 20.5434 37.8397 20.7733 37.9327C21.0032 38.0257 21.2124 38.1634 21.3887 38.3377C21.565 38.5121 21.705 38.7197 21.8006 38.9486C21.8961 39.1774 21.9453 39.423 21.9453 39.6709C21.9453 39.9189 21.8961 40.1645 21.8006 40.3933C21.705 40.6222 21.565 40.8298 21.3887 41.0042C21.2124 41.1785 21.0032 41.3162 20.7733 41.4092C20.5434 41.5022 20.2973 41.5486 20.0493 41.5458H11.2675ZM67.4292 6.36825C67.5513 6.15568 67.7142 5.96925 67.9084 5.81961C68.1026 5.66997 68.3244 5.56004 68.5611 5.49611C68.7978 5.43218 69.0447 5.41549 69.2879 5.44701C69.531 5.47852 69.7656 5.55762 69.9781 5.67978C70.1907 5.80194 70.3771 5.96477 70.5268 6.15898C70.6764 6.35319 70.7863 6.57497 70.8503 6.81166C70.9142 7.04835 70.9309 7.29532 70.8994 7.53846C70.8679 7.7816 70.7888 8.01615 70.6666 8.22872L66.2758 15.8337C66.0291 16.263 65.622 16.5766 65.144 16.7058C64.666 16.8349 64.1563 16.7689 63.727 16.5223C63.2978 16.2755 62.9842 15.8683 62.855 15.3903C62.7259 14.9123 62.7919 14.4026 63.0384 13.9733L67.4292 6.36825ZM81.9248 19.8554C82.3541 19.6067 82.8646 19.5388 83.344 19.6665C83.8234 19.7943 84.2324 20.1072 84.4811 20.5365C84.7297 20.9658 84.7975 21.4762 84.6698 21.9556C84.542 22.4349 84.2291 22.8439 83.7998 23.0925L76.1948 27.4833C75.7658 27.7276 75.2576 27.7923 74.781 27.6634C74.3044 27.5346 73.8982 27.2225 73.6507 26.7953C73.4033 26.3681 73.3348 25.8604 73.4601 25.3829C73.5854 24.9054 73.8945 24.4968 74.3198 24.2461L81.9248 19.8554Z" fill="#009C48"/>
</svg>
