<svg width="24" height="24" viewBox="0 0 24 24" fill="none" xmlns="http://www.w3.org/2000/svg">
<mask id="path-1-inside-1_376_67" fill="white">
<path d="M20.6947 3.09592C20.6015 3.0384 20.4953 3.00561 20.3859 3.00066C20.2766 2.99571 20.1678 3.01876 20.0698 3.06763L15.1982 5.50401L9.68959 3.05539C9.68059 3.05155 9.6703 3.05087 9.66066 3.04703C9.63587 3.03777 9.61054 3.03004 9.5848 3.0239C9.55921 3.017 9.53324 3.01163 9.50702 3.00782C9.45482 3.00353 9.40236 3.00353 9.35017 3.00782C9.32395 3.01162 9.29796 3.01701 9.27239 3.0239C9.24666 3.03004 9.22131 3.03776 9.19652 3.04703C9.18688 3.05087 9.1766 3.05151 9.16759 3.05539L3.38184 5.6268C3.26817 5.67731 3.1716 5.7597 3.10382 5.86399C3.03605 5.96828 2.99998 6.08999 3 6.21437V20.3571C2.99996 20.7121 3.28774 21 3.6428 21C3.73275 21 3.82168 20.9812 3.90387 20.9446L9.42859 18.4889L14.9533 20.9446C14.963 20.9485 14.9732 20.9446 14.9829 20.9504C15.0597 20.9848 15.1433 21.0017 15.2274 20.9998C15.3116 20.9979 15.3943 20.9773 15.4695 20.9395C15.4798 20.935 15.4914 20.9395 15.5016 20.9324L20.6445 18.361C20.7514 18.3076 20.8412 18.2255 20.904 18.1239C20.9668 18.0222 21.0001 17.9051 21 17.7857V3.64296C21 3.5333 20.9719 3.42547 20.9185 3.32972C20.8651 3.23397 20.788 3.15348 20.6947 3.09592Z"/>
</mask>
<path d="M20.6947 3.09592L19.9064 4.37211L19.9073 4.37264L20.6947 3.09592ZM20.0698 3.06763L19.4001 1.72544L19.3989 1.72606L20.0698 3.06763ZM15.1982 5.50401L14.589 6.87469L15.2359 7.16228L15.8692 6.84558L15.1982 5.50401ZM9.68959 3.05539L10.2989 1.68471L10.2887 1.68017L10.2784 1.67578L9.68959 3.05539ZM9.66066 3.04703L10.2159 1.65356L10.2009 1.64759L10.1858 1.64194L9.66066 3.04703ZM9.5848 3.0239L9.19417 4.47215L9.21537 4.47787L9.23673 4.48296L9.5848 3.0239ZM9.50702 3.00782L9.72279 1.52342L9.67656 1.5167L9.63001 1.51287L9.50702 3.00782ZM9.35017 3.00782L9.22718 1.51287L9.1808 1.51669L9.13476 1.52337L9.35017 3.00782ZM9.27239 3.0239L9.62058 4.48293L9.64173 4.47788L9.66272 4.47223L9.27239 3.0239ZM9.19652 3.04703L8.67125 1.64201L8.65622 1.64763L8.64132 1.65356L9.19652 3.04703ZM9.16759 3.05539L8.57394 1.67787L8.56615 1.68123L8.55839 1.68467L9.16759 3.05539ZM3.38184 5.6268L3.9909 6.99758L3.99103 6.99752L3.38184 5.6268ZM3 6.21437H4.5V6.21417L3 6.21437ZM3 20.3571L4.5 20.3572V20.3571H3ZM3.6428 21L3.64264 22.5H3.6428V21ZM3.90387 20.9446L3.29461 19.5739L3.29455 19.574L3.90387 20.9446ZM9.42859 18.4889L10.0379 17.1182L9.42859 16.8474L8.81933 17.1182L9.42859 18.4889ZM14.9533 20.9446L14.3441 22.3153L14.3709 22.3272L14.3981 22.3381L14.9533 20.9446ZM14.9829 20.9504L14.2097 22.2358L14.2875 22.2826L14.3704 22.3197L14.9829 20.9504ZM15.4695 20.9395L14.8701 19.5645L14.8327 19.5808L14.7962 19.5991L15.4695 20.9395ZM15.5016 20.9324L14.8308 19.5908L14.7372 19.6376L14.6509 19.697L15.5016 20.9324ZM20.6445 18.361L19.974 17.0192L19.9737 17.0194L20.6445 18.361ZM21 17.7857H19.5V17.7864L21 17.7857ZM21 3.64296H22.5V3.64296L21 3.64296ZM21.4829 1.81974C21.1725 1.62799 20.8182 1.51869 20.4537 1.50219L20.3181 4.49912C20.1723 4.49252 20.0306 4.4488 19.9064 4.37211L21.4829 1.81974ZM20.4537 1.50219C20.0892 1.48569 19.7266 1.56254 19.4001 1.72544L20.7395 4.40983C20.6089 4.47499 20.4639 4.50572 20.3181 4.49912L20.4537 1.50219ZM19.3989 1.72606L14.5273 4.16243L15.8692 6.84558L20.7408 4.40921L19.3989 1.72606ZM15.8075 4.13332L10.2989 1.68471L9.08031 4.42608L14.589 6.87469L15.8075 4.13332ZM10.2784 1.67578C10.1973 1.64118 10.1286 1.62013 10.0855 1.60813C10.0636 1.60202 10.0455 1.59747 10.0337 1.59461C10.0226 1.59191 10.0133 1.58978 10.0123 1.58955C10.0088 1.58873 10.0146 1.59007 10.0209 1.59157C10.0283 1.59334 10.0418 1.59663 10.0587 1.6012C10.0921 1.61021 10.1483 1.62663 10.2159 1.65356L9.10546 4.4405C9.14212 4.4551 9.17544 4.46676 9.20415 4.47601C9.23276 4.48523 9.25768 4.49235 9.27727 4.49764C9.29667 4.50287 9.31261 4.50678 9.32244 4.50913C9.32744 4.51033 9.33157 4.51129 9.33412 4.51188C9.33542 4.51219 9.33651 4.51244 9.33719 4.51259C9.33753 4.51267 9.33784 4.51274 9.33803 4.51279C9.33827 4.51284 9.3383 4.51285 9.33839 4.51287C9.33881 4.51297 9.33726 4.51261 9.33516 4.51212C9.33292 4.51159 9.32912 4.5107 9.32434 4.50953C9.31502 4.50727 9.29927 4.50333 9.27972 4.49788C9.26 4.49238 9.23435 4.48477 9.20462 4.4747C9.17478 4.46458 9.13966 4.45159 9.10081 4.43501L10.2784 1.67578ZM10.1858 1.64194C10.1031 1.61106 10.0187 1.58532 9.93287 1.56485L9.23673 4.48296C9.2024 4.47477 9.16861 4.46447 9.13556 4.45212L10.1858 1.64194ZM9.97543 1.57566C9.89233 1.55325 9.80797 1.5358 9.72279 1.52342L9.29124 4.49222C9.25852 4.48746 9.2261 4.48076 9.19417 4.47215L9.97543 1.57566ZM9.63001 1.51287C9.49596 1.50184 9.36123 1.50184 9.22718 1.51287L9.47316 4.50277C9.4435 4.50521 9.41369 4.50521 9.38403 4.50277L9.63001 1.51287ZM9.13476 1.52337C9.04891 1.53583 8.96452 1.55336 8.88205 1.57558L9.66272 4.47223C9.63141 4.48067 9.599 4.48742 9.56558 4.49227L9.13476 1.52337ZM8.92419 1.56488C8.8387 1.58528 8.7542 1.611 8.67125 1.64201L9.7218 4.45205C9.68842 4.46453 9.65462 4.47481 9.62058 4.48293L8.92419 1.56488ZM8.64132 1.65356C8.7097 1.62632 8.76648 1.60979 8.80011 1.60076C8.81715 1.59618 8.83069 1.59289 8.838 1.59115C8.84415 1.58969 8.85008 1.58834 8.84618 1.58923C8.84495 1.58951 8.83538 1.5917 8.82389 1.59449C8.81176 1.59744 8.79313 1.60211 8.77065 1.60839C8.7265 1.62074 8.65642 1.64232 8.57394 1.67787L9.76125 4.43292C9.72171 4.44996 9.68589 4.46332 9.65538 4.47372C9.62499 4.48409 9.59873 4.49192 9.57846 4.49759C9.55837 4.50321 9.54214 4.50726 9.53243 4.50962C9.52746 4.51083 9.52348 4.51176 9.52109 4.51232C9.51882 4.51285 9.51716 4.51323 9.51746 4.51316C9.5175 4.51315 9.51755 4.51314 9.51775 4.5131C9.51791 4.51306 9.51819 4.513 9.51851 4.51292C9.51915 4.51278 9.5202 4.51253 9.52147 4.51224C9.52394 4.51167 9.52804 4.51072 9.53302 4.50953C9.54278 4.50721 9.55879 4.50331 9.5783 4.49807C9.598 4.49278 9.62314 4.48562 9.65202 4.47634C9.68101 4.46702 9.71468 4.45526 9.75173 4.4405L8.64132 1.65356ZM8.55839 1.68467L2.77264 4.25608L3.99103 6.99752L9.77679 4.42611L8.55839 1.68467ZM2.77277 4.25602C2.3939 4.42436 2.07199 4.699 1.84608 5.04663L4.36157 6.68134C4.27121 6.8204 4.14244 6.93025 3.9909 6.99758L2.77277 4.25602ZM1.84608 5.04663C1.62016 5.39427 1.49994 5.79997 1.5 6.21457L4.5 6.21417C4.50002 6.38001 4.45193 6.54229 4.36157 6.68134L1.84608 5.04663ZM1.5 6.21437V20.3571H4.5V6.21437H1.5ZM1.5 20.3569C1.49987 21.5404 2.45913 22.4999 3.64264 22.5L3.64295 19.5C4.11635 19.5 4.50005 19.8839 4.5 20.3572L1.5 20.3569ZM3.6428 22.5C3.94216 22.5 4.23872 22.4373 4.51319 22.3153L3.29455 19.574C3.40464 19.525 3.52333 19.5 3.6428 19.5V22.5ZM4.51313 22.3153L10.0379 19.8596L8.81933 17.1182L3.29461 19.5739L4.51313 22.3153ZM8.81933 19.8596L14.3441 22.3153L15.5626 19.5739L10.0379 17.1182L8.81933 19.8596ZM14.3981 22.3381C14.5668 22.4053 14.7122 22.4281 14.7973 22.4374C14.839 22.442 14.8722 22.4439 14.8867 22.4446C14.8941 22.445 14.9002 22.4453 14.9008 22.4453C14.9032 22.4454 14.8989 22.4452 14.8945 22.445C14.8812 22.4443 14.7868 22.4405 14.6692 22.416C14.5392 22.3889 14.3773 22.3366 14.2097 22.2358L15.7561 19.6651C15.4093 19.4564 15.0766 19.4503 15.0417 19.4486C15.036 19.4483 15.0306 19.4481 15.0317 19.4481C15.0317 19.4481 15.0317 19.4481 15.0318 19.4481C15.032 19.4482 15.0321 19.4482 15.0323 19.4482C15.0328 19.4482 15.0334 19.4482 15.0343 19.4483C15.036 19.4483 15.0387 19.4485 15.042 19.4486C15.0541 19.4493 15.0848 19.451 15.124 19.4553C15.2041 19.464 15.3447 19.4859 15.5085 19.5512L14.3981 22.3381ZM14.3704 22.3197C14.6503 22.4449 14.9545 22.5063 15.2611 22.4994L15.1938 19.5002C15.332 19.497 15.4692 19.5247 15.5954 19.5812L14.3704 22.3197ZM15.2611 22.4994C15.5677 22.4925 15.8689 22.4175 16.1429 22.2799L14.7962 19.5991C14.9197 19.5371 15.0555 19.5033 15.1938 19.5002L15.2611 22.4994ZM16.0689 22.3146C15.8919 22.3917 15.7387 22.417 15.655 22.427C15.6138 22.4319 15.5817 22.4339 15.5703 22.4345C15.5646 22.4349 15.5597 22.4351 15.5614 22.435C15.5615 22.435 15.5633 22.4349 15.5652 22.4348C15.5674 22.4347 15.5707 22.4345 15.5746 22.4343C15.6209 22.4315 15.9866 22.4197 16.3524 22.1678L14.6509 19.697C14.8253 19.577 14.9995 19.5119 15.1438 19.4773C15.274 19.446 15.379 19.4406 15.3965 19.4396C15.4024 19.4392 15.4072 19.439 15.4057 19.4391C15.4056 19.4391 15.4039 19.4392 15.4019 19.4393C15.3999 19.4394 15.3966 19.4396 15.3927 19.4398C15.3786 19.4406 15.3438 19.4428 15.2999 19.448C15.2107 19.4587 15.0523 19.4851 14.8701 19.5645L16.0689 22.3146ZM16.1725 22.2741L21.3153 19.7027L19.9737 17.0194L14.8308 19.5908L16.1725 22.2741ZM21.315 19.7028C21.6712 19.5248 21.9708 19.2511 22.1801 18.9123L19.628 17.3354C19.7117 17.1999 19.8315 17.0904 19.974 17.0192L21.315 19.7028ZM22.1801 18.9123C22.3894 18.5736 22.5002 18.1832 22.5 17.7849L19.5 17.7864C19.4999 17.6271 19.5442 17.4709 19.628 17.3354L22.1801 18.9123ZM22.5 17.7857V3.64296H19.5V17.7857H22.5ZM22.5 3.64296C22.5 3.27738 22.4065 2.91788 22.2283 2.59865L19.6087 4.06079C19.5374 3.93306 19.5 3.78922 19.5 3.64296L22.5 3.64296ZM22.2283 2.59865C22.0501 2.27943 21.7932 2.01111 21.4821 1.81921L19.9073 4.37264C19.7828 4.29586 19.68 4.18851 19.6087 4.06079L22.2283 2.59865Z" fill="#009C48" mask="url(#path-1-inside-1_376_67)"/>
<rect x="14.5" y="9" width="1.5" height="8" rx="0.75" fill="#009C48"/>
<rect x="8.5" y="7" width="1.5" height="8" rx="0.75" fill="#009C48"/>
</svg>
