<svg width="22" height="17" viewBox="0 0 22 17" fill="none" xmlns="http://www.w3.org/2000/svg">
<path fill-rule="evenodd" clip-rule="evenodd" d="M14.7867 16.8569V9.09928L21.5 5.22334V12.684C21.5 12.8724 21.4059 13.0353 21.2428 13.1296L14.7867 16.8569ZM6.71108 13.0013H1.29447C0.855729 13.0013 0.5 12.6456 0.5 12.2068C0.5 11.7681 0.855729 11.4124 1.29447 11.4124H6.68282C7.61453 11.4124 7.61453 9.92439 6.68282 9.92439H3.4448C3.00605 9.92439 2.65029 9.56866 2.65029 9.12992C2.65029 8.69117 3.00605 8.33545 3.4448 8.33545H5.97735C6.90906 8.33545 6.90906 6.84748 5.97735 6.84748H1.29451C0.85577 6.84748 0.500041 6.49175 0.500041 6.05301C0.500041 5.61426 0.85577 5.25854 1.29451 5.25854H6.73679L13.3893 9.0994V16.8569L6.71108 13.0013ZM7.36967 4.01445L14.088 7.89326L20.8063 4.01441L14.1009 0.143066H9.70136C9.26262 0.143066 8.90689 0.498795 8.90689 0.937539C8.90689 1.37628 9.26262 1.73201 9.70136 1.73201H10.6311C10.7165 1.73201 10.7881 1.78693 10.8102 1.86941C10.8322 1.9519 10.7978 2.03524 10.7238 2.07798L7.36967 4.01445ZM6.98724 0.143066C7.42598 0.143066 7.78171 0.498795 7.78171 0.937539C7.78171 1.37628 7.42598 1.73201 6.98724 1.73201H2.15818C1.71944 1.73201 1.36367 1.37628 1.36367 0.937539C1.36367 0.498795 1.71939 0.143066 2.15818 0.143066H6.98724Z" fill="#069748"/>
</svg>
