<svg width="37" height="37" viewBox="0 0 37 37" fill="none" xmlns="http://www.w3.org/2000/svg">
<mask id="mask0_439_319" style="mask-type:luminance" maskUnits="userSpaceOnUse" x="0" y="0" width="37" height="37">
<path d="M0.169067 0.012455H36.1916V36.0443H0.169067V0.012455Z" fill="white"/>
</mask>
<g mask="url(#mask0_439_319)">
<path d="M33.7215 34.2435L29.1141 29.6349L29.0251 29.7171C28.5061 30.1962 27.9194 30.5559 27.285 30.7911L32.229 35.7364C32.4351 35.9425 32.7052 36.0455 32.9753 36.0455C33.2453 36.0455 33.5154 35.9425 33.7215 35.7364C34.1336 35.3241 34.1336 34.6558 33.7215 34.2435Z" fill="black"/>
<path d="M25.9898 22.8829C25.9898 22.3015 26.4638 21.8273 27.0451 21.8273C27.6264 21.8273 28.1005 22.3015 28.1005 22.8829C28.1005 23.4643 27.6264 23.9385 27.0451 23.9385C26.4638 23.9385 25.9898 23.4643 25.9898 22.8829ZM23.3162 26.4016C22.735 26.4016 22.2609 25.9274 22.2609 25.346C22.2609 24.7646 22.735 24.2904 23.3162 24.2904C23.8975 24.2904 24.3716 24.7646 24.3716 25.346C24.3716 25.9274 23.8975 26.4016 23.3162 26.4016ZM13.0442 26.4016C12.4629 26.4016 11.9888 25.9274 11.9888 25.346C11.9888 24.7646 12.4629 24.2904 13.0442 24.2904C13.6255 24.2904 14.0995 24.7646 14.0995 25.346C14.0995 25.9274 13.6255 26.4016 13.0442 26.4016ZM9.31529 23.9385C8.73401 23.9385 8.25994 23.4643 8.25994 22.8829C8.25994 22.3015 8.73401 21.8273 9.31529 21.8273C9.89658 21.8273 10.3706 22.3015 10.3706 22.8829C10.3706 23.4643 9.89658 23.9385 9.31529 23.9385ZM29.523 26.384C31.0778 24.9485 31.8997 23.0709 31.8997 20.9543V5.81702C31.8997 4.37293 30.8248 3.0646 28.8407 2.05366L26.6082 16.4803C26.3085 18.5575 24.871 20.2107 22.8553 20.7954C21.4414 21.2056 20.0054 21.4109 18.5295 21.4109C16.9235 21.4109 15.2701 21.168 13.5436 20.6819C11.5024 20.107 10.0487 18.4456 9.7496 16.3458C9.48394 14.4817 9.12174 12.0376 8.73823 9.45005C8.35809 6.88524 7.96874 4.2585 7.64292 1.99131C5.57978 3.01048 4.46069 4.34316 4.46069 5.81702V20.9543C4.46069 23.0708 5.2826 24.9484 6.83741 26.384L8.767 28.1656C9.37052 28.7229 10.093 29.0055 10.9144 29.0055H25.446C26.2673 29.0055 26.9898 28.7229 27.5933 28.1656L29.523 26.384Z" fill="black"/>
<path d="M18.2325 3.1968C18.8138 3.1968 19.2879 3.67099 19.2879 4.25242C19.2879 4.83386 18.8138 5.30804 18.2325 5.30804C17.6512 5.30804 17.1772 4.83386 17.1772 4.25242C17.1772 3.67099 17.6512 3.1968 18.2325 3.1968ZM25.7252 8.38574L26.832 1.2337C24.4193 0.443041 21.381 0.0111513 18.1804 0.0111513C15.0378 0.0111513 12.0518 0.427558 9.66077 1.19112C9.96844 3.34529 10.3423 5.87534 10.7144 8.38574H25.7252Z" fill="black"/>
<path d="M14.1155 18.6496C17.038 19.4725 19.7044 19.5112 22.2675 18.7677C23.4962 18.4112 24.3382 17.4421 24.5196 16.1751C24.5202 16.1712 24.5208 16.1673 24.5214 16.1634L25.3983 10.4969H11.0271C11.335 12.577 11.6198 14.5082 11.8392 16.0479C12.0213 17.3269 12.8723 18.2994 14.1155 18.6496Z" fill="black"/>
<path d="M7.24661 29.6349L2.63924 34.2434C2.22702 34.6557 2.22702 35.3241 2.63924 35.7363C2.84525 35.9424 3.11534 36.0455 3.38544 36.0455C3.65554 36.0455 3.92564 35.9424 4.13171 35.7363L9.0756 30.7911C8.44119 30.5558 7.85442 30.1961 7.33547 29.7169L7.24661 29.6349Z" fill="black"/>
</g>
</svg>
