<svg width="36" height="22" viewBox="0 0 36 22" fill="none" xmlns="http://www.w3.org/2000/svg">
<path fill-rule="evenodd" clip-rule="evenodd" d="M32.4349 17.6731C32.4349 15.6695 30.8112 14.0454 28.8082 14.0454C26.8052 14.0454 25.1815 15.6695 25.1815 17.6731C25.1815 19.6766 26.8052 21.3007 28.8082 21.3007C30.8112 21.3007 32.4349 19.6766 32.4349 17.6731ZM27.2538 17.6731C27.2538 16.8144 27.9497 16.1184 28.8081 16.1184C29.6665 16.1184 30.3624 16.8144 30.3624 17.6731C30.3624 18.5317 29.6665 19.2277 28.8081 19.2277C27.9497 19.2277 27.2538 18.5317 27.2538 17.6731ZM10.6747 17.6731C10.6747 15.6695 9.05096 14.0454 7.04797 14.0454C5.04498 14.0454 3.42126 15.6695 3.42126 17.6731C3.42126 19.6766 5.04498 21.3007 7.04797 21.3007C9.05096 21.3007 10.6747 19.6766 10.6747 17.6731ZM5.49369 17.6731C5.49369 16.8144 6.18956 16.1184 7.04797 16.1184C7.90637 16.1184 8.60225 16.8144 8.60225 17.6731C8.60225 18.5317 7.90637 19.2277 7.04797 19.2277C6.18956 19.2278 5.49369 18.5317 5.49369 17.6731Z" fill="black"/>
<path fill-rule="evenodd" clip-rule="evenodd" d="M2.90325 0.571411H18.9643C19.48 0.571411 19.9172 0.950653 19.9901 1.46129L20.7335 6.6666C20.8222 7.28736 21.4441 7.8267 22.0726 7.8267H30.8806C31.0932 7.8267 31.3007 7.89208 31.4748 8.01405C31.6776 8.15604 31.9488 8.35075 32.3043 8.60913C32.5523 8.7896 32.8159 8.98266 33.0782 9.17572C33.2355 9.29156 33.3576 9.38172 33.4051 9.41738C34.6191 10.2674 35.5435 12.0448 35.5435 13.5285V16.6367C35.5435 17.2091 35.0796 17.6731 34.5073 17.6731H33.4711C33.4711 15.0973 31.3835 13.009 28.8082 13.009C26.2329 13.009 24.1453 15.0972 24.1453 17.6731H11.7109C11.7109 15.0973 9.62324 13.009 7.04796 13.009C4.47267 13.009 2.38504 15.0972 2.38504 17.6731H1.34883C0.776541 17.6731 0.312622 17.2091 0.312622 16.6367V11.4543C0.312622 11.4002 0.31689 11.3461 0.325285 11.2927L1.69275 2.62978C1.20337 2.54691 0.830695 2.12093 0.830695 1.60789C0.830695 1.03545 1.29461 0.571411 1.8669 0.571411H2.90325Z" fill="black"/>
<path fill-rule="evenodd" clip-rule="evenodd" d="M26.7359 2.64437C25.8542 1.46851 24.0611 0.571411 22.591 0.571411H18.9643C18.392 0.571411 17.9281 1.03545 17.9281 1.60789C17.9281 2.18033 18.392 2.64437 18.9643 2.64437H22.591C23.4088 2.64437 24.5875 3.23416 25.0779 3.88816L28.4973 8.44862C28.5678 8.54264 28.6537 8.62393 28.7515 8.68911L30.3058 9.72559C30.782 10.0431 31.4253 9.91438 31.7428 9.43809C32.0602 8.9618 31.9315 8.31826 31.4553 8.00076L30.0514 7.06457L26.7359 2.64437Z" fill="black"/>
</svg>
